{
.appVersion = "1352";
DisplayStrings = (
"HH0H1HH2HH3H\012HH4HH5HH6HH\012HH7H8HH9HH/zero.lf \0120/Placeholder 0/space 1/Placeholder 1/space 2/Placeholder 2/space 3/Placeholder 3/space 4/Placeholder 4/space 5/Placeholder 5/space 6/Placeholder 6/space 7/Placeholder 7/space 8/Placeholder 8/space 9/Placeholder 9\012012923247506977478989/nbspace \012/zero.lf/one.lf/two.lf/nine.lf/two.lf/four.lf 55/five.lf/six.lf/seven.lf/four.lf 6/eight.lf/nine.lf \012nn/Placeholder no/Placeholder oo\012/zero.osf/one.osf/two.osf/three.osf/four.osf/five.osf/six.osf/seven.osf/zero.osf/eight.osf/nine.osf",

glyphs = (
{
color = 1;
glyphname = A;
lastChange = "2022-02-09 19:53:22 +0000";
layers = (
{
anchors = (
{
name = bottom;
position = "{629, 0}";
},
{
name = ogonek;
position = "{866, 0}";
},
{
name = top;
position = "{1082, 625}";
}
);
background = {
paths = (
{
closed = 1;
nodes = (
"288 -124 OFFCURVE",
"413 -56 OFFCURVE",
"508 11 CURVE SMOOTH",
"591 68 OFFCURVE",
"657 147 OFFCURVE",
"724 222 CURVE",
"745 221 OFFCURVE",
"766 221 OFFCURVE",
"787 221 CURVE SMOOTH",
"813 221 OFFCURVE",
"840 221 OFFCURVE",
"867 224 CURVE",
"909 264 LINE",
"884 192 OFFCURVE",
"856 90 OFFCURVE",
"856 16 CURVE SMOOTH",
"856 -23 OFFCURVE",
"861 -56 OFFCURVE",
"906 -56 CURVE SMOOTH",
"932 -56 OFFCURVE",
"996 -37 OFFCURVE",
"997 -6 CURVE SMOOTH",
"997 -5 OFFCURVE",
"997 -5 OFFCURVE",
"997 -4 CURVE SMOOTH",
"997 -2 OFFCURVE",
"996 0 OFFCURVE",
"994 -1 CURVE",
"982 -15 OFFCURVE",
"970 -26 OFFCURVE",
"951 -26 CURVE SMOOTH",
"916 -26 OFFCURVE",
"912 12 OFFCURVE",
"912 38 CURVE SMOOTH",
"912 140 OFFCURVE",
"1010 448 OFFCURVE",
"1061 533 CURVE SMOOTH",
"1076 558 OFFCURVE",
"1086 543 OFFCURVE",
"1093 578 CURVE SMOOTH",
"1094 584 OFFCURVE",
"1096 590 OFFCURVE",
"1096 596 CURVE SMOOTH",
"1096 614 OFFCURVE",
"1084 627 OFFCURVE",
"1066 627 CURVE SMOOTH",
"1049 627 OFFCURVE",
"1026 611 OFFCURVE",
"1013 600 CURVE",
"890 650 OFFCURVE",
"738 702 OFFCURVE",
"604 702 CURVE SMOOTH",
"518 702 OFFCURVE",
"413 678 OFFCURVE",
"365 599 CURVE SMOOTH",
"352 576 OFFCURVE",
"344 551 OFFCURVE",
"344 525 CURVE SMOOTH",
"344 430 OFFCURVE",
"431 382 OFFCURVE",
"516 382 CURVE SMOOTH",
"545 382 OFFCURVE",
"578 388 OFFCURVE",
"595 414 CURVE",
"595 416 OFFCURVE",
"596 418 OFFCURVE",
"596 420 CURVE SMOOTH",
"596 421 OFFCURVE",
"595 423 OFFCURVE",
"593 424 CURVE",
"579 410 OFFCURVE",
"562 401 OFFCURVE",
"542 401 CURVE SMOOTH",
"468 401 OFFCURVE",
"381 444 OFFCURVE",
"381 528 CURVE SMOOTH",
"381 549 OFFCURVE",
"387 569 OFFCURVE",
"399 586 CURVE SMOOTH",
"442 652 OFFCURVE",
"540 667 OFFCURVE",
"612 667 CURVE SMOOTH",
"732 667 OFFCURVE",
"883 628 OFFCURVE",
"993 582 CURVE",
"896 482 OFFCURVE",
"817 367 OFFCURVE",
"727 261 CURVE",
"669 263 OFFCURVE",
"611 268 OFFCURVE",
"553 268 CURVE SMOOTH",
"504 268 OFFCURVE",
"458 252 OFFCURVE",
"416 229 CURVE SMOOTH",
"398 219 OFFCURVE",
"356 196 OFFCURVE",
"356 174 CURVE SMOOTH",
"356 165 OFFCURVE",
"364 157 OFFCURVE",
"372 154 CURVE",
"377 170 OFFCURVE",
"381 188 OFFCURVE",
"391 202 CURVE SMOOTH",
"411 229 OFFCURVE",
"460 233 OFFCURVE",
"491 233 CURVE SMOOTH",
"499 233 OFFCURVE",
"507 232 OFFCURVE",
"515 232 CURVE SMOOTH",
"694 223 LINE",
"645 167 OFFCURVE",
"591 113 OFFCURVE",
"537 61 CURVE SMOOTH",
"450 -23 OFFCURVE",
"324 -92 OFFCURVE",
"200 -92 CURVE SMOOTH",
"109 -92 OFFCURVE",
"34 -52 OFFCURVE",
"10 41 CURVE SMOOTH",
"9 45 OFFCURVE",
"8 49 OFFCURVE",
"8 52 CURVE SMOOTH",
"8 89 OFFCURVE",
"53 100 OFFCURVE",
"54 104 CURVE SMOOTH",
"54 105 OFFCURVE",
"54 105 OFFCURVE",
"53 105 CURVE SMOOTH",
"47 105 OFFCURVE",
"15 91 OFFCURVE",
"8 88 CURVE",
"-7 79 OFFCURVE",
"-7 73 OFFCURVE",
"-14 58 CURVE SMOOTH",
"-15 55 OFFCURVE",
"-20 41 OFFCURVE",
"-26 41 CURVE SMOOTH",
"-32 41 OFFCURVE",
"-33 53 OFFCURVE",
"-37 56 CURVE",
"-40 55 OFFCURVE",
"-40 51 OFFCURVE",
"-40 48 CURVE SMOOTH",
"-40 -7 OFFCURVE",
"-10 -61 OFFCURVE",
"38 -90 CURVE SMOOTH",
"77 -114 OFFCURVE",
"122 -124 OFFCURVE",
"168 -124 CURVE SMOOTH"
);
},
{
closed = 1;
nodes = (
"809 256 OFFCURVE",
"783 258 OFFCURVE",
"756 259 CURVE",
"848 368 OFFCURVE",
"940 477 OFFCURVE",
"1032 586 CURVE",
"997 476 OFFCURVE",
"946 373 OFFCURVE",
"909 264 CURVE",
"885 257 OFFCURVE",
"861 256 OFFCURVE",
"836 256 CURVE SMOOTH"
);
}
);
};
layerId = "56A77921-5252-498D-AF45-CD2B441B871C";
paths = (
{
closed = 1;
nodes = (
"288 -124 OFFCURVE",
"413 -56 OFFCURVE",
"508 11 CURVE SMOOTH",
"591 68 OFFCURVE",
"657 147 OFFCURVE",
"724 222 CURVE",
"745 221 OFFCURVE",
"766 221 OFFCURVE",
"787 221 CURVE SMOOTH",
"813 221 OFFCURVE",
"840 221 OFFCURVE",
"867 224 CURVE",
"909 264 LINE",
"884 192 OFFCURVE",
"856 90 OFFCURVE",
"856 16 CURVE SMOOTH",
"856 -23 OFFCURVE",
"861 -56 OFFCURVE",
"906 -56 CURVE SMOOTH",
"932 -56 OFFCURVE",
"997 -37 OFFCURVE",
"997 -6 CURVE SMOOTH",
"997 -4 LINE SMOOTH",
"997 -2 OFFCURVE",
"996 0 OFFCURVE",
"994 -1 CURVE",
"982 -15 OFFCURVE",
"970 -26 OFFCURVE",
"951 -26 CURVE SMOOTH",
"916 -26 OFFCURVE",
"912 12 OFFCURVE",
"912 38 CURVE SMOOTH",
"912 140 OFFCURVE",
"1010 448 OFFCURVE",
"1061 533 CURVE SMOOTH",
"1076 558 OFFCURVE",
"1086 543 OFFCURVE",
"1093 578 CURVE SMOOTH",
"1094 584 OFFCURVE",
"1096 590 OFFCURVE",
"1096 596 CURVE SMOOTH",
"1096 614 OFFCURVE",
"1084 627 OFFCURVE",
"1066 627 CURVE SMOOTH",
"1049 627 OFFCURVE",
"1026 611 OFFCURVE",
"1013 600 CURVE",
"890 650 OFFCURVE",
"738 702 OFFCURVE",
"604 702 CURVE SMOOTH",
"518 702 OFFCURVE",
"413 678 OFFCURVE",
"365 599 CURVE SMOOTH",
"352 576 OFFCURVE",
"344 551 OFFCURVE",
"344 525 CURVE SMOOTH",
"344 430 OFFCURVE",
"431 382 OFFCURVE",
"516 382 CURVE SMOOTH",
"545 382 OFFCURVE",
"578 388 OFFCURVE",
"595 414 CURVE",
"595 416 OFFCURVE",
"596 418 OFFCURVE",
"596 420 CURVE SMOOTH",
"596 421 OFFCURVE",
"595 423 OFFCURVE",
"593 424 CURVE",
"579 410 OFFCURVE",
"562 401 OFFCURVE",
"542 401 CURVE SMOOTH",
"468 401 OFFCURVE",
"381 444 OFFCURVE",
"381 528 CURVE SMOOTH",
"381 549 OFFCURVE",
"387 569 OFFCURVE",
"399 586 CURVE SMOOTH",
"442 652 OFFCURVE",
"540 667 OFFCURVE",
"612 667 CURVE SMOOTH",
"732 667 OFFCURVE",
"883 628 OFFCURVE",
"993 582 CURVE",
"896 482 OFFCURVE",
"817 367 OFFCURVE",
"727 261 CURVE",
"669 263 OFFCURVE",
"611 268 OFFCURVE",
"553 268 CURVE SMOOTH",
"504 268 OFFCURVE",
"458 252 OFFCURVE",
"416 229 CURVE SMOOTH",
"398 219 OFFCURVE",
"356 196 OFFCURVE",
"356 174 CURVE SMOOTH",
"356 165 OFFCURVE",
"364 157 OFFCURVE",
"372 154 CURVE",
"377 170 OFFCURVE",
"381 188 OFFCURVE",
"391 202 CURVE SMOOTH",
"411 229 OFFCURVE",
"460 233 OFFCURVE",
"491 233 CURVE SMOOTH",
"499 233 OFFCURVE",
"507 232 OFFCURVE",
"515 232 CURVE SMOOTH",
"694 223 LINE",
"645 167 OFFCURVE",
"591 113 OFFCURVE",
"537 61 CURVE SMOOTH",
"450 -23 OFFCURVE",
"324 -92 OFFCURVE",
"200 -92 CURVE SMOOTH",
"109 -92 OFFCURVE",
"34 -52 OFFCURVE",
"10 41 CURVE SMOOTH",
"9 45 OFFCURVE",
"8 49 OFFCURVE",
"8 52 CURVE SMOOTH",
"8 89 OFFCURVE",
"53 100 OFFCURVE",
"54 104 CURVE SMOOTH",
"54 105 OFFCURVE",
"54 105 OFFCURVE",
"53 105 CURVE SMOOTH",
"47 105 OFFCURVE",
"15 91 OFFCURVE",
"8 88 CURVE",
"-7 79 OFFCURVE",
"-7 73 OFFCURVE",
"-14 58 CURVE SMOOTH",
"-15 55 OFFCURVE",
"-20 41 OFFCURVE",
"-26 41 CURVE SMOOTH",
"-32 41 OFFCURVE",
"-33 53 OFFCURVE",
"-37 56 CURVE",
"-40 55 OFFCURVE",
"-40 51 OFFCURVE",
"-40 48 CURVE SMOOTH",
"-40 -7 OFFCURVE",
"-10 -61 OFFCURVE",
"38 -90 CURVE SMOOTH",
"77 -114 OFFCURVE",
"122 -124 OFFCURVE",
"168 -124 CURVE SMOOTH"
);
},
{
closed = 1;
nodes = (
"809 256 OFFCURVE",
"783 258 OFFCURVE",
"756 259 CURVE",
"1032 586 LINE",
"997 476 OFFCURVE",
"946 373 OFFCURVE",
"909 264 CURVE",
"885 257 OFFCURVE",
"861 256 OFFCURVE",
"836 256 CURVE SMOOTH"
);
}
);
width = 1018;
}
);
leftKerningGroup = A;
note = A;
rightKerningGroup = A;
unicode = 0041;
},
{
color = 3;
glyphname = AE;
lastChange = "2022-02-09 10:51:45 +0000";
layers = (
{
anchors = (
{
name = top;
position = "{1111, 694}";
}
);
background = {
paths = (
{
closed = 1;
nodes = (
"288 -124 OFFCURVE",
"412 -56 OFFCURVE",
"508 11 CURVE SMOOTH",
"591 68 OFFCURVE",
"658 147 OFFCURVE",
"724 222 CURVE",
"782 220 OFFCURVE",
"841 220 OFFCURVE",
"899 219 CURVE",
"868 129 OFFCURVE",
"840 60 OFFCURVE",
"787 -21 CURVE",
"900 -65 OFFCURVE",
"1048 -104 OFFCURVE",
"1169 -104 CURVE SMOOTH",
"1263 -104 OFFCURVE",
"1366 -82 OFFCURVE",
"1381 27 CURVE SMOOTH",
"1381 29 OFFCURVE",
"1381 30 OFFCURVE",
"1381 32 CURVE SMOOTH",
"1381 43 OFFCURVE",
"1369 73 OFFCURVE",
"1355 73 CURVE SMOOTH",
"1352 73 OFFCURVE",
"1352 69 OFFCURVE",
"1352 67 CURVE SMOOTH",
"1352 56 OFFCURVE",
"1356 45 OFFCURVE",
"1356 34 CURVE SMOOTH",
"1356 -54 OFFCURVE",
"1219 -60 OFFCURVE",
"1156 -60 CURVE SMOOTH",
"1058 -60 OFFCURVE",
"924 -40 OFFCURVE",
"831 -5 CURVE",
"890 59 OFFCURVE",
"928 138 OFFCURVE",
"958 219 CURVE",
"1026 218 OFFCURVE",
"1095 218 OFFCURVE",
"1164 218 CURVE SMOOTH",
"1203 218 OFFCURVE",
"1244 216 OFFCURVE",
"1284 219 CURVE",
"1326 259 LINE",
"1296 251 OFFCURVE",
"1180 253 OFFCURVE",
"1146 253 CURVE SMOOTH",
"1088 253 OFFCURVE",
"1029 254 OFFCURVE",
"971 254 CURVE",
"1005 351 OFFCURVE",
"1034 449 OFFCURVE",
"1083 540 CURVE SMOOTH",
"1085 543 OFFCURVE",
"1087 546 OFFCURVE",
"1088 550 CURVE",
"1165 525 OFFCURVE",
"1242 507 OFFCURVE",
"1321 493 CURVE SMOOTH",
"1329 492 OFFCURVE",
"1337 490 OFFCURVE",
"1346 490 CURVE SMOOTH",
"1383 490 OFFCURVE",
"1418 523 OFFCURVE",
"1436 552 CURVE SMOOTH",
"1437 554 OFFCURVE",
"1438 557 OFFCURVE",
"1438 559 CURVE SMOOTH",
"1438 561 OFFCURVE",
"1437 563 OFFCURVE",
"1435 563 CURVE SMOOTH",
"1430 563 OFFCURVE",
"1427 558 OFFCURVE",
"1424 554 CURVE SMOOTH",
"1409 536 OFFCURVE",
"1382 535 OFFCURVE",
"1360 535 CURVE SMOOTH",
"1296 535 OFFCURVE",
"1229 551 OFFCURVE",
"1166 566 CURVE SMOOTH",
"1083 587 OFFCURVE",
"1000 611 OFFCURVE",
"918 636 CURVE SMOOTH",
"867 652 OFFCURVE",
"816 669 OFFCURVE",
"764 682 CURVE SMOOTH",
"712 694 OFFCURVE",
"658 702 OFFCURVE",
"604 702 CURVE SMOOTH",
"518 702 OFFCURVE",
"413 679 OFFCURVE",
"365 599 CURVE SMOOTH",
"352 576 OFFCURVE",
"344 551 OFFCURVE",
"344 525 CURVE SMOOTH",
"344 430 OFFCURVE",
"431 382 OFFCURVE",
"516 382 CURVE SMOOTH",
"546 382 OFFCURVE",
"577 388 OFFCURVE",
"595 414 CURVE",
"595 416 OFFCURVE",
"596 418 OFFCURVE",
"596 420 CURVE SMOOTH",
"596 421 OFFCURVE",
"595 423 OFFCURVE",
"593 424 CURVE",
"579 410 OFFCURVE",
"562 401 OFFCURVE",
"542 401 CURVE SMOOTH",
"468 401 OFFCURVE",
"381 444 OFFCURVE",
"381 528 CURVE SMOOTH",
"381 549 OFFCURVE",
"387 569 OFFCURVE",
"399 586 CURVE SMOOTH",
"442 652 OFFCURVE",
"540 667 OFFCURVE",
"612 667 CURVE SMOOTH",
"745 667 OFFCURVE",
"871 625 OFFCURVE",
"995 581 CURVE",
"900 480 OFFCURVE",
"817 367 OFFCURVE",
"727 261 CURVE",
"669 263 OFFCURVE",
"611 268 OFFCURVE",
"553 268 CURVE SMOOTH",
"504 268 OFFCURVE",
"458 252 OFFCURVE",
"416 229 CURVE SMOOTH",
"398 220 OFFCURVE",
"356 196 OFFCURVE",
"356 174 CURVE SMOOTH",
"356 165 OFFCURVE",
"364 157 OFFCURVE",
"372 154 CURVE",
"377 170 OFFCURVE",
"381 188 OFFCURVE",
"391 202 CURVE SMOOTH",
"411 229 OFFCURVE",
"460 233 OFFCURVE",
"491 233 CURVE SMOOTH",
"499 233 OFFCURVE",
"507 232 OFFCURVE",
"515 232 CURVE SMOOTH",
"694 223 LINE",
"645 167 OFFCURVE",
"591 113 OFFCURVE",
"537 61 CURVE SMOOTH",
"450 -23 OFFCURVE",
"324 -92 OFFCURVE",
"200 -92 CURVE SMOOTH",
"109 -92 OFFCURVE",
"34 -52 OFFCURVE",
"10 41 CURVE SMOOTH",
"9 45 OFFCURVE",
"8 49 OFFCURVE",
"8 52 CURVE SMOOTH",
"8 89 OFFCURVE",
"53 100 OFFCURVE",
"54 104 CURVE SMOOTH",
"54 105 OFFCURVE",
"54 105 OFFCURVE",
"53 105 CURVE SMOOTH",
"47 105 OFFCURVE",
"15 91 OFFCURVE",
"8 88 CURVE",
"-7 79 OFFCURVE",
"-7 73 OFFCURVE",
"-14 58 CURVE SMOOTH",
"-15 55 OFFCURVE",
"-20 41 OFFCURVE",
"-26 41 CURVE SMOOTH",
"-32 41 OFFCURVE",
"-33 53 OFFCURVE",
"-37 56 CURVE",
"-40 55 OFFCURVE",
"-40 51 OFFCURVE",
"-40 48 CURVE SMOOTH",
"-40 -7 OFFCURVE",
"-10 -61 OFFCURVE",
"38 -90 CURVE SMOOTH",
"77 -114 OFFCURVE",
"122 -124 OFFCURVE",
"168 -124 CURVE SMOOTH"
);
},
{
closed = 1;
nodes = (
"860 256 OFFCURVE",
"808 257 OFFCURVE",
"756 259 CURVE",
"845 363 OFFCURVE",
"932 468 OFFCURVE",
"1020 573 CURVE",
"1054 561 LINE",
"1048 554 OFFCURVE",
"1040 547 OFFCURVE",
"1035 539 CURVE SMOOTH",
"1026 527 OFFCURVE",
"1019 513 OFFCURVE",
"1011 500 CURVE SMOOTH",
"969 422 OFFCURVE",
"941 338 OFFCURVE",
"912 255 CURVE"
);
}
);
};
layerId = "56A77921-5252-498D-AF45-CD2B441B871C";
paths = (
{
closed = 1;
nodes = (
"288 -124 OFFCURVE",
"412 -56 OFFCURVE",
"508 11 CURVE SMOOTH",
"591 68 OFFCURVE",
"658 147 OFFCURVE",
"724 222 CURVE",
"782 220 OFFCURVE",
"841 220 OFFCURVE",
"899 219 CURVE",
"868 129 OFFCURVE",
"840 60 OFFCURVE",
"787 -21 CURVE",
"900 -65 OFFCURVE",
"1048 -104 OFFCURVE",
"1169 -104 CURVE SMOOTH",
"1263 -104 OFFCURVE",
"1366 -82 OFFCURVE",
"1381 27 CURVE",
"1381 32 LINE SMOOTH",
"1381 43 OFFCURVE",
"1369 73 OFFCURVE",
"1355 73 CURVE SMOOTH",
"1352 73 OFFCURVE",
"1352 69 OFFCURVE",
"1352 67 CURVE SMOOTH",
"1352 56 OFFCURVE",
"1356 45 OFFCURVE",
"1356 34 CURVE SMOOTH",
"1356 -54 OFFCURVE",
"1219 -60 OFFCURVE",
"1156 -60 CURVE SMOOTH",
"1058 -60 OFFCURVE",
"924 -40 OFFCURVE",
"831 -5 CURVE",
"890 59 OFFCURVE",
"928 138 OFFCURVE",
"958 219 CURVE",
"1026 218 OFFCURVE",
"1095 218 OFFCURVE",
"1164 218 CURVE SMOOTH",
"1186 218 OFFCURVE",
"1209 217 OFFCURVE",
"1232 217 CURVE SMOOTH",
"1250 217 OFFCURVE",
"1267 218 OFFCURVE",
"1284 219 CURVE",
"1326 259 LINE",
"1306 254 OFFCURVE",
"1248 253 OFFCURVE",
"1201 253 CURVE SMOOTH",
"1146 253 LINE SMOOTH",
"1088 253 OFFCURVE",
"1029 254 OFFCURVE",
"971 254 CURVE",
"1005 351 OFFCURVE",
"1034 449 OFFCURVE",
"1083 540 CURVE SMOOTH",
"1085 543 OFFCURVE",
"1087 546 OFFCURVE",
"1088 550 CURVE",
"1165 525 OFFCURVE",
"1242 507 OFFCURVE",
"1321 493 CURVE SMOOTH",
"1329 492 OFFCURVE",
"1337 490 OFFCURVE",
"1346 490 CURVE SMOOTH",
"1383 490 OFFCURVE",
"1418 523 OFFCURVE",
"1436 552 CURVE SMOOTH",
"1437 554 OFFCURVE",
"1438 557 OFFCURVE",
"1438 559 CURVE SMOOTH",
"1438 561 OFFCURVE",
"1437 563 OFFCURVE",
"1435 563 CURVE SMOOTH",
"1430 563 OFFCURVE",
"1427 558 OFFCURVE",
"1424 554 CURVE SMOOTH",
"1409 536 OFFCURVE",
"1382 535 OFFCURVE",
"1360 535 CURVE SMOOTH",
"1296 535 OFFCURVE",
"1229 551 OFFCURVE",
"1166 566 CURVE SMOOTH",
"1083 587 OFFCURVE",
"1000 611 OFFCURVE",
"918 636 CURVE SMOOTH",
"867 652 OFFCURVE",
"816 669 OFFCURVE",
"764 682 CURVE SMOOTH",
"712 694 OFFCURVE",
"658 702 OFFCURVE",
"604 702 CURVE SMOOTH",
"518 702 OFFCURVE",
"413 679 OFFCURVE",
"365 599 CURVE SMOOTH",
"352 576 OFFCURVE",
"344 551 OFFCURVE",
"344 525 CURVE SMOOTH",
"344 430 OFFCURVE",
"431 382 OFFCURVE",
"516 382 CURVE SMOOTH",
"546 382 OFFCURVE",
"577 388 OFFCURVE",
"595 414 CURVE",
"595 416 OFFCURVE",
"596 418 OFFCURVE",
"596 420 CURVE SMOOTH",
"596 421 OFFCURVE",
"595 423 OFFCURVE",
"593 424 CURVE",
"579 410 OFFCURVE",
"562 401 OFFCURVE",
"542 401 CURVE SMOOTH",
"468 401 OFFCURVE",
"381 444 OFFCURVE",
"381 528 CURVE SMOOTH",
"381 549 OFFCURVE",
"387 569 OFFCURVE",
"399 586 CURVE SMOOTH",
"442 652 OFFCURVE",
"540 667 OFFCURVE",
"612 667 CURVE SMOOTH",
"745 667 OFFCURVE",
"871 625 OFFCURVE",
"995 581 CURVE",
"900 480 OFFCURVE",
"817 367 OFFCURVE",
"727 261 CURVE",
"669 263 OFFCURVE",
"611 268 OFFCURVE",
"553 268 CURVE SMOOTH",
"504 268 OFFCURVE",
"458 252 OFFCURVE",
"416 229 CURVE SMOOTH",
"398 220 OFFCURVE",
"356 196 OFFCURVE",
"356 174 CURVE SMOOTH",
"356 165 OFFCURVE",
"364 157 OFFCURVE",
"372 154 CURVE",
"377 170 OFFCURVE",
"381 188 OFFCURVE",
"391 202 CURVE SMOOTH",
"411 229 OFFCURVE",
"460 233 OFFCURVE",
"491 233 CURVE SMOOTH",
"499 233 OFFCURVE",
"507 232 OFFCURVE",
"515 232 CURVE SMOOTH",
"694 223 LINE",
"645 167 OFFCURVE",
"591 113 OFFCURVE",
"537 61 CURVE SMOOTH",
"450 -23 OFFCURVE",
"324 -92 OFFCURVE",
"200 -92 CURVE SMOOTH",
"109 -92 OFFCURVE",
"34 -52 OFFCURVE",
"10 41 CURVE SMOOTH",
"9 45 OFFCURVE",
"8 49 OFFCURVE",
"8 52 CURVE SMOOTH",
"8 89 OFFCURVE",
"53 100 OFFCURVE",
"54 104 CURVE SMOOTH",
"54 105 OFFCURVE",
"54 105 OFFCURVE",
"53 105 CURVE SMOOTH",
"47 105 OFFCURVE",
"15 91 OFFCURVE",
"8 88 CURVE",
"-7 79 OFFCURVE",
"-7 73 OFFCURVE",
"-14 58 CURVE SMOOTH",
"-15 55 OFFCURVE",
"-20 41 OFFCURVE",
"-26 41 CURVE SMOOTH",
"-32 41 OFFCURVE",
"-33 53 OFFCURVE",
"-37 56 CURVE",
"-40 55 OFFCURVE",
"-40 51 OFFCURVE",
"-40 48 CURVE SMOOTH",
"-40 -7 OFFCURVE",
"-10 -61 OFFCURVE",
"38 -90 CURVE SMOOTH",
"77 -114 OFFCURVE",
"122 -124 OFFCURVE",
"168 -124 CURVE SMOOTH"
);
},
{
closed = 1;
nodes = (
"860 256 OFFCURVE",
"808 257 OFFCURVE",
"756 259 CURVE",
"845 363 OFFCURVE",
"932 468 OFFCURVE",
"1020 573 CURVE",
"1054 561 LINE",
"1048 554 OFFCURVE",
"1040 547 OFFCURVE",
"1035 539 CURVE SMOOTH",
"1026 527 OFFCURVE",
"1019 513 OFFCURVE",
"1011 500 CURVE SMOOTH",
"969 422 OFFCURVE",
"941 338 OFFCURVE",
"912 255 CURVE"
);
}
);
width = 1063;
}
);
leftKerningGroup = A;
note = AE;
rightKerningGroup = E;
unicode = 00C6;
},
{
glyphname = B;
lastChange = "2022-02-01 15:30:14 +0000";
layers = (
{
background = {
paths = (
{
closed = 1;
nodes = (
"524 -47 OFFCURVE",
"601 -10 OFFCURVE",
"688 55 CURVE SMOOTH",
"722 81 OFFCURVE",
"749 119 OFFCURVE",
"749 163 CURVE SMOOTH",
"749 259 OFFCURVE",
"639 290 OFFCURVE",
"562 293 CURVE SMOOTH",
"588 292 OFFCURVE",
"674 343 OFFCURVE",
"700 358 CURVE SMOOTH",
"759 393 OFFCURVE",
"849 455 OFFCURVE",
"849 534 CURVE SMOOTH",
"849 633 OFFCURVE",
"711 683 OFFCURVE",
"632 700 CURVE SMOOTH",
"585 710 OFFCURVE",
"537 715 OFFCURVE",
"489 715 CURVE SMOOTH",
"319 715 OFFCURVE",
"55 650 OFFCURVE",
"11 460 CURVE SMOOTH",
"8 446 OFFCURVE",
"6 430 OFFCURVE",
"6 416 CURVE SMOOTH",
"6 405 OFFCURVE",
"16 364 OFFCURVE",
"28 364 CURVE SMOOTH",
"33 364 OFFCURVE",
"33 369 OFFCURVE",
"36 372 CURVE",
"36 372 OFFCURVE",
"38 373 OFFCURVE",
"39 373 CURVE SMOOTH",
"48 373 OFFCURVE",
"64 357 OFFCURVE",
"87 357 CURVE SMOOTH",
"94 357 OFFCURVE",
"114 361 OFFCURVE",
"114 371 CURVE SMOOTH",
"114 374 OFFCURVE",
"108 374 OFFCURVE",
"107 374 CURVE SMOOTH",
"97 374 OFFCURVE",
"87 371 OFFCURVE",
"77 371 CURVE SMOOTH",
"76 371 OFFCURVE",
"75 371 OFFCURVE",
"74 371 CURVE",
"41 383 OFFCURVE",
"29 415 OFFCURVE",
"29 448 CURVE SMOOTH",
"29 457 OFFCURVE",
"30 466 OFFCURVE",
"32 475 CURVE SMOOTH",
"73 631 OFFCURVE",
"318 669 OFFCURVE",
"454 669 CURVE SMOOTH",
"500 669 OFFCURVE",
"545 666 OFFCURVE",
"590 659 CURVE SMOOTH",
"656 648 OFFCURVE",
"809 612 OFFCURVE",
"809 524 CURVE SMOOTH",
"809 460 OFFCURVE",
"724 400 OFFCURVE",
"676 370 CURVE SMOOTH",
"613 330 OFFCURVE",
"515 300 OFFCURVE",
"440 300 CURVE SMOOTH",
"431 300 OFFCURVE",
"406 269 OFFCURVE",
"406 260 CURVE SMOOTH",
"406 257 OFFCURVE",
"408 256 OFFCURVE",
"410 256 CURVE SMOOTH",
"412 256 LINE SMOOTH",
"433 259 OFFCURVE",
"453 262 OFFCURVE",
"474 262 CURVE SMOOTH",
"542 262 OFFCURVE",
"697 235 OFFCURVE",
"697 144 CURVE SMOOTH",
"697 100 OFFCURVE",
"656 59 OFFCURVE",
"624 33 CURVE SMOOTH",
"587 3 OFFCURVE",
"532 -2 OFFCURVE",
"486 -2 CURVE SMOOTH",
"458 -2 OFFCURVE",
"430 0 OFFCURVE",
"403 3 CURVE SMOOTH",
"391 4 OFFCURVE",
"378 7 OFFCURVE",
"367 7 CURVE SMOOTH",
"357 7 OFFCURVE",
"320 -29 OFFCURVE",
"320 -39 CURVE SMOOTH",
"320 -40 OFFCURVE",
"321 -41 OFFCURVE",
"322 -41 CURVE SMOOTH",
"352 -45 OFFCURVE",
"384 -47 OFFCURVE",
"414 -47 CURVE SMOOTH"
);
},
{
closed = 1;
nodes = (
"23 -133 LINE SMOOTH",
"166 -132 OFFCURVE",
"228 -41 OFFCURVE",
"290 72 CURVE SMOOTH",
"319 124 OFFCURVE",
"341 180 OFFCURVE",
"361 236 CURVE SMOOTH",
"379 284 OFFCURVE",
"396 333 OFFCURVE",
"414 382 CURVE SMOOTH",
"427 420 OFFCURVE",
"498 644 OFFCURVE",
"544 644 CURVE SMOOTH",
"547 644 OFFCURVE",
"560 645 OFFCURVE",
"560 651 CURVE SMOOTH",
"560 655 OFFCURVE",
"552 656 OFFCURVE",
"549 656 CURVE SMOOTH",
"519 656 OFFCURVE",
"485 648 OFFCURVE",
"461 629 CURVE SMOOTH",
"443 616 OFFCURVE",
"438 605 OFFCURVE",
"431 584 CURVE SMOOTH",
"377 423 OFFCURVE",
"246 -86 OFFCURVE",
"42 -114 CURVE SMOOTH",
"35 -115 OFFCURVE",
"27 -115 OFFCURVE",
"20 -115 CURVE SMOOTH",
"-7 -115 OFFCURVE",
"-49 -86 OFFCURVE",
"-49 -58 CURVE SMOOTH",
"-49 -46 OFFCURVE",
"-38 -34 OFFCURVE",
"-38 -21 CURVE SMOOTH",
"-38 -20 OFFCURVE",
"-39 -18 OFFCURVE",
"-41 -18 CURVE SMOOTH",
"-56 -18 OFFCURVE",
"-62 -46 OFFCURVE",
"-62 -58 CURVE SMOOTH",
"-62 -69 OFFCURVE",
"-56 -79 OFFCURVE",
"-56 -90 CURVE SMOOTH",
"-56 -101 OFFCURVE",
"-67 -95 OFFCURVE",
"-67 -104 CURVE SMOOTH",
"-67 -112 OFFCURVE",
"-47 -122 OFFCURVE",
"-41 -126 CURVE SMOOTH",
"-29 -133 OFFCURVE",
"-6 -133 OFFCURVE",
"9 -133 CURVE SMOOTH"
);
}
);
};
layerId = "56A77921-5252-498D-AF45-CD2B441B871C";
paths = (
{
closed = 1;
nodes = (
"524 -47 OFFCURVE",
"601 -10 OFFCURVE",
"688 55 CURVE SMOOTH",
"722 81 OFFCURVE",
"749 119 OFFCURVE",
"749 163 CURVE SMOOTH",
"749 259 OFFCURVE",
"639 290 OFFCURVE",
"562 293 CURVE SMOOTH",
"588 292 OFFCURVE",
"674 343 OFFCURVE",
"700 358 CURVE SMOOTH",
"759 393 OFFCURVE",
"849 455 OFFCURVE",
"849 534 CURVE SMOOTH",
"849 633 OFFCURVE",
"711 683 OFFCURVE",
"632 700 CURVE SMOOTH",
"585 710 OFFCURVE",
"537 715 OFFCURVE",
"489 715 CURVE SMOOTH",
"319 715 OFFCURVE",
"55 650 OFFCURVE",
"11 460 CURVE SMOOTH",
"8 446 OFFCURVE",
"6 430 OFFCURVE",
"6 416 CURVE SMOOTH",
"6 405 OFFCURVE",
"16 364 OFFCURVE",
"28 364 CURVE SMOOTH",
"33 364 OFFCURVE",
"33 369 OFFCURVE",
"36 372 CURVE",
"36 372 OFFCURVE",
"38 373 OFFCURVE",
"39 373 CURVE SMOOTH",
"48 373 OFFCURVE",
"64 357 OFFCURVE",
"87 357 CURVE SMOOTH",
"94 357 OFFCURVE",
"114 361 OFFCURVE",
"114 371 CURVE SMOOTH",
"114 374 OFFCURVE",
"108 374 OFFCURVE",
"107 374 CURVE SMOOTH",
"97 374 OFFCURVE",
"87 371 OFFCURVE",
"77 371 CURVE SMOOTH",
"74 371 LINE",
"41 383 OFFCURVE",
"29 415 OFFCURVE",
"29 448 CURVE SMOOTH",
"29 457 OFFCURVE",
"30 466 OFFCURVE",
"32 475 CURVE SMOOTH",
"73 631 OFFCURVE",
"318 669 OFFCURVE",
"454 669 CURVE SMOOTH",
"500 669 OFFCURVE",
"545 666 OFFCURVE",
"590 659 CURVE SMOOTH",
"656 648 OFFCURVE",
"809 612 OFFCURVE",
"809 524 CURVE SMOOTH",
"809 460 OFFCURVE",
"724 400 OFFCURVE",
"676 370 CURVE SMOOTH",
"613 330 OFFCURVE",
"515 300 OFFCURVE",
"440 300 CURVE SMOOTH",
"431 300 OFFCURVE",
"406 269 OFFCURVE",
"406 260 CURVE SMOOTH",
"406 257 OFFCURVE",
"408 256 OFFCURVE",
"410 256 CURVE SMOOTH",
"412 256 LINE SMOOTH",
"433 259 OFFCURVE",
"453 262 OFFCURVE",
"474 262 CURVE SMOOTH",
"542 262 OFFCURVE",
"697 235 OFFCURVE",
"697 144 CURVE SMOOTH",
"697 100 OFFCURVE",
"656 59 OFFCURVE",
"624 33 CURVE SMOOTH",
"587 3 OFFCURVE",
"532 -2 OFFCURVE",
"486 -2 CURVE SMOOTH",
"458 -2 OFFCURVE",
"430 0 OFFCURVE",
"403 3 CURVE SMOOTH",
"391 4 OFFCURVE",
"378 7 OFFCURVE",
"367 7 CURVE SMOOTH",
"357 7 OFFCURVE",
"320 -29 OFFCURVE",
"320 -39 CURVE SMOOTH",
"320 -40 OFFCURVE",
"321 -41 OFFCURVE",
"322 -41 CURVE SMOOTH",
"352 -45 OFFCURVE",
"384 -47 OFFCURVE",
"414 -47 CURVE SMOOTH"
);
},
{
closed = 1;
nodes = (
"23 -133 LINE SMOOTH",
"166 -132 OFFCURVE",
"228 -41 OFFCURVE",
"290 72 CURVE SMOOTH",
"319 124 OFFCURVE",
"341 180 OFFCURVE",
"361 236 CURVE SMOOTH",
"379 284 OFFCURVE",
"396 333 OFFCURVE",
"414 382 CURVE SMOOTH",
"427 420 OFFCURVE",
"498 644 OFFCURVE",
"544 644 CURVE SMOOTH",
"547 644 OFFCURVE",
"560 645 OFFCURVE",
"560 651 CURVE SMOOTH",
"560 655 OFFCURVE",
"552 656 OFFCURVE",
"549 656 CURVE SMOOTH",
"519 656 OFFCURVE",
"485 648 OFFCURVE",
"461 629 CURVE SMOOTH",
"443 616 OFFCURVE",
"438 605 OFFCURVE",
"431 584 CURVE SMOOTH",
"377 423 OFFCURVE",
"246 -86 OFFCURVE",
"42 -114 CURVE SMOOTH",
"35 -115 OFFCURVE",
"27 -115 OFFCURVE",
"20 -115 CURVE SMOOTH",
"-7 -115 OFFCURVE",
"-49 -86 OFFCURVE",
"-49 -58 CURVE SMOOTH",
"-49 -46 OFFCURVE",
"-38 -34 OFFCURVE",
"-38 -21 CURVE SMOOTH",
"-38 -20 OFFCURVE",
"-39 -18 OFFCURVE",
"-41 -18 CURVE SMOOTH",
"-56 -18 OFFCURVE",
"-62 -46 OFFCURVE",
"-62 -58 CURVE SMOOTH",
"-62 -69 OFFCURVE",
"-56 -79 OFFCURVE",
"-56 -90 CURVE SMOOTH",
"-56 -101 OFFCURVE",
"-67 -95 OFFCURVE",
"-67 -104 CURVE SMOOTH",
"-67 -112 OFFCURVE",
"-47 -122 OFFCURVE",
"-41 -126 CURVE SMOOTH",
"-29 -133 OFFCURVE",
"-6 -133 OFFCURVE",
"9 -133 CURVE SMOOTH"
);
}
);
width = 772;
}
);
leftKerningGroup = B;
note = B;
rightKerningGroup = B;
unicode = 0042;
},
{
color = 3;
glyphname = C;
lastChange = "2022-02-09 10:51:45 +0000";
layers = (
{
anchors = (
{
name = bottom;
position = "{301, 0}";
},
{
name = cedilla;
position = "{308, -41}";
},
{
name = top;
position = "{674, 685}";
}
);
background = {
paths = (
{
closed = 1;
nodes = (
"382 -53 OFFCURVE",
"418 -49 OFFCURVE",
"453 -42 CURVE SMOOTH",
"567 -19 OFFCURVE",
"761 81 OFFCURVE",
"799 198 CURVE SMOOTH",
"801 205 OFFCURVE",
"802 236 OFFCURVE",
"802 243 CURVE SMOOTH",
"802 244 OFFCURVE",
"802 256 OFFCURVE",
"799 256 CURVE SMOOTH",
"797 256 OFFCURVE",
"793 246 OFFCURVE",
"793 245 CURVE",
"773 196 OFFCURVE",
"730 141 OFFCURVE",
"694 104 CURVE SMOOTH",
"618 26 OFFCURVE",
"495 -27 OFFCURVE",
"386 -27 CURVE SMOOTH",
"258 -27 OFFCURVE",
"160 39 OFFCURVE",
"160 174 CURVE SMOOTH",
"160 332 OFFCURVE",
"279 502 OFFCURVE",
"401 592 CURVE",
"521 571 OFFCURVE",
"651 531 OFFCURVE",
"758 473 CURVE",
"757 467 OFFCURVE",
"756 459 OFFCURVE",
"756 453 CURVE SMOOTH",
"756 444 OFFCURVE",
"760 439 OFFCURVE",
"769 439 CURVE SMOOTH",
"793 439 OFFCURVE",
"798 456 OFFCURVE",
"807 473 CURVE",
"810 477 OFFCURVE",
"812 479 OFFCURVE",
"812 485 CURVE",
"819 504 OFFCURVE",
"823 525 OFFCURVE",
"823 546 CURVE SMOOTH",
"823 651 OFFCURVE",
"707 680 OFFCURVE",
"622 680 CURVE SMOOTH",
"548 680 OFFCURVE",
"473 662 OFFCURVE",
"408 626 CURVE",
"352 635 OFFCURVE",
"296 644 OFFCURVE",
"239 644 CURVE SMOOTH",
"151 644 OFFCURVE",
"88 619 OFFCURVE",
"31 550 CURVE SMOOTH",
"22 539 OFFCURVE",
"6 518 OFFCURVE",
"6 503 CURVE SMOOTH",
"6 497 OFFCURVE",
"5 476 OFFCURVE",
"16 476 CURVE SMOOTH",
"20 476 OFFCURVE",
"21 480 OFFCURVE",
"24 480 CURVE SMOOTH",
"35 480 OFFCURVE",
"51 453 OFFCURVE",
"81 453 CURVE SMOOTH",
"86 453 OFFCURVE",
"96 455 OFFCURVE",
"98 459 CURVE",
"89 472 OFFCURVE",
"37 453 OFFCURVE",
"37 515 CURVE SMOOTH",
"37 534 OFFCURVE",
"44 542 OFFCURVE",
"56 555 CURVE SMOOTH",
"97 600 OFFCURVE",
"143 613 OFFCURVE",
"203 613 CURVE SMOOTH",
"255 613 OFFCURVE",
"309 605 OFFCURVE",
"361 598 CURVE",
"219 504 OFFCURVE",
"103 348 OFFCURVE",
"103 172 CURVE SMOOTH",
"103 19 OFFCURVE",
"199 -53 OFFCURVE",
"346 -53 CURVE SMOOTH"
);
},
{
closed = 1;
nodes = (
"663 563 OFFCURVE",
"555 599 OFFCURVE",
"444 620 CURVE",
"492 646 OFFCURVE",
"552 659 OFFCURVE",
"606 659 CURVE SMOOTH",
"681 659 OFFCURVE",
"768 632 OFFCURVE",
"768 542 CURVE SMOOTH",
"768 533 OFFCURVE",
"767 525 OFFCURVE",
"766 517 CURVE"
);
}
);
};
layerId = "56A77921-5252-498D-AF45-CD2B441B871C";
paths = (
{
closed = 1;
nodes = (
"382 -53 OFFCURVE",
"418 -49 OFFCURVE",
"453 -42 CURVE SMOOTH",
"567 -19 OFFCURVE",
"761 81 OFFCURVE",
"799 198 CURVE SMOOTH",
"801 205 OFFCURVE",
"802 236 OFFCURVE",
"802 243 CURVE SMOOTH",
"802 244 OFFCURVE",
"802 256 OFFCURVE",
"799 256 CURVE SMOOTH",
"797 256 OFFCURVE",
"793 246 OFFCURVE",
"793 245 CURVE",
"773 196 OFFCURVE",
"730 141 OFFCURVE",
"694 104 CURVE SMOOTH",
"618 26 OFFCURVE",
"495 -27 OFFCURVE",
"386 -27 CURVE SMOOTH",
"258 -27 OFFCURVE",
"160 39 OFFCURVE",
"160 174 CURVE SMOOTH",
"160 332 OFFCURVE",
"279 502 OFFCURVE",
"401 592 CURVE",
"521 571 OFFCURVE",
"651 531 OFFCURVE",
"758 473 CURVE",
"757 467 OFFCURVE",
"756 459 OFFCURVE",
"756 453 CURVE SMOOTH",
"756 444 OFFCURVE",
"760 439 OFFCURVE",
"769 439 CURVE SMOOTH",
"793 439 OFFCURVE",
"798 456 OFFCURVE",
"807 473 CURVE",
"810 477 OFFCURVE",
"812 479 OFFCURVE",
"812 485 CURVE",
"819 504 OFFCURVE",
"823 525 OFFCURVE",
"823 546 CURVE SMOOTH",
"823 651 OFFCURVE",
"707 680 OFFCURVE",
"622 680 CURVE SMOOTH",
"548 680 OFFCURVE",
"473 662 OFFCURVE",
"408 626 CURVE",
"352 635 OFFCURVE",
"296 644 OFFCURVE",
"239 644 CURVE SMOOTH",
"151 644 OFFCURVE",
"88 619 OFFCURVE",
"31 550 CURVE SMOOTH",
"22 539 OFFCURVE",
"6 518 OFFCURVE",
"6 503 CURVE SMOOTH",
"6 497 OFFCURVE",
"5 476 OFFCURVE",
"16 476 CURVE SMOOTH",
"20 476 OFFCURVE",
"21 480 OFFCURVE",
"24 480 CURVE SMOOTH",
"35 480 OFFCURVE",
"51 453 OFFCURVE",
"81 453 CURVE SMOOTH",
"86 453 OFFCURVE",
"96 455 OFFCURVE",
"98 459 CURVE",
"89 472 OFFCURVE",
"37 453 OFFCURVE",
"37 515 CURVE SMOOTH",
"37 534 OFFCURVE",
"44 542 OFFCURVE",
"56 555 CURVE SMOOTH",
"97 600 OFFCURVE",
"143 613 OFFCURVE",
"203 613 CURVE SMOOTH",
"255 613 OFFCURVE",
"309 605 OFFCURVE",
"361 598 CURVE",
"219 504 OFFCURVE",
"103 348 OFFCURVE",
"103 172 CURVE SMOOTH",
"103 19 OFFCURVE",
"199 -53 OFFCURVE",
"346 -53 CURVE SMOOTH"
);
},
{
closed = 1;
nodes = (
"663 563 OFFCURVE",
"555 599 OFFCURVE",
"444 620 CURVE",
"492 646 OFFCURVE",
"552 659 OFFCURVE",
"606 659 CURVE SMOOTH",
"681 659 OFFCURVE",
"768 632 OFFCURVE",
"768 542 CURVE SMOOTH",
"768 533 OFFCURVE",
"767 525 OFFCURVE",
"766 517 CURVE"
);
}
);
width = 782;
}
);
leftKerningGroup = C;
note = C;
rightKerningGroup = C;
unicode = 0043;
},
{
color = 1;
glyphname = D;
lastChange = "2022-02-09 19:53:48 +0000";
layers = (
{
anchors = (
{
name = bottom;
position = "{368, 0}";
},
{
name = center;
position = "{508, 350}";
},
{
name = top;
position = "{658, 685}";
}
);
background = {
paths = (
{
closed = 1;
nodes = (
"275 -26 OFFCURVE",
"329 -2 OFFCURVE",
"366 35 CURVE",
"438 8 OFFCURVE",
"514 -8 OFFCURVE",
"591 -8 CURVE SMOOTH",
"777 -8 OFFCURVE",
"1004 133 OFFCURVE",
"1004 337 CURVE SMOOTH",
"1004 509 OFFCURVE",
"859 646 OFFCURVE",
"702 688 CURVE",
"726 708 OFFCURVE",
"749 729 OFFCURVE",
"783 729 CURVE SMOOTH",
"810 729 OFFCURVE",
"844 719 OFFCURVE",
"858 694 CURVE",
"859 691 OFFCURVE",
"863 683 OFFCURVE",
"863 680 CURVE SMOOTH",
"863 669 OFFCURVE",
"858 657 OFFCURVE",
"858 646 CURVE SMOOTH",
"858 644 OFFCURVE",
"858 640 OFFCURVE",
"861 640 CURVE SMOOTH",
"872 640 OFFCURVE",
"877 661 OFFCURVE",
"877 669 CURVE SMOOTH",
"877 690 OFFCURVE",
"863 705 OFFCURVE",
"863 715 CURVE SMOOTH",
"863 723 OFFCURVE",
"872 718 OFFCURVE",
"872 726 CURVE SMOOTH",
"872 734 OFFCURVE",
"849 744 OFFCURVE",
"843 746 CURVE SMOOTH",
"833 750 OFFCURVE",
"824 751 OFFCURVE",
"814 751 CURVE SMOOTH",
"759 751 OFFCURVE",
"710 726 OFFCURVE",
"665 696 CURVE",
"610 706 OFFCURVE",
"554 710 OFFCURVE",
"498 710 CURVE SMOOTH",
"325 710 OFFCURVE",
"56 656 OFFCURVE",
"10 458 CURVE SMOOTH",
"7 443 OFFCURVE",
"5 428 OFFCURVE",
"5 413 CURVE SMOOTH",
"5 403 OFFCURVE",
"15 362 OFFCURVE",
"27 362 CURVE SMOOTH",
"32 362 OFFCURVE",
"32 367 OFFCURVE",
"35 370 CURVE",
"35 370 OFFCURVE",
"37 370 OFFCURVE",
"38 370 CURVE SMOOTH",
"47 370 OFFCURVE",
"63 354 OFFCURVE",
"86 354 CURVE SMOOTH",
"93 354 OFFCURVE",
"113 359 OFFCURVE",
"113 369 CURVE SMOOTH",
"113 372 OFFCURVE",
"107 372 OFFCURVE",
"106 372 CURVE SMOOTH",
"96 372 OFFCURVE",
"86 369 OFFCURVE",
"76 369 CURVE SMOOTH",
"75 369 OFFCURVE",
"74 369 OFFCURVE",
"73 369 CURVE",
"40 380 OFFCURVE",
"28 413 OFFCURVE",
"28 446 CURVE SMOOTH",
"28 455 OFFCURVE",
"29 464 OFFCURVE",
"31 473 CURVE SMOOTH",
"74 638 OFFCURVE",
"342 669 OFFCURVE",
"484 669 CURVE SMOOTH",
"530 669 OFFCURVE",
"576 666 OFFCURVE",
"623 660 CURVE",
"490 520 OFFCURVE",
"462 235 OFFCURVE",
"354 72 CURVE",
"301 100 OFFCURVE",
"116 195 OFFCURVE",
"65 195 CURVE SMOOTH",
"35 195 OFFCURVE",
"24 166 OFFCURVE",
"24 140 CURVE SMOOTH",
"24 118 OFFCURVE",
"30 96 OFFCURVE",
"40 77 CURVE SMOOTH",
"75 7 OFFCURVE",
"147 -26 OFFCURVE",
"223 -26 CURVE SMOOTH"
);
},
{
closed = 1;
nodes = (
"236 -4 OFFCURVE",
"233 -4 OFFCURVE",
"229 -3 CURVE SMOOTH",
"206 0 OFFCURVE",
"184 7 OFFCURVE",
"164 18 CURVE SMOOTH",
"129 36 OFFCURVE",
"65 89 OFFCURVE",
"65 132 CURVE SMOOTH",
"65 150 OFFCURVE",
"78 156 OFFCURVE",
"93 156 CURVE SMOOTH",
"148 156 OFFCURVE",
"283 79 OFFCURVE",
"335 49 CURVE",
"311 21 OFFCURVE",
"278 -4 OFFCURVE",
"240 -4 CURVE SMOOTH"
);
},
{
closed = 1;
nodes = (
"522 17 OFFCURVE",
"452 35 OFFCURVE",
"388 59 CURVE",
"452 148 OFFCURVE",
"495 246 OFFCURVE",
"531 349 CURVE SMOOTH",
"562 435 OFFCURVE",
"611 582 OFFCURVE",
"665 652 CURVE",
"810 617 OFFCURVE",
"954 494 OFFCURVE",
"954 335 CURVE SMOOTH",
"954 132 OFFCURVE",
"780 17 OFFCURVE",
"591 17 CURVE SMOOTH"
);
}
);
};
layerId = "56A77921-5252-498D-AF45-CD2B441B871C";
paths = (
{
closed = 1;
nodes = (
"275 -26 OFFCURVE",
"329 -2 OFFCURVE",
"366 35 CURVE",
"438 8 OFFCURVE",
"514 -8 OFFCURVE",
"591 -8 CURVE SMOOTH",
"777 -8 OFFCURVE",
"1004 133 OFFCURVE",
"1004 337 CURVE SMOOTH",
"1004 509 OFFCURVE",
"859 646 OFFCURVE",
"702 688 CURVE",
"726 708 OFFCURVE",
"749 729 OFFCURVE",
"783 729 CURVE SMOOTH",
"810 729 OFFCURVE",
"844 719 OFFCURVE",
"858 694 CURVE",
"859 691 OFFCURVE",
"863 683 OFFCURVE",
"863 680 CURVE SMOOTH",
"863 669 OFFCURVE",
"858 657 OFFCURVE",
"858 646 CURVE SMOOTH",
"858 644 OFFCURVE",
"858 640 OFFCURVE",
"861 640 CURVE SMOOTH",
"872 640 OFFCURVE",
"877 661 OFFCURVE",
"877 669 CURVE SMOOTH",
"877 690 OFFCURVE",
"863 705 OFFCURVE",
"863 715 CURVE SMOOTH",
"863 723 OFFCURVE",
"872 718 OFFCURVE",
"872 726 CURVE SMOOTH",
"872 734 OFFCURVE",
"849 744 OFFCURVE",
"843 746 CURVE SMOOTH",
"833 750 OFFCURVE",
"824 751 OFFCURVE",
"814 751 CURVE SMOOTH",
"759 751 OFFCURVE",
"710 726 OFFCURVE",
"665 696 CURVE",
"610 706 OFFCURVE",
"554 710 OFFCURVE",
"498 710 CURVE SMOOTH",
"325 710 OFFCURVE",
"56 656 OFFCURVE",
"10 458 CURVE SMOOTH",
"7 443 OFFCURVE",
"5 428 OFFCURVE",
"5 413 CURVE SMOOTH",
"5 403 OFFCURVE",
"15 362 OFFCURVE",
"27 362 CURVE SMOOTH",
"32 362 OFFCURVE",
"32 367 OFFCURVE",
"35 370 CURVE",
"38 370 LINE SMOOTH",
"47 370 OFFCURVE",
"63 354 OFFCURVE",
"86 354 CURVE SMOOTH",
"93 354 OFFCURVE",
"113 359 OFFCURVE",
"113 369 CURVE SMOOTH",
"113 372 OFFCURVE",
"107 372 OFFCURVE",
"106 372 CURVE SMOOTH",
"96 372 OFFCURVE",
"86 369 OFFCURVE",
"76 369 CURVE SMOOTH",
"73 369 LINE",
"40 380 OFFCURVE",
"28 413 OFFCURVE",
"28 446 CURVE SMOOTH",
"28 455 OFFCURVE",
"29 464 OFFCURVE",
"31 473 CURVE SMOOTH",
"74 638 OFFCURVE",
"342 669 OFFCURVE",
"484 669 CURVE SMOOTH",
"530 669 OFFCURVE",
"576 666 OFFCURVE",
"623 660 CURVE",
"490 520 OFFCURVE",
"462 235 OFFCURVE",
"354 72 CURVE",
"301 100 OFFCURVE",
"116 195 OFFCURVE",
"65 195 CURVE SMOOTH",
"35 195 OFFCURVE",
"24 166 OFFCURVE",
"24 140 CURVE SMOOTH",
"24 118 OFFCURVE",
"30 96 OFFCURVE",
"40 77 CURVE SMOOTH",
"75 7 OFFCURVE",
"147 -26 OFFCURVE",
"223 -26 CURVE SMOOTH"
);
},
{
closed = 1;
nodes = (
"236 -4 OFFCURVE",
"233 -4 OFFCURVE",
"229 -3 CURVE SMOOTH",
"206 0 OFFCURVE",
"184 7 OFFCURVE",
"164 18 CURVE SMOOTH",
"129 36 OFFCURVE",
"65 89 OFFCURVE",
"65 132 CURVE SMOOTH",
"65 150 OFFCURVE",
"78 156 OFFCURVE",
"93 156 CURVE SMOOTH",
"148 156 OFFCURVE",
"283 79 OFFCURVE",
"335 49 CURVE",
"311 21 OFFCURVE",
"278 -4 OFFCURVE",
"240 -4 CURVE SMOOTH"
);
},
{
closed = 1;
nodes = (
"522 17 OFFCURVE",
"452 35 OFFCURVE",
"388 59 CURVE",
"452 148 OFFCURVE",
"495 246 OFFCURVE",
"531 349 CURVE SMOOTH",
"562 435 OFFCURVE",
"611 582 OFFCURVE",
"665 652 CURVE",
"810 617 OFFCURVE",
"954 494 OFFCURVE",
"954 335 CURVE SMOOTH",
"954 132 OFFCURVE",
"780 17 OFFCURVE",
"591 17 CURVE SMOOTH"
);
}
);
width = 1015;
}
);
leftKerningGroup = D;
note = D;
rightKerningGroup = O;
unicode = 0044;
},
{
color = 1;
glyphname = E;
lastChange = "2022-02-09 19:54:25 +0000";
layers = (
{
anchors = (
{
name = bottom;
position = "{254, 0}";
},
{
name = ogonek;
position = "{824, 0}";
},
{
name = top;
position = "{776, 725}";
}
);
background = {
paths = (
{
closed = 1;
nodes = (
"790 -47 OFFCURVE",
"883 -22 OFFCURVE",
"898 86 CURVE SMOOTH",
"898 87 OFFCURVE",
"898 89 OFFCURVE",
"898 90 CURVE SMOOTH",
"898 101 OFFCURVE",
"886 131 OFFCURVE",
"873 131 CURVE SMOOTH",
"869 131 OFFCURVE",
"869 128 OFFCURVE",
"869 125 CURVE SMOOTH",
"869 114 OFFCURVE",
"873 104 OFFCURVE",
"873 92 CURVE SMOOTH",
"873 4 OFFCURVE",
"736 -1 OFFCURVE",
"673 -1 CURVE SMOOTH",
"575 -1 OFFCURVE",
"441 19 OFFCURVE",
"348 54 CURVE",
"410 120 OFFCURVE",
"453 215 OFFCURVE",
"481 300 CURVE",
"533 296 OFFCURVE",
"586 295 OFFCURVE",
"638 295 CURVE SMOOTH",
"681 295 OFFCURVE",
"748 303 OFFCURVE",
"780 334 CURVE SMOOTH",
"782 336 OFFCURVE",
"785 339 OFFCURVE",
"785 342 CURVE SMOOTH",
"785 346 OFFCURVE",
"780 348 OFFCURVE",
"777 349 CURVE",
"748 342 OFFCURVE",
"718 333 OFFCURVE",
"688 333 CURVE SMOOTH",
"624 333 OFFCURVE",
"560 339 OFFCURVE",
"496 341 CURVE",
"526 430 OFFCURVE",
"557 523 OFFCURVE",
"604 604 CURVE",
"682 587 OFFCURVE",
"760 569 OFFCURVE",
"838 552 CURVE SMOOTH",
"846 550 OFFCURVE",
"854 548 OFFCURVE",
"862 548 CURVE SMOOTH",
"899 548 OFFCURVE",
"935 581 OFFCURVE",
"953 611 CURVE SMOOTH",
"954 613 OFFCURVE",
"956 615 OFFCURVE",
"956 618 CURVE SMOOTH",
"956 620 OFFCURVE",
"954 622 OFFCURVE",
"952 622 CURVE SMOOTH",
"947 622 OFFCURVE",
"944 616 OFFCURVE",
"941 613 CURVE SMOOTH",
"930 599 OFFCURVE",
"905 598 OFFCURVE",
"888 598 CURVE SMOOTH",
"810 598 OFFCURVE",
"703 623 OFFCURVE",
"625 637 CURVE",
"655 678 OFFCURVE",
"705 721 OFFCURVE",
"759 721 CURVE SMOOTH",
"782 721 OFFCURVE",
"831 694 OFFCURVE",
"831 667 CURVE SMOOTH",
"831 657 OFFCURVE",
"826 646 OFFCURVE",
"826 636 CURVE SMOOTH",
"826 634 OFFCURVE",
"826 630 OFFCURVE",
"829 630 CURVE SMOOTH",
"839 630 OFFCURVE",
"845 651 OFFCURVE",
"845 659 CURVE SMOOTH",
"845 680 OFFCURVE",
"831 696 OFFCURVE",
"831 705 CURVE SMOOTH",
"831 713 OFFCURVE",
"840 709 OFFCURVE",
"840 716 CURVE SMOOTH",
"840 725 OFFCURVE",
"817 734 OFFCURVE",
"811 736 CURVE SMOOTH",
"802 740 OFFCURVE",
"792 741 OFFCURVE",
"782 741 CURVE SMOOTH",
"705 741 OFFCURVE",
"632 703 OFFCURVE",
"584 644 CURVE",
"522 654 OFFCURVE",
"459 664 OFFCURVE",
"396 664 CURVE SMOOTH",
"304 664 OFFCURVE",
"200 644 OFFCURVE",
"141 566 CURVE SMOOTH",
"131 554 OFFCURVE",
"117 530 OFFCURVE",
"117 514 CURVE SMOOTH",
"117 508 OFFCURVE",
"116 484 OFFCURVE",
"126 484 CURVE SMOOTH",
"130 484 OFFCURVE",
"131 489 OFFCURVE",
"134 489 CURVE SMOOTH",
"145 489 OFFCURVE",
"159 459 OFFCURVE",
"189 459 CURVE SMOOTH",
"194 459 OFFCURVE",
"204 461 OFFCURVE",
"206 466 CURVE",
"203 472 OFFCURVE",
"175 473 OFFCURVE",
"168 477 CURVE SMOOTH",
"153 486 OFFCURVE",
"147 511 OFFCURVE",
"147 527 CURVE SMOOTH",
"147 547 OFFCURVE",
"153 557 OFFCURVE",
"165 572 CURVE SMOOTH",
"209 625 OFFCURVE",
"299 633 OFFCURVE",
"363 633 CURVE SMOOTH",
"429 633 OFFCURVE",
"496 624 OFFCURVE",
"561 612 CURVE",
"506 531 OFFCURVE",
"472 435 OFFCURVE",
"440 343 CURVE",
"426 344 OFFCURVE",
"412 344 OFFCURVE",
"398 344 CURVE SMOOTH",
"346 344 OFFCURVE",
"296 330 OFFCURVE",
"251 306 CURVE SMOOTH",
"235 298 OFFCURVE",
"182 267 OFFCURVE",
"182 247 CURVE SMOOTH",
"182 238 OFFCURVE",
"189 230 OFFCURVE",
"197 226 CURVE",
"205 242 OFFCURVE",
"209 261 OFFCURVE",
"221 275 CURVE SMOOTH",
"245 303 OFFCURVE",
"295 308 OFFCURVE",
"330 308 CURVE SMOOTH",
"361 308 OFFCURVE",
"394 305 OFFCURVE",
"425 303 CURVE",
"399 229 OFFCURVE",
"367 133 OFFCURVE",
"324 67 CURVE",
"269 96 OFFCURVE",
"92 195 OFFCURVE",
"40 195 CURVE SMOOTH",
"10 195 OFFCURVE",
"-1 166 OFFCURVE",
"-1 140 CURVE SMOOTH",
"-1 118 OFFCURVE",
"5 96 OFFCURVE",
"15 77 CURVE SMOOTH",
"50 7 OFFCURVE",
"122 -26 OFFCURVE",
"198 -26 CURVE SMOOTH",
"250 -26 OFFCURVE",
"294 -1 OFFCURVE",
"331 35 CURVE",
"439 -7 OFFCURVE",
"579 -47 OFFCURVE",
"695 -47 CURVE SMOOTH"
);
},
{
closed = 1;
nodes = (
"211 -4 OFFCURVE",
"208 -4 OFFCURVE",
"204 -3 CURVE SMOOTH",
"181 0 OFFCURVE",
"159 7 OFFCURVE",
"139 18 CURVE SMOOTH",
"104 36 OFFCURVE",
"40 89 OFFCURVE",
"40 132 CURVE SMOOTH",
"40 150 OFFCURVE",
"53 156 OFFCURVE",
"68 156 CURVE SMOOTH",
"123 156 OFFCURVE",
"258 79 OFFCURVE",
"310 49 CURVE",
"286 21 OFFCURVE",
"253 -4 OFFCURVE",
"215 -4 CURVE SMOOTH"
);
}
);
};
layerId = "56A77921-5252-498D-AF45-CD2B441B871C";
paths = (
{
closed = 1;
nodes = (
"790 -47 OFFCURVE",
"883 -22 OFFCURVE",
"898 86 CURVE",
"898 90 LINE SMOOTH",
"898 101 OFFCURVE",
"886 131 OFFCURVE",
"873 131 CURVE SMOOTH",
"869 131 OFFCURVE",
"869 128 OFFCURVE",
"869 125 CURVE SMOOTH",
"869 114 OFFCURVE",
"873 104 OFFCURVE",
"873 92 CURVE SMOOTH",
"873 4 OFFCURVE",
"736 -1 OFFCURVE",
"673 -1 CURVE SMOOTH",
"575 -1 OFFCURVE",
"441 19 OFFCURVE",
"348 54 CURVE",
"410 120 OFFCURVE",
"453 215 OFFCURVE",
"481 300 CURVE",
"533 296 OFFCURVE",
"586 295 OFFCURVE",
"638 295 CURVE SMOOTH",
"681 295 OFFCURVE",
"748 303 OFFCURVE",
"780 334 CURVE SMOOTH",
"782 336 OFFCURVE",
"785 339 OFFCURVE",
"785 342 CURVE SMOOTH",
"785 346 OFFCURVE",
"780 348 OFFCURVE",
"777 349 CURVE",
"748 342 OFFCURVE",
"718 333 OFFCURVE",
"688 333 CURVE SMOOTH",
"624 333 OFFCURVE",
"560 339 OFFCURVE",
"496 341 CURVE",
"526 430 OFFCURVE",
"557 523 OFFCURVE",
"604 604 CURVE",
"682 587 OFFCURVE",
"760 569 OFFCURVE",
"838 552 CURVE SMOOTH",
"846 550 OFFCURVE",
"854 548 OFFCURVE",
"862 548 CURVE SMOOTH",
"899 548 OFFCURVE",
"935 581 OFFCURVE",
"953 611 CURVE SMOOTH",
"954 613 OFFCURVE",
"956 615 OFFCURVE",
"956 618 CURVE SMOOTH",
"956 620 OFFCURVE",
"954 622 OFFCURVE",
"952 622 CURVE SMOOTH",
"947 622 OFFCURVE",
"944 616 OFFCURVE",
"941 613 CURVE SMOOTH",
"930 599 OFFCURVE",
"905 598 OFFCURVE",
"888 598 CURVE SMOOTH",
"810 598 OFFCURVE",
"703 623 OFFCURVE",
"625 637 CURVE",
"655 678 OFFCURVE",
"705 721 OFFCURVE",
"759 721 CURVE SMOOTH",
"782 721 OFFCURVE",
"831 694 OFFCURVE",
"831 667 CURVE SMOOTH",
"831 657 OFFCURVE",
"826 646 OFFCURVE",
"826 636 CURVE SMOOTH",
"826 634 OFFCURVE",
"826 630 OFFCURVE",
"829 630 CURVE SMOOTH",
"839 630 OFFCURVE",
"845 651 OFFCURVE",
"845 659 CURVE SMOOTH",
"845 680 OFFCURVE",
"831 696 OFFCURVE",
"831 705 CURVE SMOOTH",
"831 713 OFFCURVE",
"840 709 OFFCURVE",
"840 716 CURVE SMOOTH",
"840 725 OFFCURVE",
"817 734 OFFCURVE",
"811 736 CURVE SMOOTH",
"802 740 OFFCURVE",
"792 741 OFFCURVE",
"782 741 CURVE SMOOTH",
"705 741 OFFCURVE",
"632 703 OFFCURVE",
"584 644 CURVE",
"522 654 OFFCURVE",
"459 664 OFFCURVE",
"396 664 CURVE SMOOTH",
"304 664 OFFCURVE",
"200 644 OFFCURVE",
"141 566 CURVE SMOOTH",
"131 554 OFFCURVE",
"117 530 OFFCURVE",
"117 514 CURVE SMOOTH",
"117 508 OFFCURVE",
"116 484 OFFCURVE",
"126 484 CURVE SMOOTH",
"130 484 OFFCURVE",
"131 489 OFFCURVE",
"134 489 CURVE SMOOTH",
"145 489 OFFCURVE",
"159 459 OFFCURVE",
"189 459 CURVE SMOOTH",
"194 459 OFFCURVE",
"204 461 OFFCURVE",
"206 466 CURVE",
"203 472 OFFCURVE",
"175 473 OFFCURVE",
"168 477 CURVE SMOOTH",
"153 486 OFFCURVE",
"147 511 OFFCURVE",
"147 527 CURVE SMOOTH",
"147 547 OFFCURVE",
"153 557 OFFCURVE",
"165 572 CURVE SMOOTH",
"209 625 OFFCURVE",
"299 633 OFFCURVE",
"363 633 CURVE SMOOTH",
"429 633 OFFCURVE",
"496 624 OFFCURVE",
"561 612 CURVE",
"506 531 OFFCURVE",
"472 435 OFFCURVE",
"440 343 CURVE",
"426 344 OFFCURVE",
"412 344 OFFCURVE",
"398 344 CURVE SMOOTH",
"346 344 OFFCURVE",
"296 330 OFFCURVE",
"251 306 CURVE SMOOTH",
"235 298 OFFCURVE",
"182 267 OFFCURVE",
"182 247 CURVE SMOOTH",
"182 238 OFFCURVE",
"189 230 OFFCURVE",
"197 226 CURVE",
"205 242 OFFCURVE",
"209 261 OFFCURVE",
"221 275 CURVE SMOOTH",
"245 303 OFFCURVE",
"295 308 OFFCURVE",
"330 308 CURVE SMOOTH",
"361 308 OFFCURVE",
"394 305 OFFCURVE",
"425 303 CURVE",
"399 229 OFFCURVE",
"367 133 OFFCURVE",
"324 67 CURVE",
"269 96 OFFCURVE",
"92 195 OFFCURVE",
"40 195 CURVE SMOOTH",
"10 195 OFFCURVE",
"-1 166 OFFCURVE",
"-1 140 CURVE SMOOTH",
"-1 118 OFFCURVE",
"5 96 OFFCURVE",
"15 77 CURVE SMOOTH",
"50 7 OFFCURVE",
"122 -26 OFFCURVE",
"198 -26 CURVE SMOOTH",
"250 -26 OFFCURVE",
"294 -1 OFFCURVE",
"331 35 CURVE",
"439 -7 OFFCURVE",
"579 -47 OFFCURVE",
"695 -47 CURVE SMOOTH"
);
},
{
closed = 1;
nodes = (
"211 -4 OFFCURVE",
"208 -4 OFFCURVE",
"204 -3 CURVE SMOOTH",
"181 0 OFFCURVE",
"159 7 OFFCURVE",
"139 18 CURVE SMOOTH",
"104 36 OFFCURVE",
"40 89 OFFCURVE",
"40 132 CURVE SMOOTH",
"40 150 OFFCURVE",
"53 156 OFFCURVE",
"68 156 CURVE SMOOTH",
"123 156 OFFCURVE",
"258 79 OFFCURVE",
"310 49 CURVE",
"286 21 OFFCURVE",
"253 -4 OFFCURVE",
"215 -4 CURVE SMOOTH"
);
}
);
width = 915;
}
);
leftKerningGroup = E;
note = E;
rightKerningGroup = E;
unicode = 0045;
},
{
glyphname = Schwa;
lastChange = "2022-02-01 15:30:14 +0000";
layers = (
{
background = {
paths = (
{
closed = 1;
nodes = (
"485 -52 OFFCURVE",
"758 183 OFFCURVE",
"758 480 CURVE SMOOTH",
"758 640 OFFCURVE",
"667 716 OFFCURVE",
"529 716 CURVE SMOOTH",
"495 716 OFFCURVE",
"461 711 OFFCURVE",
"427 704 CURVE SMOOTH",
"320 680 OFFCURVE",
"136 575 OFFCURVE",
"101 453 CURVE SMOOTH",
"99 445 OFFCURVE",
"98 413 OFFCURVE",
"98 406 CURVE SMOOTH",
"98 405 OFFCURVE",
"98 392 OFFCURVE",
"101 392 CURVE SMOOTH",
"102 392 OFFCURVE",
"106 402 OFFCURVE",
"106 403 CURVE",
"125 455 OFFCURVE",
"166 512 OFFCURVE",
"200 551 CURVE SMOOTH",
"272 633 OFFCURVE",
"388 688 OFFCURVE",
"491 688 CURVE SMOOTH",
"612 688 OFFCURVE",
"707 619 OFFCURVE",
"704 478 CURVE SMOOTH",
"699 244 OFFCURVE",
"420 -30 OFFCURVE",
"209 -30 CURVE SMOOTH",
"26 -30 OFFCURVE",
"58 200 OFFCURVE",
"246 277 CURVE SMOOTH",
"359 324 OFFCURVE",
"520 351 OFFCURVE",
"673 351 CURVE",
"674 360 OFFCURVE",
"693 368 OFFCURVE",
"684 368 CURVE SMOOTH",
"498 368 OFFCURVE",
"345 354 OFFCURVE",
"234 317 CURVE SMOOTH",
"-1 237 OFFCURVE",
"-41 -52 OFFCURVE",
"191 -52 CURVE SMOOTH"
);
}
);
};
layerId = "56A77921-5252-498D-AF45-CD2B441B871C";
paths = (
{
closed = 1;
nodes = (
"485 -52 OFFCURVE",
"758 183 OFFCURVE",
"758 480 CURVE SMOOTH",
"758 640 OFFCURVE",
"667 716 OFFCURVE",
"529 716 CURVE SMOOTH",
"495 716 OFFCURVE",
"461 711 OFFCURVE",
"427 704 CURVE SMOOTH",
"320 680 OFFCURVE",
"136 575 OFFCURVE",
"101 453 CURVE SMOOTH",
"99 445 OFFCURVE",
"98 413 OFFCURVE",
"98 406 CURVE SMOOTH",
"98 405 OFFCURVE",
"98 392 OFFCURVE",
"101 392 CURVE SMOOTH",
"102 392 OFFCURVE",
"106 402 OFFCURVE",
"106 403 CURVE",
"125 455 OFFCURVE",
"166 512 OFFCURVE",
"200 551 CURVE SMOOTH",
"272 633 OFFCURVE",
"388 688 OFFCURVE",
"491 688 CURVE SMOOTH",
"610 688 OFFCURVE",
"704 621 OFFCURVE",
"704 484 CURVE SMOOTH",
"704 248 OFFCURVE",
"422 -30 OFFCURVE",
"209 -30 CURVE SMOOTH",
"126 -30 OFFCURVE",
"87 17 OFFCURVE",
"87 76 CURVE SMOOTH",
"87 147 OFFCURVE",
"143 235 OFFCURVE",
"246 277 CURVE SMOOTH",
"359 324 OFFCURVE",
"520 351 OFFCURVE",
"673 351 CURVE",
"674 358 OFFCURVE",
"686 365 OFFCURVE",
"686 367 CURVE SMOOTH",
"686 368 OFFCURVE",
"686 368 OFFCURVE",
"684 368 CURVE SMOOTH",
"498 368 OFFCURVE",
"345 354 OFFCURVE",
"234 317 CURVE SMOOTH",
"106 273 OFFCURVE",
"36 168 OFFCURVE",
"36 81 CURVE SMOOTH",
"36 8 OFFCURVE",
"85 -52 OFFCURVE",
"191 -52 CURVE SMOOTH"
);
}
);
width = 782;
}
);
leftKerningGroup = Schwa;
rightKerningGroup = O;
unicode = 018F;
},
{
glyphname = F;
lastChange = "2022-02-09 11:10:28 +0000";
layers = (
{
background = {
paths = (
{
closed = 1;
nodes = (
"334 -49 OFFCURVE",
"451 53 OFFCURVE",
"519 152 CURVE SMOOTH",
"551 198 OFFCURVE",
"577 248 OFFCURVE",
"596 300 CURVE",
"614 300 OFFCURVE",
"632 299 OFFCURVE",
"650 299 CURVE SMOOTH",
"689 299 OFFCURVE",
"792 308 OFFCURVE",
"792 363 CURVE SMOOTH",
"792 364 OFFCURVE",
"792 365 OFFCURVE",
"792 365 CURVE",
"791 365 OFFCURVE",
"790 364 OFFCURVE",
"790 364 CURVE",
"764 333 OFFCURVE",
"723 329 OFFCURVE",
"685 329 CURVE SMOOTH",
"659 329 OFFCURVE",
"633 332 OFFCURVE",
"607 333 CURVE",
"636 413 OFFCURVE",
"660 496 OFFCURVE",
"693 575 CURVE",
"747 551 OFFCURVE",
"842 513 OFFCURVE",
"901 513 CURVE SMOOTH",
"903 513 LINE SMOOTH",
"955 514 OFFCURVE",
"1000 536 OFFCURVE",
"1027 582 CURVE",
"1029 584 OFFCURVE",
"1038 601 OFFCURVE",
"1038 603 CURVE SMOOTH",
"1038 614 OFFCURVE",
"1033 633 OFFCURVE",
"1019 633 CURVE SMOOTH",
"1013 633 OFFCURVE",
"1010 628 OFFCURVE",
"1009 623 CURVE",
"1012 618 OFFCURVE",
"1019 601 OFFCURVE",
"1019 595 CURVE SMOOTH",
"1019 561 OFFCURVE",
"968 555 OFFCURVE",
"943 555 CURVE SMOOTH",
"872 555 OFFCURVE",
"778 593 OFFCURVE",
"714 622 CURVE",
"723 640 OFFCURVE",
"750 696 OFFCURVE",
"774 696 CURVE SMOOTH",
"777 696 OFFCURVE",
"789 697 OFFCURVE",
"789 703 CURVE SMOOTH",
"789 708 OFFCURVE",
"781 709 OFFCURVE",
"779 709 CURVE SMOOTH",
"735 709 OFFCURVE",
"679 690 OFFCURVE",
"663 645 CURVE",
"567 689 OFFCURVE",
"475 730 OFFCURVE",
"368 730 CURVE SMOOTH",
"180 730 OFFCURVE",
"24 614 OFFCURVE",
"-7 426 CURVE",
"-4 428 OFFCURVE",
"11 436 OFFCURVE",
"14 436 CURVE SMOOTH",
"42 436 OFFCURVE",
"31 385 OFFCURVE",
"68 374 CURVE",
"66 383 OFFCURVE",
"61 390 OFFCURVE",
"58 399 CURVE SMOOTH",
"52 413 OFFCURVE",
"52 430 OFFCURVE",
"52 446 CURVE SMOOTH",
"52 601 OFFCURVE",
"155 690 OFFCURVE",
"303 690 CURVE SMOOTH",
"420 690 OFFCURVE",
"540 642 OFFCURVE",
"647 596 CURVE",
"619 510 OFFCURVE",
"595 422 OFFCURVE",
"564 337 CURVE",
"522 339 OFFCURVE",
"479 347 OFFCURVE",
"437 352 CURVE SMOOTH",
"418 355 OFFCURVE",
"400 358 OFFCURVE",
"381 358 CURVE SMOOTH",
"355 358 OFFCURVE",
"257 294 OFFCURVE",
"257 268 CURVE SMOOTH",
"257 253 OFFCURVE",
"271 215 OFFCURVE",
"271 197 CURVE SMOOTH",
"271 186 OFFCURVE",
"257 158 OFFCURVE",
"249 150 CURVE",
"250 150 OFFCURVE",
"251 150 OFFCURVE",
"252 150 CURVE SMOOTH",
"264 150 OFFCURVE",
"270 161 OFFCURVE",
"274 170 CURVE SMOOTH",
"286 192 OFFCURVE",
"294 196 OFFCURVE",
"307 213 CURVE SMOOTH",
"319 229 OFFCURVE",
"320 248 OFFCURVE",
"320 266 CURVE SMOOTH",
"320 279 OFFCURVE",
"313 292 OFFCURVE",
"313 304 CURVE SMOOTH",
"313 313 OFFCURVE",
"324 314 OFFCURVE",
"330 314 CURVE SMOOTH",
"404 314 OFFCURVE",
"477 301 OFFCURVE",
"551 301 CURVE",
"500 169 OFFCURVE",
"411 -17 OFFCURVE",
"245 -17 CURVE SMOOTH",
"209 -17 OFFCURVE",
"117 -4 OFFCURVE",
"117 45 CURVE SMOOTH",
"117 71 OFFCURVE",
"146 87 OFFCURVE",
"146 95 CURVE SMOOTH",
"146 96 OFFCURVE",
"144 97 OFFCURVE",
"144 97 CURVE",
"124 97 OFFCURVE",
"107 69 OFFCURVE",
"104 52 CURVE SMOOTH",
"102 43 OFFCURVE",
"105 33 OFFCURVE",
"97 27 CURVE SMOOTH",
"94 24 OFFCURVE",
"84 28 OFFCURVE",
"84 17 CURVE SMOOTH",
"84 9 OFFCURVE",
"92 1 OFFCURVE",
"97 -4 CURVE SMOOTH",
"127 -34 OFFCURVE",
"165 -49 OFFCURVE",
"207 -49 CURVE SMOOTH"
);
}
);
};
layerId = "56A77921-5252-498D-AF45-CD2B441B871C";
paths = (
{
closed = 1;
nodes = (
"334 -49 OFFCURVE",
"451 53 OFFCURVE",
"519 152 CURVE SMOOTH",
"551 198 OFFCURVE",
"577 248 OFFCURVE",
"596 300 CURVE",
"614 300 OFFCURVE",
"632 299 OFFCURVE",
"650 299 CURVE SMOOTH",
"689 299 OFFCURVE",
"792 308 OFFCURVE",
"792 363 CURVE SMOOTH",
"792 365 LINE",
"791 365 OFFCURVE",
"790 364 OFFCURVE",
"790 364 CURVE",
"764 333 OFFCURVE",
"723 329 OFFCURVE",
"685 329 CURVE SMOOTH",
"659 329 OFFCURVE",
"633 332 OFFCURVE",
"607 333 CURVE",
"636 413 OFFCURVE",
"660 496 OFFCURVE",
"693 575 CURVE",
"747 551 OFFCURVE",
"842 513 OFFCURVE",
"901 513 CURVE SMOOTH",
"903 513 LINE SMOOTH",
"955 514 OFFCURVE",
"1000 536 OFFCURVE",
"1027 582 CURVE",
"1029 584 OFFCURVE",
"1038 601 OFFCURVE",
"1038 603 CURVE SMOOTH",
"1038 614 OFFCURVE",
"1033 633 OFFCURVE",
"1019 633 CURVE SMOOTH",
"1013 633 OFFCURVE",
"1010 628 OFFCURVE",
"1009 623 CURVE",
"1012 618 OFFCURVE",
"1019 601 OFFCURVE",
"1019 595 CURVE SMOOTH",
"1019 561 OFFCURVE",
"968 555 OFFCURVE",
"943 555 CURVE SMOOTH",
"872 555 OFFCURVE",
"778 593 OFFCURVE",
"714 622 CURVE",
"723 640 OFFCURVE",
"750 696 OFFCURVE",
"774 696 CURVE SMOOTH",
"777 696 OFFCURVE",
"789 697 OFFCURVE",
"789 703 CURVE SMOOTH",
"789 708 OFFCURVE",
"781 709 OFFCURVE",
"779 709 CURVE SMOOTH",
"735 709 OFFCURVE",
"679 690 OFFCURVE",
"663 645 CURVE",
"567 689 OFFCURVE",
"475 730 OFFCURVE",
"368 730 CURVE SMOOTH",
"180 730 OFFCURVE",
"24 614 OFFCURVE",
"-7 426 CURVE",
"-4 428 OFFCURVE",
"11 436 OFFCURVE",
"14 436 CURVE SMOOTH",
"42 436 OFFCURVE",
"31 385 OFFCURVE",
"68 374 CURVE",
"66 383 OFFCURVE",
"61 390 OFFCURVE",
"58 399 CURVE SMOOTH",
"52 413 OFFCURVE",
"52 430 OFFCURVE",
"52 446 CURVE SMOOTH",
"52 601 OFFCURVE",
"155 690 OFFCURVE",
"303 690 CURVE SMOOTH",
"420 690 OFFCURVE",
"540 642 OFFCURVE",
"647 596 CURVE",
"619 510 OFFCURVE",
"595 422 OFFCURVE",
"564 337 CURVE",
"522 339 OFFCURVE",
"479 347 OFFCURVE",
"437 352 CURVE SMOOTH",
"418 355 OFFCURVE",
"400 358 OFFCURVE",
"381 358 CURVE SMOOTH",
"355 358 OFFCURVE",
"257 294 OFFCURVE",
"257 268 CURVE SMOOTH",
"257 253 OFFCURVE",
"271 215 OFFCURVE",
"271 197 CURVE SMOOTH",
"271 186 OFFCURVE",
"257 158 OFFCURVE",
"249 150 CURVE",
"252 150 LINE SMOOTH",
"264 150 OFFCURVE",
"270 161 OFFCURVE",
"274 170 CURVE SMOOTH",
"286 192 OFFCURVE",
"294 196 OFFCURVE",
"307 213 CURVE SMOOTH",
"319 229 OFFCURVE",
"320 248 OFFCURVE",
"320 266 CURVE SMOOTH",
"320 279 OFFCURVE",
"313 292 OFFCURVE",
"313 304 CURVE SMOOTH",
"313 313 OFFCURVE",
"324 314 OFFCURVE",
"330 314 CURVE SMOOTH",
"404 314 OFFCURVE",
"477 301 OFFCURVE",
"551 301 CURVE",
"500 169 OFFCURVE",
"411 -17 OFFCURVE",
"245 -17 CURVE SMOOTH",
"209 -17 OFFCURVE",
"117 -4 OFFCURVE",
"117 45 CURVE SMOOTH",
"117 71 OFFCURVE",
"146 87 OFFCURVE",
"146 95 CURVE SMOOTH",
"146 96 OFFCURVE",
"144 97 OFFCURVE",
"144 97 CURVE",
"124 97 OFFCURVE",
"107 69 OFFCURVE",
"104 52 CURVE SMOOTH",
"102 43 OFFCURVE",
"105 33 OFFCURVE",
"97 27 CURVE SMOOTH",
"94 24 OFFCURVE",
"84 28 OFFCURVE",
"84 17 CURVE SMOOTH",
"84 9 OFFCURVE",
"92 1 OFFCURVE",
"97 -4 CURVE SMOOTH",
"127 -34 OFFCURVE",
"165 -49 OFFCURVE",
"207 -49 CURVE SMOOTH"
);
}
);
width = 699;
}
);
leftKerningGroup = F;
note = F;
rightKerningGroup = F;
unicode = 0046;
},
{
color = 3;
glyphname = G;
lastChange = "2022-02-09 10:51:45 +0000";
layers = (
{
anchors = (
{
name = bottom;
position = "{329, 0}";
},
{
name = top;
position = "{665, 685}";
}
);
background = {
paths = (
{
closed = 1;
nodes = (
"487 -301 OFFCURVE",
"492 -301 OFFCURVE",
"497 -300 CURVE SMOOTH",
"523 -297 OFFCURVE",
"545 -293 OFFCURVE",
"569 -282 CURVE SMOOTH",
"710 -220 OFFCURVE",
"756 -16 OFFCURVE",
"790 119 CURVE SMOOTH",
"800 161 OFFCURVE",
"817 240 OFFCURVE",
"843 274 CURVE",
"853 281 OFFCURVE",
"898 308 OFFCURVE",
"898 321 CURVE SMOOTH",
"898 323 OFFCURVE",
"897 325 OFFCURVE",
"895 325 CURVE SMOOTH",
"893 325 OFFCURVE",
"891 324 OFFCURVE",
"890 323 CURVE SMOOTH",
"867 300 OFFCURVE",
"829 285 OFFCURVE",
"796 285 CURVE SMOOTH",
"700 285 OFFCURVE",
"604 296 OFFCURVE",
"507 296 CURVE SMOOTH",
"456 296 OFFCURVE",
"406 282 OFFCURVE",
"361 258 CURVE SMOOTH",
"345 249 OFFCURVE",
"292 218 OFFCURVE",
"292 199 CURVE SMOOTH",
"292 190 OFFCURVE",
"299 182 OFFCURVE",
"307 178 CURVE",
"315 194 OFFCURVE",
"319 213 OFFCURVE",
"331 227 CURVE SMOOTH",
"355 255 OFFCURVE",
"405 260 OFFCURVE",
"440 260 CURVE SMOOTH",
"447 260 OFFCURVE",
"455 259 OFFCURVE",
"462 259 CURVE SMOOTH",
"553 255 OFFCURVE",
"644 246 OFFCURVE",
"735 246 CURVE SMOOTH",
"746 246 OFFCURVE",
"758 247 OFFCURVE",
"770 247 CURVE",
"767 223 OFFCURVE",
"759 199 OFFCURVE",
"754 176 CURVE",
"736 150 OFFCURVE",
"716 126 OFFCURVE",
"694 104 CURVE SMOOTH",
"617 26 OFFCURVE",
"496 -27 OFFCURVE",
"386 -27 CURVE SMOOTH",
"258 -27 OFFCURVE",
"160 39 OFFCURVE",
"160 174 CURVE SMOOTH",
"160 332 OFFCURVE",
"280 502 OFFCURVE",
"401 592 CURVE",
"521 571 OFFCURVE",
"651 531 OFFCURVE",
"758 473 CURVE",
"757 467 OFFCURVE",
"756 459 OFFCURVE",
"756 453 CURVE SMOOTH",
"756 444 OFFCURVE",
"760 439 OFFCURVE",
"769 439 CURVE SMOOTH",
"794 439 OFFCURVE",
"798 456 OFFCURVE",
"807 473 CURVE",
"810 477 OFFCURVE",
"812 479 OFFCURVE",
"812 485 CURVE",
"819 504 OFFCURVE",
"823 525 OFFCURVE",
"823 546 CURVE SMOOTH",
"823 651 OFFCURVE",
"707 680 OFFCURVE",
"622 680 CURVE SMOOTH",
"548 680 OFFCURVE",
"473 662 OFFCURVE",
"408 626 CURVE",
"352 635 OFFCURVE",
"296 644 OFFCURVE",
"239 644 CURVE SMOOTH",
"151 644 OFFCURVE",
"88 619 OFFCURVE",
"31 550 CURVE SMOOTH",
"22 539 OFFCURVE",
"6 518 OFFCURVE",
"6 503 CURVE SMOOTH",
"6 497 OFFCURVE",
"5 476 OFFCURVE",
"16 476 CURVE SMOOTH",
"20 476 OFFCURVE",
"21 480 OFFCURVE",
"24 480 CURVE SMOOTH",
"35 480 OFFCURVE",
"51 453 OFFCURVE",
"81 453 CURVE SMOOTH",
"86 453 OFFCURVE",
"96 455 OFFCURVE",
"98 459 CURVE",
"91 471 OFFCURVE",
"37 453 OFFCURVE",
"37 515 CURVE SMOOTH",
"37 534 OFFCURVE",
"44 542 OFFCURVE",
"56 555 CURVE SMOOTH",
"97 600 OFFCURVE",
"143 613 OFFCURVE",
"203 613 CURVE SMOOTH",
"255 613 OFFCURVE",
"309 605 OFFCURVE",
"361 598 CURVE",
"219 504 OFFCURVE",
"103 348 OFFCURVE",
"103 172 CURVE SMOOTH",
"103 19 OFFCURVE",
"200 -53 OFFCURVE",
"346 -53 CURVE SMOOTH",
"484 -53 OFFCURVE",
"640 11 OFFCURVE",
"738 108 CURVE",
"711 -4 OFFCURVE",
"648 -262 OFFCURVE",
"512 -284 CURVE SMOOTH",
"506 -285 OFFCURVE",
"499 -285 OFFCURVE",
"493 -285 CURVE SMOOTH",
"472 -285 OFFCURVE",
"430 -260 OFFCURVE",
"430 -237 CURVE SMOOTH",
"430 -227 OFFCURVE",
"436 -217 OFFCURVE",
"436 -207 CURVE SMOOTH",
"436 -205 OFFCURVE",
"436 -203 OFFCURVE",
"434 -203 CURVE SMOOTH",
"423 -203 OFFCURVE",
"419 -223 OFFCURVE",
"419 -231 CURVE SMOOTH",
"419 -245 OFFCURVE",
"427 -256 OFFCURVE",
"427 -265 CURVE SMOOTH",
"427 -273 OFFCURVE",
"418 -268 OFFCURVE",
"418 -275 CURVE SMOOTH",
"418 -282 OFFCURVE",
"437 -291 OFFCURVE",
"442 -294 CURVE SMOOTH",
"453 -300 OFFCURVE",
"470 -301 OFFCURVE",
"483 -301 CURVE SMOOTH"
);
},
{
closed = 1;
nodes = (
"663 563 OFFCURVE",
"555 599 OFFCURVE",
"444 620 CURVE",
"492 646 OFFCURVE",
"552 659 OFFCURVE",
"606 659 CURVE SMOOTH",
"681 659 OFFCURVE",
"768 632 OFFCURVE",
"768 542 CURVE SMOOTH",
"768 533 OFFCURVE",
"767 525 OFFCURVE",
"766 517 CURVE"
);
}
);
};
layerId = "56A77921-5252-498D-AF45-CD2B441B871C";
paths = (
{
closed = 1;
nodes = (
"487 -301 OFFCURVE",
"492 -301 OFFCURVE",
"497 -300 CURVE SMOOTH",
"523 -297 OFFCURVE",
"545 -293 OFFCURVE",
"569 -282 CURVE SMOOTH",
"710 -220 OFFCURVE",
"756 -16 OFFCURVE",
"790 119 CURVE SMOOTH",
"800 161 OFFCURVE",
"817 240 OFFCURVE",
"843 274 CURVE",
"853 281 OFFCURVE",
"898 308 OFFCURVE",
"898 321 CURVE SMOOTH",
"898 323 OFFCURVE",
"897 325 OFFCURVE",
"895 325 CURVE SMOOTH",
"893 325 OFFCURVE",
"891 324 OFFCURVE",
"890 323 CURVE SMOOTH",
"867 300 OFFCURVE",
"829 285 OFFCURVE",
"796 285 CURVE SMOOTH",
"700 285 OFFCURVE",
"604 296 OFFCURVE",
"507 296 CURVE SMOOTH",
"456 296 OFFCURVE",
"406 282 OFFCURVE",
"361 258 CURVE SMOOTH",
"345 249 OFFCURVE",
"292 218 OFFCURVE",
"292 199 CURVE SMOOTH",
"292 190 OFFCURVE",
"299 182 OFFCURVE",
"307 178 CURVE",
"315 194 OFFCURVE",
"319 213 OFFCURVE",
"331 227 CURVE SMOOTH",
"355 255 OFFCURVE",
"405 260 OFFCURVE",
"440 260 CURVE SMOOTH",
"447 260 OFFCURVE",
"455 259 OFFCURVE",
"462 259 CURVE SMOOTH",
"553 255 OFFCURVE",
"644 246 OFFCURVE",
"735 246 CURVE SMOOTH",
"746 246 OFFCURVE",
"758 247 OFFCURVE",
"770 247 CURVE",
"767 223 OFFCURVE",
"759 199 OFFCURVE",
"754 176 CURVE",
"736 150 OFFCURVE",
"716 126 OFFCURVE",
"694 104 CURVE SMOOTH",
"617 26 OFFCURVE",
"496 -27 OFFCURVE",
"386 -27 CURVE SMOOTH",
"258 -27 OFFCURVE",
"160 39 OFFCURVE",
"160 174 CURVE SMOOTH",
"160 332 OFFCURVE",
"280 502 OFFCURVE",
"401 592 CURVE",
"521 571 OFFCURVE",
"651 531 OFFCURVE",
"758 473 CURVE",
"757 467 OFFCURVE",
"756 459 OFFCURVE",
"756 453 CURVE SMOOTH",
"756 444 OFFCURVE",
"760 439 OFFCURVE",
"769 439 CURVE SMOOTH",
"794 439 OFFCURVE",
"798 456 OFFCURVE",
"807 473 CURVE",
"810 477 OFFCURVE",
"812 479 OFFCURVE",
"812 485 CURVE",
"819 504 OFFCURVE",
"823 525 OFFCURVE",
"823 546 CURVE SMOOTH",
"823 651 OFFCURVE",
"707 680 OFFCURVE",
"622 680 CURVE SMOOTH",
"548 680 OFFCURVE",
"473 662 OFFCURVE",
"408 626 CURVE",
"352 635 OFFCURVE",
"296 644 OFFCURVE",
"239 644 CURVE SMOOTH",
"151 644 OFFCURVE",
"88 619 OFFCURVE",
"31 550 CURVE SMOOTH",
"22 539 OFFCURVE",
"6 518 OFFCURVE",
"6 503 CURVE SMOOTH",
"6 497 OFFCURVE",
"5 476 OFFCURVE",
"16 476 CURVE SMOOTH",
"20 476 OFFCURVE",
"21 480 OFFCURVE",
"24 480 CURVE SMOOTH",
"35 480 OFFCURVE",
"51 453 OFFCURVE",
"81 453 CURVE SMOOTH",
"86 453 OFFCURVE",
"96 455 OFFCURVE",
"98 459 CURVE",
"91 471 OFFCURVE",
"37 453 OFFCURVE",
"37 515 CURVE SMOOTH",
"37 534 OFFCURVE",
"44 542 OFFCURVE",
"56 555 CURVE SMOOTH",
"97 600 OFFCURVE",
"143 613 OFFCURVE",
"203 613 CURVE SMOOTH",
"255 613 OFFCURVE",
"309 605 OFFCURVE",
"361 598 CURVE",
"219 504 OFFCURVE",
"103 348 OFFCURVE",
"103 172 CURVE SMOOTH",
"103 19 OFFCURVE",
"200 -53 OFFCURVE",
"346 -53 CURVE SMOOTH",
"484 -53 OFFCURVE",
"640 11 OFFCURVE",
"738 108 CURVE",
"711 -4 OFFCURVE",
"648 -262 OFFCURVE",
"512 -284 CURVE SMOOTH",
"506 -285 OFFCURVE",
"499 -285 OFFCURVE",
"493 -285 CURVE SMOOTH",
"472 -285 OFFCURVE",
"430 -260 OFFCURVE",
"430 -237 CURVE SMOOTH",
"430 -227 OFFCURVE",
"436 -217 OFFCURVE",
"436 -207 CURVE SMOOTH",
"436 -205 OFFCURVE",
"436 -203 OFFCURVE",
"434 -203 CURVE SMOOTH",
"423 -203 OFFCURVE",
"419 -223 OFFCURVE",
"419 -231 CURVE SMOOTH",
"419 -245 OFFCURVE",
"427 -256 OFFCURVE",
"427 -265 CURVE SMOOTH",
"427 -273 OFFCURVE",
"418 -268 OFFCURVE",
"418 -275 CURVE SMOOTH",
"418 -282 OFFCURVE",
"437 -291 OFFCURVE",
"442 -294 CURVE SMOOTH",
"453 -300 OFFCURVE",
"470 -301 OFFCURVE",
"483 -301 CURVE SMOOTH"
);
},
{
closed = 1;
nodes = (
"663 563 OFFCURVE",
"555 599 OFFCURVE",
"444 620 CURVE",
"492 646 OFFCURVE",
"552 659 OFFCURVE",
"606 659 CURVE SMOOTH",
"681 659 OFFCURVE",
"768 632 OFFCURVE",
"768 542 CURVE SMOOTH",
"768 533 OFFCURVE",
"767 525 OFFCURVE",
"766 517 CURVE"
);
}
);
width = 867;
}
);
leftKerningGroup = C;
note = G;
rightKerningGroup = G;
unicode = 0047;
},
{
color = 3;
glyphname = H;
lastChange = "2022-02-09 10:51:45 +0000";
layers = (
{
anchors = (
{
name = bottom;
position = "{509, 0}";
},
{
name = top;
position = "{882, 685}";
}
);
background = {
paths = (
{
closed = 1;
nodes = (
"282 -100 OFFCURVE",
"425 123 OFFCURVE",
"483 252 CURVE",
"581 259 OFFCURVE",
"680 257 OFFCURVE",
"779 257 CURVE",
"755 197 OFFCURVE",
"711 81 OFFCURVE",
"711 16 CURVE SMOOTH",
"711 -8 OFFCURVE",
"717 -29 OFFCURVE",
"746 -29 CURVE SMOOTH",
"783 -29 OFFCURVE",
"829 15 OFFCURVE",
"853 39 CURVE",
"858 48 OFFCURVE",
"860 52 OFFCURVE",
"862 62 CURVE SMOOTH",
"864 70 OFFCURVE",
"909 124 OFFCURVE",
"909 140 CURVE SMOOTH",
"909 141 OFFCURVE",
"909 142 OFFCURVE",
"908 143 CURVE",
"884 98 OFFCURVE",
"839 35 OFFCURVE",
"794 10 CURVE SMOOTH",
"789 7 OFFCURVE",
"783 4 OFFCURVE",
"777 4 CURVE SMOOTH",
"762 4 OFFCURVE",
"761 24 OFFCURVE",
"761 34 CURVE SMOOTH",
"761 94 OFFCURVE",
"802 201 OFFCURVE",
"824 258 CURVE",
"849 259 OFFCURVE",
"874 259 OFFCURVE",
"899 261 CURVE SMOOTH",
"921 262 OFFCURVE",
"948 265 OFFCURVE",
"969 272 CURVE",
"969 272 OFFCURVE",
"974 274 OFFCURVE",
"974 275 CURVE SMOOTH",
"974 277 OFFCURVE",
"972 278 OFFCURVE",
"971 278 CURVE",
"961 282 OFFCURVE",
"930 282 OFFCURVE",
"919 283 CURVE SMOOTH",
"891 284 OFFCURVE",
"863 285 OFFCURVE",
"835 286 CURVE",
"864 357 OFFCURVE",
"895 428 OFFCURVE",
"929 497 CURVE SMOOTH",
"952 543 OFFCURVE",
"976 591 OFFCURVE",
"1006 632 CURVE SMOOTH",
"1030 664 OFFCURVE",
"1086 721 OFFCURVE",
"1127 721 CURVE SMOOTH",
"1144 721 OFFCURVE",
"1148 706 OFFCURVE",
"1159 702 CURVE",
"1160 702 OFFCURVE",
"1161 705 OFFCURVE",
"1161 706 CURVE SMOOTH",
"1161 710 OFFCURVE",
"1159 713 OFFCURVE",
"1157 715 CURVE",
"1149 728 OFFCURVE",
"1127 733 OFFCURVE",
"1113 733 CURVE SMOOTH",
"963 733 OFFCURVE",
"837 402 OFFCURVE",
"790 286 CURVE",
"693 288 OFFCURVE",
"595 287 OFFCURVE",
"498 287 CURVE",
"538 396 OFFCURVE",
"588 507 OFFCURVE",
"645 608 CURVE",
"665 603 OFFCURVE",
"686 599 OFFCURVE",
"706 599 CURVE SMOOTH",
"721 599 OFFCURVE",
"752 619 OFFCURVE",
"752 636 CURVE SMOOTH",
"752 637 OFFCURVE",
"751 638 OFFCURVE",
"750 638 CURVE SMOOTH",
"747 638 OFFCURVE",
"728 623 OFFCURVE",
"712 623 CURVE SMOOTH",
"695 623 OFFCURVE",
"676 629 OFFCURVE",
"660 633 CURVE",
"667 643 OFFCURVE",
"682 668 OFFCURVE",
"693 673 CURVE",
"691 689 OFFCURVE",
"677 698 OFFCURVE",
"662 698 CURVE SMOOTH",
"634 698 OFFCURVE",
"612 672 OFFCURVE",
"601 649 CURVE",
"498 678 OFFCURVE",
"395 711 OFFCURVE",
"288 711 CURVE SMOOTH",
"201 711 OFFCURVE",
"96 688 OFFCURVE",
"48 608 CURVE SMOOTH",
"35 585 OFFCURVE",
"27 560 OFFCURVE",
"27 534 CURVE SMOOTH",
"27 439 OFFCURVE",
"114 391 OFFCURVE",
"199 391 CURVE SMOOTH",
"228 391 OFFCURVE",
"261 397 OFFCURVE",
"278 423 CURVE SMOOTH",
"279 425 OFFCURVE",
"279 427 OFFCURVE",
"279 429 CURVE SMOOTH",
"279 430 OFFCURVE",
"278 432 OFFCURVE",
"276 433 CURVE",
"262 419 OFFCURVE",
"245 410 OFFCURVE",
"225 410 CURVE SMOOTH",
"151 410 OFFCURVE",
"64 453 OFFCURVE",
"64 537 CURVE SMOOTH",
"64 558 OFFCURVE",
"71 578 OFFCURVE",
"82 595 CURVE SMOOTH",
"125 661 OFFCURVE",
"223 676 OFFCURVE",
"295 676 CURVE SMOOTH",
"397 676 OFFCURVE",
"492 649 OFFCURVE",
"589 622 CURVE",
"543 511 OFFCURVE",
"500 398 OFFCURVE",
"454 287 CURVE",
"437 286 OFFCURVE",
"336 285 OFFCURVE",
"336 269 CURVE SMOOTH",
"336 259 OFFCURVE",
"375 251 OFFCURVE",
"383 251 CURVE SMOOTH",
"435 251 LINE",
"390 132 OFFCURVE",
"299 -68 OFFCURVE",
"147 -68 CURVE SMOOTH",
"113 -68 OFFCURVE",
"35 -52 OFFCURVE",
"35 -7 CURVE SMOOTH",
"35 19 OFFCURVE",
"64 35 OFFCURVE",
"64 43 CURVE SMOOTH",
"64 44 OFFCURVE",
"63 45 OFFCURVE",
"62 45 CURVE SMOOTH",
"42 45 OFFCURVE",
"25 17 OFFCURVE",
"22 0 CURVE SMOOTH",
"20 -9 OFFCURVE",
"23 -19 OFFCURVE",
"15 -25 CURVE SMOOTH",
"12 -28 OFFCURVE",
"2 -24 OFFCURVE",
"2 -35 CURVE SMOOTH",
"2 -43 OFFCURVE",
"10 -51 OFFCURVE",
"15 -56 CURVE SMOOTH",
"43 -84 OFFCURVE",
"82 -100 OFFCURVE",
"121 -100 CURVE SMOOTH"
);
}
);
};
layerId = "56A77921-5252-498D-AF45-CD2B441B871C";
paths = (
{
closed = 1;
nodes = (
"282 -100 OFFCURVE",
"425 123 OFFCURVE",
"483 252 CURVE",
"545 256 OFFCURVE",
"608 257 OFFCURVE",
"671 257 CURVE SMOOTH",
"779 257 LINE",
"755 197 OFFCURVE",
"711 81 OFFCURVE",
"711 16 CURVE SMOOTH",
"711 -8 OFFCURVE",
"717 -29 OFFCURVE",
"746 -29 CURVE SMOOTH",
"783 -29 OFFCURVE",
"829 15 OFFCURVE",
"853 39 CURVE",
"858 48 OFFCURVE",
"860 52 OFFCURVE",
"862 62 CURVE SMOOTH",
"864 70 OFFCURVE",
"909 124 OFFCURVE",
"909 140 CURVE SMOOTH",
"909 141 OFFCURVE",
"909 142 OFFCURVE",
"908 143 CURVE",
"884 98 OFFCURVE",
"839 35 OFFCURVE",
"794 10 CURVE SMOOTH",
"789 7 OFFCURVE",
"783 4 OFFCURVE",
"777 4 CURVE SMOOTH",
"762 4 OFFCURVE",
"761 24 OFFCURVE",
"761 34 CURVE SMOOTH",
"761 94 OFFCURVE",
"802 201 OFFCURVE",
"824 258 CURVE",
"849 259 OFFCURVE",
"874 259 OFFCURVE",
"899 261 CURVE SMOOTH",
"921 262 OFFCURVE",
"948 265 OFFCURVE",
"969 272 CURVE",
"969 272 OFFCURVE",
"974 274 OFFCURVE",
"974 275 CURVE SMOOTH",
"974 277 OFFCURVE",
"972 278 OFFCURVE",
"971 278 CURVE",
"961 282 OFFCURVE",
"930 283 OFFCURVE",
"919 283 CURVE SMOOTH",
"835 286 LINE",
"864 357 OFFCURVE",
"895 428 OFFCURVE",
"929 497 CURVE SMOOTH",
"952 543 OFFCURVE",
"976 591 OFFCURVE",
"1006 632 CURVE SMOOTH",
"1030 664 OFFCURVE",
"1086 721 OFFCURVE",
"1127 721 CURVE SMOOTH",
"1144 721 OFFCURVE",
"1148 706 OFFCURVE",
"1159 702 CURVE",
"1160 702 OFFCURVE",
"1161 705 OFFCURVE",
"1161 706 CURVE SMOOTH",
"1161 710 OFFCURVE",
"1159 713 OFFCURVE",
"1157 715 CURVE",
"1149 728 OFFCURVE",
"1127 733 OFFCURVE",
"1113 733 CURVE SMOOTH",
"963 733 OFFCURVE",
"837 402 OFFCURVE",
"790 286 CURVE",
"742 287 OFFCURVE",
"693 287 OFFCURVE",
"644 287 CURVE SMOOTH",
"498 287 LINE",
"538 396 OFFCURVE",
"588 507 OFFCURVE",
"645 608 CURVE",
"665 603 OFFCURVE",
"686 599 OFFCURVE",
"706 599 CURVE SMOOTH",
"721 599 OFFCURVE",
"752 619 OFFCURVE",
"752 636 CURVE SMOOTH",
"752 637 OFFCURVE",
"751 638 OFFCURVE",
"750 638 CURVE SMOOTH",
"747 638 OFFCURVE",
"728 623 OFFCURVE",
"712 623 CURVE SMOOTH",
"695 623 OFFCURVE",
"676 629 OFFCURVE",
"660 633 CURVE",
"667 643 OFFCURVE",
"682 668 OFFCURVE",
"693 673 CURVE",
"691 689 OFFCURVE",
"677 698 OFFCURVE",
"662 698 CURVE SMOOTH",
"634 698 OFFCURVE",
"612 672 OFFCURVE",
"601 649 CURVE",
"498 678 OFFCURVE",
"395 711 OFFCURVE",
"288 711 CURVE SMOOTH",
"201 711 OFFCURVE",
"96 688 OFFCURVE",
"48 608 CURVE SMOOTH",
"35 585 OFFCURVE",
"27 560 OFFCURVE",
"27 534 CURVE SMOOTH",
"27 439 OFFCURVE",
"114 391 OFFCURVE",
"199 391 CURVE SMOOTH",
"228 391 OFFCURVE",
"261 397 OFFCURVE",
"278 423 CURVE SMOOTH",
"279 425 OFFCURVE",
"279 427 OFFCURVE",
"279 429 CURVE SMOOTH",
"279 430 OFFCURVE",
"278 432 OFFCURVE",
"276 433 CURVE",
"262 419 OFFCURVE",
"245 410 OFFCURVE",
"225 410 CURVE SMOOTH",
"151 410 OFFCURVE",
"64 453 OFFCURVE",
"64 537 CURVE SMOOTH",
"64 558 OFFCURVE",
"71 578 OFFCURVE",
"82 595 CURVE SMOOTH",
"125 661 OFFCURVE",
"223 676 OFFCURVE",
"295 676 CURVE SMOOTH",
"397 676 OFFCURVE",
"492 649 OFFCURVE",
"589 622 CURVE",
"543 511 OFFCURVE",
"500 398 OFFCURVE",
"454 287 CURVE",
"437 286 OFFCURVE",
"336 285 OFFCURVE",
"336 269 CURVE SMOOTH",
"336 259 OFFCURVE",
"375 251 OFFCURVE",
"383 251 CURVE SMOOTH",
"435 251 LINE",
"390 132 OFFCURVE",
"299 -68 OFFCURVE",
"147 -68 CURVE SMOOTH",
"113 -68 OFFCURVE",
"35 -52 OFFCURVE",
"35 -7 CURVE SMOOTH",
"35 19 OFFCURVE",
"64 35 OFFCURVE",
"64 43 CURVE SMOOTH",
"64 44 OFFCURVE",
"63 45 OFFCURVE",
"62 45 CURVE SMOOTH",
"42 45 OFFCURVE",
"25 17 OFFCURVE",
"22 0 CURVE SMOOTH",
"20 -9 OFFCURVE",
"23 -19 OFFCURVE",
"15 -25 CURVE SMOOTH",
"12 -28 OFFCURVE",
"2 -24 OFFCURVE",
"2 -35 CURVE SMOOTH",
"2 -43 OFFCURVE",
"10 -51 OFFCURVE",
"15 -56 CURVE SMOOTH",
"43 -84 OFFCURVE",
"82 -100 OFFCURVE",
"121 -100 CURVE SMOOTH"
);
}
);
width = 935;
}
);
leftKerningGroup = H;
note = H;
rightKerningGroup = H;
unicode = 0048;
},
{
color = 1;
glyphname = I;
lastChange = "2022-02-09 19:54:59 +0000";
layers = (
{
anchors = (
{
name = bottom;
position = "{148, -50}";
},
{
name = ogonek;
position = "{222, -71}";
},
{
name = top;
position = "{684, 695}";
}
);
background = {
paths = (
{
closed = 1;
nodes = (
"497 -101 OFFCURVE",
"592 623 OFFCURVE",
"697 673 CURVE",
"695 689 OFFCURVE",
"681 698 OFFCURVE",
"666 698 CURVE SMOOTH",
"635 698 OFFCURVE",
"612 667 OFFCURVE",
"601 642 CURVE",
"589 635 OFFCURVE",
"577 627 OFFCURVE",
"565 620 CURVE SMOOTH",
"475 572 OFFCURVE",
"258 484 OFFCURVE",
"258 364 CURVE SMOOTH",
"258 322 OFFCURVE",
"282 300 OFFCURVE",
"324 300 CURVE SMOOTH",
"326 300 OFFCURVE",
"329 300 OFFCURVE",
"331 300 CURVE SMOOTH",
"342 301 OFFCURVE",
"346 302 OFFCURVE",
"356 305 CURVE SMOOTH",
"365 309 OFFCURVE",
"392 323 OFFCURVE",
"392 336 CURVE SMOOTH",
"392 337 OFFCURVE",
"391 338 OFFCURVE",
"390 338 CURVE SMOOTH",
"383 338 OFFCURVE",
"369 321 OFFCURVE",
"349 321 CURVE SMOOTH",
"322 321 OFFCURVE",
"305 343 OFFCURVE",
"305 368 CURVE SMOOTH",
"305 380 OFFCURVE",
"308 392 OFFCURVE",
"314 402 CURVE",
"363 503 OFFCURVE",
"488 576 OFFCURVE",
"590 614 CURVE",
"524 438 OFFCURVE",
"397 -70 OFFCURVE",
"163 -70 CURVE SMOOTH",
"128 -70 OFFCURVE",
"40 -49 OFFCURVE",
"40 -4 CURVE SMOOTH",
"40 18 OFFCURVE",
"68 35 OFFCURVE",
"68 43 CURVE SMOOTH",
"68 44 OFFCURVE",
"66 45 OFFCURVE",
"66 45 CURVE",
"46 45 OFFCURVE",
"29 17 OFFCURVE",
"26 0 CURVE SMOOTH",
"24 -10 OFFCURVE",
"27 -18 OFFCURVE",
"19 -25 CURVE SMOOTH",
"17 -27 OFFCURVE",
"6 -24 OFFCURVE",
"6 -35 CURVE SMOOTH",
"6 -43 OFFCURVE",
"14 -51 OFFCURVE",
"19 -56 CURVE SMOOTH",
"51 -88 OFFCURVE",
"89 -101 OFFCURVE",
"133 -101 CURVE SMOOTH"
);
}
);
};
layerId = "56A77921-5252-498D-AF45-CD2B441B871C";
paths = (
{
closed = 1;
nodes = (
"497 -101 OFFCURVE",
"592 623 OFFCURVE",
"697 673 CURVE",
"695 689 OFFCURVE",
"681 698 OFFCURVE",
"666 698 CURVE SMOOTH",
"635 698 OFFCURVE",
"612 667 OFFCURVE",
"601 642 CURVE",
"565 620 LINE",
"475 572 OFFCURVE",
"258 484 OFFCURVE",
"258 364 CURVE SMOOTH",
"258 322 OFFCURVE",
"282 300 OFFCURVE",
"324 300 CURVE SMOOTH",
"331 300 LINE SMOOTH",
"342 300 OFFCURVE",
"346 302 OFFCURVE",
"356 305 CURVE SMOOTH",
"365 309 OFFCURVE",
"392 323 OFFCURVE",
"392 336 CURVE SMOOTH",
"392 337 OFFCURVE",
"391 338 OFFCURVE",
"390 338 CURVE SMOOTH",
"383 338 OFFCURVE",
"369 321 OFFCURVE",
"349 321 CURVE SMOOTH",
"322 321 OFFCURVE",
"305 343 OFFCURVE",
"305 368 CURVE SMOOTH",
"305 380 OFFCURVE",
"308 392 OFFCURVE",
"314 402 CURVE",
"363 503 OFFCURVE",
"488 576 OFFCURVE",
"590 614 CURVE",
"524 438 OFFCURVE",
"397 -70 OFFCURVE",
"163 -70 CURVE SMOOTH",
"128 -70 OFFCURVE",
"40 -49 OFFCURVE",
"40 -4 CURVE SMOOTH",
"40 18 OFFCURVE",
"68 35 OFFCURVE",
"68 43 CURVE SMOOTH",
"68 44 OFFCURVE",
"66 45 OFFCURVE",
"66 45 CURVE",
"46 45 OFFCURVE",
"29 17 OFFCURVE",
"26 0 CURVE SMOOTH",
"24 -10 OFFCURVE",
"27 -18 OFFCURVE",
"19 -25 CURVE SMOOTH",
"17 -27 OFFCURVE",
"6 -24 OFFCURVE",
"6 -35 CURVE SMOOTH",
"6 -43 OFFCURVE",
"14 -51 OFFCURVE",
"19 -56 CURVE SMOOTH",
"51 -88 OFFCURVE",
"89 -101 OFFCURVE",
"133 -101 CURVE SMOOTH"
);
}
);
width = 636;
}
);
leftKerningGroup = I;
note = I;
rightKerningGroup = I;
unicode = 0049;
},
{
color = 1;
glyphname = J;
lastChange = "2022-02-10 10:16:28 +0000";
layers = (
{
anchors = (
{
name = bottom;
position = "{189, -50}";
},
{
name = top;
position = "{682, 655}";
}
);
background = {
paths = (
{
closed = 1;
nodes = (
"200 -79 OFFCURVE",
"226 -76 OFFCURVE",
"249 -67 CURVE SMOOTH",
"505 26 OFFCURVE",
"534 188 OFFCURVE",
"606 423 CURVE SMOOTH",
"625 483 OFFCURVE",
"645 544 OFFCURVE",
"675 601 CURVE SMOOTH",
"681 613 OFFCURVE",
"695 623 OFFCURVE",
"710 623 CURVE SMOOTH",
"725 623 OFFCURVE",
"743 621 OFFCURVE",
"758 625 CURVE SMOOTH",
"776 629 OFFCURVE",
"797 646 OFFCURVE",
"797 666 CURVE SMOOTH",
"797 668 OFFCURVE",
"797 671 OFFCURVE",
"795 671 CURVE SMOOTH",
"789 671 OFFCURVE",
"783 648 OFFCURVE",
"739 648 CURVE SMOOTH",
"685 648 OFFCURVE",
"632 659 OFFCURVE",
"576 659 CURVE SMOOTH",
"471 659 OFFCURVE",
"332 635 OFFCURVE",
"270 540 CURVE SMOOTH",
"254 515 OFFCURVE",
"245 487 OFFCURVE",
"245 457 CURVE SMOOTH",
"245 370 OFFCURVE",
"320 318 OFFCURVE",
"402 318 CURVE SMOOTH",
"440 318 OFFCURVE",
"494 326 OFFCURVE",
"511 366 CURVE",
"512 367 OFFCURVE",
"512 368 OFFCURVE",
"512 369 CURVE SMOOTH",
"512 372 OFFCURVE",
"511 375 OFFCURVE",
"510 375 CURVE",
"510 375 OFFCURVE",
"509 376 OFFCURVE",
"509 375 CURVE",
"494 362 OFFCURVE",
"482 348 OFFCURVE",
"462 345 CURVE SMOOTH",
"450 343 OFFCURVE",
"439 342 OFFCURVE",
"427 342 CURVE SMOOTH",
"357 342 OFFCURVE",
"274 386 OFFCURVE",
"274 466 CURVE SMOOTH",
"274 484 OFFCURVE",
"279 501 OFFCURVE",
"288 517 CURVE SMOOTH",
"340 609 OFFCURVE",
"509 627 OFFCURVE",
"601 627 CURVE SMOOTH",
"626 627 OFFCURVE",
"651 625 OFFCURVE",
"676 624 CURVE",
"661 620 OFFCURVE",
"629 615 OFFCURVE",
"620 601 CURVE SMOOTH",
"599 572 OFFCURVE",
"576 483 OFFCURVE",
"566 446 CURVE SMOOTH",
"522 287 OFFCURVE",
"468 72 OFFCURVE",
"314 -16 CURVE SMOOTH",
"289 -30 OFFCURVE",
"264 -39 OFFCURVE",
"237 -47 CURVE SMOOTH",
"223 -51 OFFCURVE",
"208 -52 OFFCURVE",
"194 -52 CURVE SMOOTH",
"114 -52 OFFCURVE",
"-12 13 OFFCURVE",
"-12 105 CURVE SMOOTH",
"-12 139 OFFCURVE",
"18 177 OFFCURVE",
"53 177 CURVE SMOOTH",
"78 177 OFFCURVE",
"92 151 OFFCURVE",
"103 151 CURVE SMOOTH",
"105 151 OFFCURVE",
"105 152 OFFCURVE",
"105 153 CURVE SMOOTH",
"105 172 OFFCURVE",
"75 187 OFFCURVE",
"59 190 CURVE SMOOTH",
"51 191 OFFCURVE",
"39 188 OFFCURVE",
"33 196 CURVE SMOOTH",
"31 198 OFFCURVE",
"34 208 OFFCURVE",
"25 208 CURVE SMOOTH",
"18 208 OFFCURVE",
"5 196 OFFCURVE",
"0 191 CURVE SMOOTH",
"-16 175 OFFCURVE",
"-28 125 OFFCURVE",
"-28 102 CURVE SMOOTH",
"-28 -13 OFFCURVE",
"69 -79 OFFCURVE",
"176 -79 CURVE SMOOTH"
);
}
);
};
layerId = "56A77921-5252-498D-AF45-CD2B441B871C";
paths = (
{
closed = 1;
nodes = (
"200 -79 OFFCURVE",
"226 -76 OFFCURVE",
"249 -67 CURVE SMOOTH",
"505 26 OFFCURVE",
"534 188 OFFCURVE",
"606 423 CURVE SMOOTH",
"625 483 OFFCURVE",
"645 544 OFFCURVE",
"675 601 CURVE SMOOTH",
"681 613 OFFCURVE",
"695 623 OFFCURVE",
"710 623 CURVE SMOOTH",
"725 623 OFFCURVE",
"743 621 OFFCURVE",
"758 625 CURVE SMOOTH",
"776 629 OFFCURVE",
"797 646 OFFCURVE",
"797 666 CURVE SMOOTH",
"797 668 OFFCURVE",
"797 671 OFFCURVE",
"795 671 CURVE SMOOTH",
"789 671 OFFCURVE",
"783 648 OFFCURVE",
"739 648 CURVE SMOOTH",
"685 648 OFFCURVE",
"632 659 OFFCURVE",
"576 659 CURVE SMOOTH",
"471 659 OFFCURVE",
"332 635 OFFCURVE",
"270 540 CURVE SMOOTH",
"254 515 OFFCURVE",
"245 487 OFFCURVE",
"245 457 CURVE SMOOTH",
"245 370 OFFCURVE",
"320 318 OFFCURVE",
"402 318 CURVE SMOOTH",
"440 318 OFFCURVE",
"494 326 OFFCURVE",
"511 366 CURVE",
"512 367 OFFCURVE",
"512 368 OFFCURVE",
"512 369 CURVE SMOOTH",
"512 372 OFFCURVE",
"511 375 OFFCURVE",
"510 375 CURVE",
"510 375 OFFCURVE",
"509 376 OFFCURVE",
"509 375 CURVE",
"494 362 OFFCURVE",
"482 348 OFFCURVE",
"462 345 CURVE SMOOTH",
"450 343 OFFCURVE",
"439 342 OFFCURVE",
"427 342 CURVE SMOOTH",
"357 342 OFFCURVE",
"274 386 OFFCURVE",
"274 466 CURVE SMOOTH",
"274 484 OFFCURVE",
"279 501 OFFCURVE",
"288 517 CURVE SMOOTH",
"340 609 OFFCURVE",
"509 627 OFFCURVE",
"601 627 CURVE SMOOTH",
"626 627 OFFCURVE",
"651 625 OFFCURVE",
"676 624 CURVE",
"661 620 OFFCURVE",
"629 615 OFFCURVE",
"620 601 CURVE SMOOTH",
"599 572 OFFCURVE",
"576 483 OFFCURVE",
"566 446 CURVE SMOOTH",
"522 287 OFFCURVE",
"468 72 OFFCURVE",
"314 -16 CURVE SMOOTH",
"289 -30 OFFCURVE",
"264 -39 OFFCURVE",
"237 -47 CURVE SMOOTH",
"223 -51 OFFCURVE",
"208 -52 OFFCURVE",
"194 -52 CURVE SMOOTH",
"114 -52 OFFCURVE",
"-12 13 OFFCURVE",
"-12 105 CURVE SMOOTH",
"-12 139 OFFCURVE",
"18 177 OFFCURVE",
"53 177 CURVE SMOOTH",
"78 177 OFFCURVE",
"92 151 OFFCURVE",
"103 151 CURVE SMOOTH",
"105 151 OFFCURVE",
"105 152 OFFCURVE",
"105 153 CURVE SMOOTH",
"105 174 OFFCURVE",
"67 190 OFFCURVE",
"54 190 CURVE SMOOTH",
"46 190 OFFCURVE",
"38 190 OFFCURVE",
"33 196 CURVE SMOOTH",
"31 198 OFFCURVE",
"34 208 OFFCURVE",
"25 208 CURVE SMOOTH",
"18 208 OFFCURVE",
"5 196 OFFCURVE",
"0 191 CURVE SMOOTH",
"-16 175 OFFCURVE",
"-28 125 OFFCURVE",
"-28 102 CURVE SMOOTH",
"-28 -13 OFFCURVE",
"69 -79 OFFCURVE",
"176 -79 CURVE SMOOTH"
);
}
);
width = 561;
}
);
leftKerningGroup = J;
note = J;
rightKerningGroup = J;
unicode = 004A;
},
{
color = 3;
glyphname = K;
lastChange = "2022-02-09 11:14:09 +0000";
layers = (
{
anchors = (
{
name = bottom;
position = "{461, 0}";
},
{
name = top;
position = "{852, 685}";
}
);
background = {
paths = (
{
closed = 1;
nodes = (
"263 -100 OFFCURVE",
"382 55 OFFCURVE",
"499 266 CURVE",
"549 162 OFFCURVE",
"663 -34 OFFCURVE",
"796 -34 CURVE SMOOTH",
"842 -34 OFFCURVE",
"871 -8 OFFCURVE",
"886 34 CURVE SMOOTH",
"893 53 OFFCURVE",
"892 73 OFFCURVE",
"896 93 CURVE SMOOTH",
"898 100 OFFCURVE",
"899 107 OFFCURVE",
"899 114 CURVE SMOOTH",
"899 116 OFFCURVE",
"899 129 OFFCURVE",
"896 129 CURVE SMOOTH",
"895 129 LINE",
"881 62 OFFCURVE",
"859 8 OFFCURVE",
"809 8 CURVE SMOOTH",
"705 8 OFFCURVE",
"577 236 OFFCURVE",
"542 318 CURVE",
"661 453 OFFCURVE",
"817 561 OFFCURVE",
"978 639 CURVE SMOOTH",
"1008 653 OFFCURVE",
"1052 673 OFFCURVE",
"1086 673 CURVE SMOOTH",
"1126 673 OFFCURVE",
"1132 643 OFFCURVE",
"1144 643 CURVE SMOOTH",
"1147 643 OFFCURVE",
"1148 645 OFFCURVE",
"1148 648 CURVE SMOOTH",
"1148 668 OFFCURVE",
"1119 686 OFFCURVE",
"1103 692 CURVE SMOOTH",
"1083 700 OFFCURVE",
"1059 705 OFFCURVE",
"1037 705 CURVE SMOOTH",
"1011 705 OFFCURVE",
"987 698 OFFCURVE",
"964 686 CURVE SMOOTH",
"785 597 OFFCURVE",
"662 495 OFFCURVE",
"531 344 CURVE",
"528 351 LINE",
"567 437 OFFCURVE",
"601 525 OFFCURVE",
"644 608 CURVE",
"664 604 OFFCURVE",
"686 599 OFFCURVE",
"706 599 CURVE SMOOTH",
"721 599 OFFCURVE",
"752 619 OFFCURVE",
"752 636 CURVE SMOOTH",
"752 637 OFFCURVE",
"751 638 OFFCURVE",
"750 638 CURVE SMOOTH",
"746 638 OFFCURVE",
"729 623 OFFCURVE",
"712 623 CURVE SMOOTH",
"695 623 OFFCURVE",
"675 629 OFFCURVE",
"658 633 CURVE",
"666 646 OFFCURVE",
"679 667 OFFCURVE",
"693 673 CURVE",
"691 689 OFFCURVE",
"677 698 OFFCURVE",
"662 698 CURVE SMOOTH",
"634 698 OFFCURVE",
"612 672 OFFCURVE",
"601 649 CURVE",
"498 678 OFFCURVE",
"395 711 OFFCURVE",
"288 711 CURVE SMOOTH",
"201 711 OFFCURVE",
"96 688 OFFCURVE",
"48 608 CURVE SMOOTH",
"35 585 OFFCURVE",
"27 560 OFFCURVE",
"27 534 CURVE SMOOTH",
"27 439 OFFCURVE",
"114 391 OFFCURVE",
"199 391 CURVE SMOOTH",
"228 391 OFFCURVE",
"261 397 OFFCURVE",
"278 423 CURVE SMOOTH",
"279 425 OFFCURVE",
"279 427 OFFCURVE",
"279 429 CURVE SMOOTH",
"279 430 OFFCURVE",
"278 432 OFFCURVE",
"276 433 CURVE",
"262 419 OFFCURVE",
"245 410 OFFCURVE",
"225 410 CURVE SMOOTH",
"151 410 OFFCURVE",
"64 453 OFFCURVE",
"64 537 CURVE SMOOTH",
"64 558 OFFCURVE",
"71 578 OFFCURVE",
"82 595 CURVE SMOOTH",
"125 661 OFFCURVE",
"223 676 OFFCURVE",
"295 676 CURVE SMOOTH",
"397 676 OFFCURVE",
"492 649 OFFCURVE",
"589 622 CURVE",
"558 543 OFFCURVE",
"531 462 OFFCURVE",
"499 383 CURVE",
"488 381 OFFCURVE",
"459 375 OFFCURVE",
"459 359 CURVE SMOOTH",
"459 353 OFFCURVE",
"471 327 OFFCURVE",
"474 320 CURVE",
"421 196 OFFCURVE",
"303 -67 OFFCURVE",
"141 -67 CURVE SMOOTH",
"108 -67 OFFCURVE",
"35 -50 OFFCURVE",
"35 -7 CURVE SMOOTH",
"35 19 OFFCURVE",
"64 35 OFFCURVE",
"64 43 CURVE SMOOTH",
"64 44 OFFCURVE",
"63 45 OFFCURVE",
"62 45 CURVE SMOOTH",
"42 45 OFFCURVE",
"25 17 OFFCURVE",
"22 0 CURVE SMOOTH",
"20 -10 OFFCURVE",
"23 -18 OFFCURVE",
"15 -25 CURVE SMOOTH",
"13 -27 OFFCURVE",
"2 -24 OFFCURVE",
"2 -35 CURVE SMOOTH",
"2 -43 OFFCURVE",
"10 -51 OFFCURVE",
"15 -56 CURVE SMOOTH",
"44 -85 OFFCURVE",
"82 -100 OFFCURVE",
"123 -100 CURVE SMOOTH"
);
}
);
};
layerId = "56A77921-5252-498D-AF45-CD2B441B871C";
paths = (
{
closed = 1;
nodes = (
"263 -100 OFFCURVE",
"382 55 OFFCURVE",
"499 266 CURVE",
"549 162 OFFCURVE",
"663 -34 OFFCURVE",
"796 -34 CURVE SMOOTH",
"842 -34 OFFCURVE",
"871 -8 OFFCURVE",
"886 34 CURVE SMOOTH",
"893 53 OFFCURVE",
"892 73 OFFCURVE",
"896 93 CURVE SMOOTH",
"898 100 OFFCURVE",
"899 107 OFFCURVE",
"899 114 CURVE SMOOTH",
"899 116 OFFCURVE",
"899 129 OFFCURVE",
"896 129 CURVE SMOOTH",
"895 129 LINE",
"881 62 OFFCURVE",
"859 8 OFFCURVE",
"809 8 CURVE SMOOTH",
"705 8 OFFCURVE",
"577 236 OFFCURVE",
"542 318 CURVE",
"661 453 OFFCURVE",
"817 561 OFFCURVE",
"978 639 CURVE SMOOTH",
"1008 653 OFFCURVE",
"1052 673 OFFCURVE",
"1086 673 CURVE SMOOTH",
"1126 673 OFFCURVE",
"1132 643 OFFCURVE",
"1144 643 CURVE SMOOTH",
"1147 643 OFFCURVE",
"1148 645 OFFCURVE",
"1148 648 CURVE SMOOTH",
"1148 668 OFFCURVE",
"1119 686 OFFCURVE",
"1103 692 CURVE SMOOTH",
"1083 700 OFFCURVE",
"1059 705 OFFCURVE",
"1037 705 CURVE SMOOTH",
"1011 705 OFFCURVE",
"987 698 OFFCURVE",
"964 686 CURVE SMOOTH",
"785 597 OFFCURVE",
"662 495 OFFCURVE",
"531 344 CURVE",
"528 351 LINE",
"567 437 OFFCURVE",
"601 525 OFFCURVE",
"644 608 CURVE",
"664 604 OFFCURVE",
"686 599 OFFCURVE",
"706 599 CURVE SMOOTH",
"721 599 OFFCURVE",
"752 619 OFFCURVE",
"752 636 CURVE SMOOTH",
"752 637 OFFCURVE",
"751 638 OFFCURVE",
"750 638 CURVE SMOOTH",
"746 638 OFFCURVE",
"729 623 OFFCURVE",
"712 623 CURVE SMOOTH",
"695 623 OFFCURVE",
"675 629 OFFCURVE",
"658 633 CURVE",
"666 646 OFFCURVE",
"679 667 OFFCURVE",
"693 673 CURVE",
"691 689 OFFCURVE",
"677 698 OFFCURVE",
"662 698 CURVE SMOOTH",
"634 698 OFFCURVE",
"612 672 OFFCURVE",
"601 649 CURVE",
"498 678 OFFCURVE",
"395 711 OFFCURVE",
"288 711 CURVE SMOOTH",
"201 711 OFFCURVE",
"96 688 OFFCURVE",
"48 608 CURVE SMOOTH",
"35 585 OFFCURVE",
"27 560 OFFCURVE",
"27 534 CURVE SMOOTH",
"27 439 OFFCURVE",
"114 391 OFFCURVE",
"199 391 CURVE SMOOTH",
"228 391 OFFCURVE",
"261 397 OFFCURVE",
"278 423 CURVE SMOOTH",
"279 425 OFFCURVE",
"279 427 OFFCURVE",
"279 429 CURVE SMOOTH",
"279 430 OFFCURVE",
"278 432 OFFCURVE",
"276 433 CURVE",
"262 419 OFFCURVE",
"245 410 OFFCURVE",
"225 410 CURVE SMOOTH",
"151 410 OFFCURVE",
"64 453 OFFCURVE",
"64 537 CURVE SMOOTH",
"64 558 OFFCURVE",
"71 578 OFFCURVE",
"82 595 CURVE SMOOTH",
"125 661 OFFCURVE",
"223 676 OFFCURVE",
"295 676 CURVE SMOOTH",
"397 676 OFFCURVE",
"492 649 OFFCURVE",
"589 622 CURVE",
"558 543 OFFCURVE",
"531 462 OFFCURVE",
"499 383 CURVE",
"488 381 OFFCURVE",
"459 375 OFFCURVE",
"459 359 CURVE SMOOTH",
"459 353 OFFCURVE",
"471 327 OFFCURVE",
"474 320 CURVE",
"421 196 OFFCURVE",
"303 -67 OFFCURVE",
"141 -67 CURVE SMOOTH",
"108 -67 OFFCURVE",
"35 -50 OFFCURVE",
"35 -7 CURVE SMOOTH",
"35 19 OFFCURVE",
"64 35 OFFCURVE",
"64 43 CURVE SMOOTH",
"64 44 OFFCURVE",
"63 45 OFFCURVE",
"62 45 CURVE SMOOTH",
"42 45 OFFCURVE",
"25 17 OFFCURVE",
"22 0 CURVE SMOOTH",
"20 -10 OFFCURVE",
"23 -18 OFFCURVE",
"15 -25 CURVE SMOOTH",
"13 -27 OFFCURVE",
"2 -24 OFFCURVE",
"2 -35 CURVE SMOOTH",
"2 -43 OFFCURVE",
"10 -51 OFFCURVE",
"15 -56 CURVE SMOOTH",
"44 -85 OFFCURVE",
"82 -100 OFFCURVE",
"123 -100 CURVE SMOOTH"
);
}
);
width = 896;
}
);
leftKerningGroup = K;
note = K;
rightKerningGroup = K;
unicode = 004B;
},
{
color = 1;
glyphname = L;
lastChange = "2022-02-09 19:55:59 +0000";
layers = (
{
anchors = (
{
name = bottom;
position = "{394, 0}";
},
{
name = center;
position = "{504, 450}";
},
{
name = top;
position = "{784, 735}";
},
{
name = topright;
position = "{867, 700}";
}
);
background = {
paths = (
{
closed = 1;
nodes = (
"817 -36 OFFCURVE",
"885 -8 OFFCURVE",
"898 86 CURVE SMOOTH",
"898 87 OFFCURVE",
"898 89 OFFCURVE",
"898 90 CURVE SMOOTH",
"898 101 OFFCURVE",
"886 131 OFFCURVE",
"873 131 CURVE SMOOTH",
"869 131 OFFCURVE",
"869 128 OFFCURVE",
"869 125 CURVE SMOOTH",
"869 114 OFFCURVE",
"873 104 OFFCURVE",
"873 92 CURVE SMOOTH",
"873 11 OFFCURVE",
"753 -1 OFFCURVE",
"693 -1 CURVE SMOOTH",
"586 -1 OFFCURVE",
"469 41 OFFCURVE",
"370 78 CURVE",
"403 114 OFFCURVE",
"434 182 OFFCURVE",
"453 227 CURVE",
"609 262 OFFCURVE",
"727 416 OFFCURVE",
"778 560 CURVE SMOOTH",
"782 572 OFFCURVE",
"801 632 OFFCURVE",
"801 642 CURVE SMOOTH",
"801 648 OFFCURVE",
"793 648 OFFCURVE",
"790 648 CURVE SMOOTH",
"783 648 OFFCURVE",
"754 644 OFFCURVE",
"752 636 CURVE SMOOTH",
"748 622 OFFCURVE",
"745 608 OFFCURVE",
"742 594 CURVE SMOOTH",
"736 574 OFFCURVE",
"730 554 OFFCURVE",
"724 535 CURVE SMOOTH",
"680 410 OFFCURVE",
"604 287 OFFCURVE",
"466 257 CURVE",
"517 390 OFFCURVE",
"545 515 OFFCURVE",
"626 638 CURVE SMOOTH",
"654 680 OFFCURVE",
"705 721 OFFCURVE",
"759 721 CURVE SMOOTH",
"779 721 OFFCURVE",
"831 694 OFFCURVE",
"831 671 CURVE SMOOTH",
"831 659 OFFCURVE",
"826 648 OFFCURVE",
"826 636 CURVE SMOOTH",
"826 634 OFFCURVE",
"826 630 OFFCURVE",
"829 630 CURVE SMOOTH",
"840 630 OFFCURVE",
"845 651 OFFCURVE",
"845 659 CURVE SMOOTH",
"845 680 OFFCURVE",
"831 696 OFFCURVE",
"831 705 CURVE SMOOTH",
"831 713 OFFCURVE",
"840 709 OFFCURVE",
"840 716 CURVE SMOOTH",
"840 725 OFFCURVE",
"817 734 OFFCURVE",
"811 736 CURVE SMOOTH",
"802 740 OFFCURVE",
"792 741 OFFCURVE",
"782 741 CURVE SMOOTH",
"770 741 OFFCURVE",
"757 740 OFFCURVE",
"745 738 CURVE SMOOTH",
"683 728 OFFCURVE",
"617 694 OFFCURVE",
"578 643 CURVE SMOOTH",
"484 519 OFFCURVE",
"463 396 OFFCURVE",
"413 255 CURVE",
"405 254 OFFCURVE",
"397 254 OFFCURVE",
"388 254 CURVE SMOOTH",
"353 254 OFFCURVE",
"290 279 OFFCURVE",
"290 321 CURVE SMOOTH",
"290 343 OFFCURVE",
"314 363 OFFCURVE",
"314 372 CURVE SMOOTH",
"314 373 OFFCURVE",
"313 374 OFFCURVE",
"312 374 CURVE SMOOTH",
"292 374 OFFCURVE",
"275 336 OFFCURVE",
"275 319 CURVE SMOOTH",
"275 313 OFFCURVE",
"276 308 OFFCURVE",
"276 303 CURVE SMOOTH",
"276 282 OFFCURVE",
"258 294 OFFCURVE",
"258 279 CURVE SMOOTH",
"258 270 OFFCURVE",
"270 261 OFFCURVE",
"277 257 CURVE",
"308 233 OFFCURVE",
"348 224 OFFCURVE",
"386 224 CURVE SMOOTH",
"391 224 OFFCURVE",
"397 224 OFFCURVE",
"402 224 CURVE",
"384 179 OFFCURVE",
"363 136 OFFCURVE",
"336 95 CURVE",
"287 121 OFFCURVE",
"89 195 OFFCURVE",
"40 195 CURVE SMOOTH",
"10 195 OFFCURVE",
"-1 166 OFFCURVE",
"-1 140 CURVE SMOOTH",
"-1 118 OFFCURVE",
"5 96 OFFCURVE",
"15 77 CURVE SMOOTH",
"50 7 OFFCURVE",
"122 -26 OFFCURVE",
"198 -26 CURVE SMOOTH",
"250 -26 OFFCURVE",
"316 24 OFFCURVE",
"352 59 CURVE",
"462 16 OFFCURVE",
"613 -36 OFFCURVE",
"730 -36 CURVE SMOOTH"
);
},
{
closed = 1;
nodes = (
"183 0 OFFCURVE",
"164 6 OFFCURVE",
"145 15 CURVE SMOOTH",
"108 33 OFFCURVE",
"40 87 OFFCURVE",
"40 132 CURVE SMOOTH",
"40 151 OFFCURVE",
"54 156 OFFCURVE",
"70 156 CURVE SMOOTH",
"125 156 OFFCURVE",
"271 101 OFFCURVE",
"321 73 CURVE",
"295 42 OFFCURVE",
"252 -3 OFFCURVE",
"210 -3 CURVE SMOOTH",
"208 -3 OFFCURVE",
"206 -3 OFFCURVE",
"204 -3 CURVE SMOOTH"
);
}
);
};
layerId = "56A77921-5252-498D-AF45-CD2B441B871C";
paths = (
{
closed = 1;
nodes = (
"817 -36 OFFCURVE",
"885 -8 OFFCURVE",
"898 86 CURVE",
"898 90 LINE SMOOTH",
"898 101 OFFCURVE",
"886 131 OFFCURVE",
"873 131 CURVE SMOOTH",
"869 131 OFFCURVE",
"869 128 OFFCURVE",
"869 125 CURVE SMOOTH",
"869 114 OFFCURVE",
"873 104 OFFCURVE",
"873 92 CURVE SMOOTH",
"873 11 OFFCURVE",
"753 -1 OFFCURVE",
"693 -1 CURVE SMOOTH",
"586 -1 OFFCURVE",
"469 41 OFFCURVE",
"370 78 CURVE",
"403 114 OFFCURVE",
"434 182 OFFCURVE",
"453 227 CURVE",
"609 262 OFFCURVE",
"727 416 OFFCURVE",
"778 560 CURVE SMOOTH",
"782 572 OFFCURVE",
"801 632 OFFCURVE",
"801 642 CURVE SMOOTH",
"801 648 OFFCURVE",
"793 648 OFFCURVE",
"790 648 CURVE SMOOTH",
"783 648 OFFCURVE",
"754 644 OFFCURVE",
"752 636 CURVE SMOOTH",
"748 622 OFFCURVE",
"745 608 OFFCURVE",
"742 594 CURVE",
"724 535 LINE SMOOTH",
"685 408 OFFCURVE",
"604 287 OFFCURVE",
"466 257 CURVE",
"517 390 OFFCURVE",
"545 515 OFFCURVE",
"626 638 CURVE SMOOTH",
"654 680 OFFCURVE",
"705 721 OFFCURVE",
"759 721 CURVE SMOOTH",
"779 721 OFFCURVE",
"831 694 OFFCURVE",
"831 671 CURVE SMOOTH",
"831 659 OFFCURVE",
"826 648 OFFCURVE",
"826 636 CURVE SMOOTH",
"826 634 OFFCURVE",
"826 630 OFFCURVE",
"829 630 CURVE SMOOTH",
"840 630 OFFCURVE",
"845 651 OFFCURVE",
"845 659 CURVE SMOOTH",
"845 680 OFFCURVE",
"831 696 OFFCURVE",
"831 705 CURVE SMOOTH",
"831 713 OFFCURVE",
"840 709 OFFCURVE",
"840 716 CURVE SMOOTH",
"840 725 OFFCURVE",
"817 734 OFFCURVE",
"811 736 CURVE SMOOTH",
"802 740 OFFCURVE",
"792 741 OFFCURVE",
"782 741 CURVE SMOOTH",
"770 741 OFFCURVE",
"757 740 OFFCURVE",
"745 738 CURVE SMOOTH",
"683 728 OFFCURVE",
"617 694 OFFCURVE",
"578 643 CURVE SMOOTH",
"484 519 OFFCURVE",
"463 396 OFFCURVE",
"413 255 CURVE",
"405 254 OFFCURVE",
"397 254 OFFCURVE",
"388 254 CURVE SMOOTH",
"353 254 OFFCURVE",
"290 279 OFFCURVE",
"290 321 CURVE SMOOTH",
"290 343 OFFCURVE",
"314 363 OFFCURVE",
"314 372 CURVE SMOOTH",
"314 373 OFFCURVE",
"313 374 OFFCURVE",
"312 374 CURVE SMOOTH",
"292 374 OFFCURVE",
"275 336 OFFCURVE",
"275 319 CURVE SMOOTH",
"275 313 OFFCURVE",
"276 308 OFFCURVE",
"276 303 CURVE SMOOTH",
"276 282 OFFCURVE",
"258 294 OFFCURVE",
"258 279 CURVE SMOOTH",
"258 270 OFFCURVE",
"270 261 OFFCURVE",
"277 257 CURVE",
"308 233 OFFCURVE",
"348 224 OFFCURVE",
"386 224 CURVE SMOOTH",
"402 224 LINE",
"384 179 OFFCURVE",
"363 136 OFFCURVE",
"336 95 CURVE",
"287 121 OFFCURVE",
"89 195 OFFCURVE",
"40 195 CURVE SMOOTH",
"10 195 OFFCURVE",
"-1 166 OFFCURVE",
"-1 140 CURVE SMOOTH",
"-1 118 OFFCURVE",
"5 96 OFFCURVE",
"15 77 CURVE SMOOTH",
"50 7 OFFCURVE",
"122 -26 OFFCURVE",
"198 -26 CURVE SMOOTH",
"250 -26 OFFCURVE",
"316 24 OFFCURVE",
"352 59 CURVE",
"462 16 OFFCURVE",
"613 -36 OFFCURVE",
"730 -36 CURVE SMOOTH"
);
},
{
closed = 1;
nodes = (
"204 -3 LINE",
"183 0 OFFCURVE",
"164 6 OFFCURVE",
"145 15 CURVE SMOOTH",
"108 33 OFFCURVE",
"40 87 OFFCURVE",
"40 132 CURVE SMOOTH",
"40 151 OFFCURVE",
"54 156 OFFCURVE",
"70 156 CURVE SMOOTH",
"125 156 OFFCURVE",
"271 101 OFFCURVE",
"321 73 CURVE",
"295 42 OFFCURVE",
"252 -3 OFFCURVE",
"210 -3 CURVE SMOOTH"
);
}
);
width = 887;
}
);
leftKerningGroup = L;
note = L;
rightKerningGroup = L;
unicode = 004C;
},
{
glyphname = Lslash;
lastChange = "2022-02-09 10:51:45 +0000";
layers = (
{
anchors = (
{
name = bottom;
position = "{394, 0}";
},
{
name = center;
position = "{504, 450}";
},
{
name = top;
position = "{754, 645}";
},
{
name = topright;
position = "{867, 700}";
}
);
background = {
components = (
{
name = L;
},
{
name = strokeshortcomb;
transform = "{0.99452, 0.10453, -0.10453, 0.99452, 293, 57}";
}
);
};
layerId = "56A77921-5252-498D-AF45-CD2B441B871C";
paths = (
{
closed = 1;
nodes = (
"817 -36 OFFCURVE",
"885 -8 OFFCURVE",
"898 86 CURVE",
"898 90 LINE SMOOTH",
"898 101 OFFCURVE",
"886 131 OFFCURVE",
"873 131 CURVE SMOOTH",
"869 131 OFFCURVE",
"869 128 OFFCURVE",
"869 125 CURVE SMOOTH",
"869 114 OFFCURVE",
"873 104 OFFCURVE",
"873 92 CURVE SMOOTH",
"873 11 OFFCURVE",
"753 -1 OFFCURVE",
"693 -1 CURVE SMOOTH",
"586 -1 OFFCURVE",
"469 41 OFFCURVE",
"370 78 CURVE",
"403 114 OFFCURVE",
"434 182 OFFCURVE",
"453 227 CURVE",
"609 262 OFFCURVE",
"727 416 OFFCURVE",
"778 560 CURVE SMOOTH",
"782 572 OFFCURVE",
"801 632 OFFCURVE",
"801 642 CURVE SMOOTH",
"801 648 OFFCURVE",
"793 648 OFFCURVE",
"790 648 CURVE SMOOTH",
"783 648 OFFCURVE",
"754 644 OFFCURVE",
"752 636 CURVE SMOOTH",
"748 622 OFFCURVE",
"745 608 OFFCURVE",
"742 594 CURVE",
"724 535 LINE SMOOTH",
"685 408 OFFCURVE",
"604 287 OFFCURVE",
"466 257 CURVE",
"517 390 OFFCURVE",
"545 515 OFFCURVE",
"626 638 CURVE SMOOTH",
"654 680 OFFCURVE",
"705 721 OFFCURVE",
"759 721 CURVE SMOOTH",
"779 721 OFFCURVE",
"831 694 OFFCURVE",
"831 671 CURVE SMOOTH",
"831 659 OFFCURVE",
"826 648 OFFCURVE",
"826 636 CURVE SMOOTH",
"826 634 OFFCURVE",
"826 630 OFFCURVE",
"829 630 CURVE SMOOTH",
"840 630 OFFCURVE",
"845 651 OFFCURVE",
"845 659 CURVE SMOOTH",
"845 680 OFFCURVE",
"831 696 OFFCURVE",
"831 705 CURVE SMOOTH",
"831 713 OFFCURVE",
"840 709 OFFCURVE",
"840 716 CURVE SMOOTH",
"840 725 OFFCURVE",
"817 734 OFFCURVE",
"811 736 CURVE SMOOTH",
"802 740 OFFCURVE",
"792 741 OFFCURVE",
"782 741 CURVE SMOOTH",
"770 741 OFFCURVE",
"757 740 OFFCURVE",
"745 738 CURVE SMOOTH",
"683 728 OFFCURVE",
"617 694 OFFCURVE",
"578 643 CURVE SMOOTH",
"484 519 OFFCURVE",
"463 396 OFFCURVE",
"413 255 CURVE",
"405 254 OFFCURVE",
"397 254 OFFCURVE",
"388 254 CURVE SMOOTH",
"353 254 OFFCURVE",
"290 279 OFFCURVE",
"290 321 CURVE SMOOTH",
"290 343 OFFCURVE",
"314 363 OFFCURVE",
"314 372 CURVE SMOOTH",
"314 373 OFFCURVE",
"313 374 OFFCURVE",
"312 374 CURVE SMOOTH",
"292 374 OFFCURVE",
"275 336 OFFCURVE",
"275 319 CURVE SMOOTH",
"275 313 OFFCURVE",
"276 308 OFFCURVE",
"276 303 CURVE SMOOTH",
"276 282 OFFCURVE",
"258 294 OFFCURVE",
"258 279 CURVE SMOOTH",
"258 270 OFFCURVE",
"270 261 OFFCURVE",
"277 257 CURVE",
"308 233 OFFCURVE",
"348 224 OFFCURVE",
"386 224 CURVE SMOOTH",
"402 224 LINE",
"384 179 OFFCURVE",
"363 136 OFFCURVE",
"336 95 CURVE",
"287 121 OFFCURVE",
"89 195 OFFCURVE",
"40 195 CURVE SMOOTH",
"10 195 OFFCURVE",
"-1 166 OFFCURVE",
"-1 140 CURVE SMOOTH",
"-1 118 OFFCURVE",
"5 96 OFFCURVE",
"15 77 CURVE SMOOTH",
"50 7 OFFCURVE",
"122 -26 OFFCURVE",
"198 -26 CURVE SMOOTH",
"250 -26 OFFCURVE",
"316 24 OFFCURVE",
"352 59 CURVE",
"462 16 OFFCURVE",
"613 -36 OFFCURVE",
"730 -36 CURVE SMOOTH"
);
},
{
closed = 1;
nodes = (
"204 -3 LINE",
"183 0 OFFCURVE",
"164 6 OFFCURVE",
"145 15 CURVE SMOOTH",
"108 33 OFFCURVE",
"40 87 OFFCURVE",
"40 132 CURVE SMOOTH",
"40 151 OFFCURVE",
"54 156 OFFCURVE",
"70 156 CURVE SMOOTH",
"125 156 OFFCURVE",
"271 101 OFFCURVE",
"321 73 CURVE",
"295 42 OFFCURVE",
"252 -3 OFFCURVE",
"210 -3 CURVE SMOOTH"
);
},
{
closed = 1;
nodes = (
"448 426 OFFCURVE",
"476 432 OFFCURVE",
"503 437 CURVE SMOOTH",
"536 442 OFFCURVE",
"570 448 OFFCURVE",
"604 451 CURVE SMOOTH",
"612 452 OFFCURVE",
"614 461 OFFCURVE",
"614 464 CURVE SMOOTH",
"614 469 OFFCURVE",
"594 471 OFFCURVE",
"571 471 CURVE SMOOTH",
"544 471 OFFCURVE",
"512 469 OFFCURVE",
"497 467 CURVE SMOOTH",
"475 465 OFFCURVE",
"412 459 OFFCURVE",
"396 449 CURVE",
"394 447 LINE",
"396 439 OFFCURVE",
"411 422 OFFCURVE",
"418 423 CURVE SMOOTH"
);
}
);
width = 887;
}
);
leftKerningGroup = L;
rightKerningGroup = L;
unicode = 0141;
},
{
glyphname = M;
lastChange = "2022-02-09 11:14:24 +0000";
layers = (
{
background = {
paths = (
{
closed = 1;
nodes = (
"230 -120 OFFCURVE",
"253 -117 OFFCURVE",
"273 -109 CURVE SMOOTH",
"417 -52 OFFCURVE",
"519 120 OFFCURVE",
"575 257 CURVE SMOOTH",
"608 339 OFFCURVE",
"636 424 OFFCURVE",
"664 508 CURVE",
"724 385 OFFCURVE",
"741 210 OFFCURVE",
"741 74 CURVE SMOOTH",
"741 49 OFFCURVE",
"740 23 OFFCURVE",
"739 -3 CURVE",
"759 3 OFFCURVE",
"764 13 OFFCURVE",
"776 28 CURVE SMOOTH",
"784 37 OFFCURVE",
"817 45 OFFCURVE",
"817 57 CURVE SMOOTH",
"817 70 OFFCURVE",
"822 90 OFFCURVE",
"827 102 CURVE SMOOTH",
"892 274 OFFCURVE",
"1030 439 OFFCURVE",
"1174 548 CURVE",
"1110 420 OFFCURVE",
"1013 148 OFFCURVE",
"1013 18 CURVE SMOOTH",
"1013 -17 OFFCURVE",
"1016 -59 OFFCURVE",
"1060 -59 CURVE SMOOTH",
"1087 -59 OFFCURVE",
"1148 -38 OFFCURVE",
"1148 -6 CURVE SMOOTH",
"1148 -4 OFFCURVE",
"1148 -2 OFFCURVE",
"1146 -1 CURVE",
"1135 -5 OFFCURVE",
"1130 -28 OFFCURVE",
"1107 -28 CURVE SMOOTH",
"1069 -28 OFFCURVE",
"1066 5 OFFCURVE",
"1066 36 CURVE SMOOTH",
"1066 153 OFFCURVE",
"1174 492 OFFCURVE",
"1246 596 CURVE",
"1277 613 OFFCURVE",
"1311 627 OFFCURVE",
"1347 627 CURVE SMOOTH",
"1431 627 OFFCURVE",
"1384 547 OFFCURVE",
"1409 532 CURVE",
"1410 532 OFFCURVE",
"1410 532 OFFCURVE",
"1411 532 CURVE SMOOTH",
"1415 532 OFFCURVE",
"1420 550 OFFCURVE",
"1421 553 CURVE SMOOTH",
"1426 568 OFFCURVE",
"1429 585 OFFCURVE",
"1436 600 CURVE SMOOTH",
"1439 606 OFFCURVE",
"1442 611 OFFCURVE",
"1445 617 CURVE SMOOTH",
"1446 620 OFFCURVE",
"1448 625 OFFCURVE",
"1448 628 CURVE SMOOTH",
"1448 647 OFFCURVE",
"1389 653 OFFCURVE",
"1374 653 CURVE SMOOTH",
"1333 653 OFFCURVE",
"1292 639 OFFCURVE",
"1255 623 CURVE",
"1253 624 OFFCURVE",
"1236 631 OFFCURVE",
"1234 631 CURVE SMOOTH",
"1227 631 OFFCURVE",
"1222 629 OFFCURVE",
"1216 625 CURVE",
"1209 614 OFFCURVE",
"1203 604 OFFCURVE",
"1197 593 CURVE",
"1196 592 OFFCURVE",
"1194 591 OFFCURVE",
"1193 590 CURVE SMOOTH",
"1166 572 OFFCURVE",
"1140 555 OFFCURVE",
"1115 535 CURVE SMOOTH",
"985 430 OFFCURVE",
"871 272 OFFCURVE",
"790 127 CURVE",
"797 264 OFFCURVE",
"758 453 OFFCURVE",
"681 566 CURVE",
"686 586 OFFCURVE",
"692 608 OFFCURVE",
"692 628 CURVE SMOOTH",
"692 632 OFFCURVE",
"692 634 OFFCURVE",
"687 634 CURVE SMOOTH",
"681 634 OFFCURVE",
"658 607 OFFCURVE",
"653 602 CURVE",
"581 684 OFFCURVE",
"428 751 OFFCURVE",
"320 751 CURVE SMOOTH",
"251 751 OFFCURVE",
"187 722 OFFCURVE",
"170 649 CURVE SMOOTH",
"166 632 OFFCURVE",
"162 615 OFFCURVE",
"162 597 CURVE SMOOTH",
"162 589 OFFCURVE",
"165 555 OFFCURVE",
"177 555 CURVE SMOOTH",
"183 555 OFFCURVE",
"184 571 OFFCURVE",
"184 576 CURVE SMOOTH",
"184 587 OFFCURVE",
"183 599 OFFCURVE",
"183 610 CURVE SMOOTH",
"183 686 OFFCURVE",
"245 711 OFFCURVE",
"310 711 CURVE SMOOTH",
"401 711 OFFCURVE",
"509 670 OFFCURVE",
"581 615 CURVE SMOOTH",
"600 600 OFFCURVE",
"616 583 OFFCURVE",
"631 564 CURVE",
"629 549 OFFCURVE",
"624 533 OFFCURVE",
"620 518 CURVE SMOOTH",
"598 443 OFFCURVE",
"568 369 OFFCURVE",
"539 297 CURVE SMOOTH",
"490 177 OFFCURVE",
"364 -100 OFFCURVE",
"210 -100 CURVE SMOOTH",
"99 -100 OFFCURVE",
"51 33 OFFCURVE",
"41 125 CURVE SMOOTH",
"39 143 OFFCURVE",
"41 178 OFFCURVE",
"35 193 CURVE",
"35 194 OFFCURVE",
"33 195 OFFCURVE",
"33 195 CURVE",
"18 195 OFFCURVE",
"16 119 OFFCURVE",
"16 107 CURVE SMOOTH",
"16 63 OFFCURVE",
"23 17 OFFCURVE",
"42 -23 CURVE SMOOTH",
"71 -86 OFFCURVE",
"141 -120 OFFCURVE",
"209 -120 CURVE SMOOTH"
);
}
);
};
layerId = "56A77921-5252-498D-AF45-CD2B441B871C";
paths = (
{
closed = 1;
nodes = (
"230 -120 OFFCURVE",
"253 -117 OFFCURVE",
"273 -109 CURVE SMOOTH",
"417 -52 OFFCURVE",
"519 120 OFFCURVE",
"575 257 CURVE SMOOTH",
"608 339 OFFCURVE",
"636 424 OFFCURVE",
"664 508 CURVE",
"724 385 OFFCURVE",
"741 210 OFFCURVE",
"741 74 CURVE SMOOTH",
"741 49 OFFCURVE",
"740 23 OFFCURVE",
"739 -3 CURVE",
"759 3 OFFCURVE",
"764 13 OFFCURVE",
"776 28 CURVE SMOOTH",
"784 37 OFFCURVE",
"817 45 OFFCURVE",
"817 57 CURVE SMOOTH",
"817 70 OFFCURVE",
"822 90 OFFCURVE",
"827 102 CURVE SMOOTH",
"892 274 OFFCURVE",
"1030 439 OFFCURVE",
"1174 548 CURVE",
"1110 420 OFFCURVE",
"1013 148 OFFCURVE",
"1013 18 CURVE SMOOTH",
"1013 -17 OFFCURVE",
"1016 -59 OFFCURVE",
"1060 -59 CURVE SMOOTH",
"1087 -59 OFFCURVE",
"1148 -38 OFFCURVE",
"1148 -6 CURVE SMOOTH",
"1148 -4 OFFCURVE",
"1148 -2 OFFCURVE",
"1146 -1 CURVE",
"1135 -5 OFFCURVE",
"1130 -28 OFFCURVE",
"1107 -28 CURVE SMOOTH",
"1069 -28 OFFCURVE",
"1066 5 OFFCURVE",
"1066 36 CURVE SMOOTH",
"1066 153 OFFCURVE",
"1174 492 OFFCURVE",
"1246 596 CURVE",
"1277 613 OFFCURVE",
"1311 627 OFFCURVE",
"1347 627 CURVE SMOOTH",
"1406 627 OFFCURVE",
"1400 588 OFFCURVE",
"1400 560 CURVE SMOOTH",
"1400 547 OFFCURVE",
"1401 537 OFFCURVE",
"1409 532 CURVE",
"1411 532 LINE SMOOTH",
"1415 532 OFFCURVE",
"1420 550 OFFCURVE",
"1421 553 CURVE SMOOTH",
"1426 568 OFFCURVE",
"1429 585 OFFCURVE",
"1436 600 CURVE SMOOTH",
"1445 617 LINE",
"1446 620 OFFCURVE",
"1448 625 OFFCURVE",
"1448 628 CURVE SMOOTH",
"1448 647 OFFCURVE",
"1389 653 OFFCURVE",
"1374 653 CURVE SMOOTH",
"1333 653 OFFCURVE",
"1292 639 OFFCURVE",
"1255 623 CURVE",
"1253 624 OFFCURVE",
"1236 631 OFFCURVE",
"1234 631 CURVE SMOOTH",
"1227 631 OFFCURVE",
"1222 629 OFFCURVE",
"1216 625 CURVE",
"1209 614 OFFCURVE",
"1203 604 OFFCURVE",
"1197 593 CURVE",
"1193 590 LINE SMOOTH",
"1166 572 OFFCURVE",
"1140 555 OFFCURVE",
"1115 535 CURVE SMOOTH",
"985 430 OFFCURVE",
"871 272 OFFCURVE",
"790 127 CURVE",
"791 137 OFFCURVE",
"791 148 OFFCURVE",
"791 159 CURVE SMOOTH",
"791 293 OFFCURVE",
"752 462 OFFCURVE",
"681 566 CURVE",
"686 586 OFFCURVE",
"692 608 OFFCURVE",
"692 628 CURVE SMOOTH",
"692 632 OFFCURVE",
"692 634 OFFCURVE",
"687 634 CURVE SMOOTH",
"681 634 OFFCURVE",
"658 607 OFFCURVE",
"653 602 CURVE",
"581 684 OFFCURVE",
"428 751 OFFCURVE",
"320 751 CURVE SMOOTH",
"251 751 OFFCURVE",
"187 722 OFFCURVE",
"170 649 CURVE SMOOTH",
"166 632 OFFCURVE",
"162 615 OFFCURVE",
"162 597 CURVE SMOOTH",
"162 589 OFFCURVE",
"165 555 OFFCURVE",
"177 555 CURVE SMOOTH",
"183 555 OFFCURVE",
"184 571 OFFCURVE",
"184 576 CURVE SMOOTH",
"184 587 OFFCURVE",
"183 599 OFFCURVE",
"183 610 CURVE SMOOTH",
"183 686 OFFCURVE",
"245 711 OFFCURVE",
"310 711 CURVE SMOOTH",
"401 711 OFFCURVE",
"509 670 OFFCURVE",
"581 615 CURVE SMOOTH",
"600 600 OFFCURVE",
"616 583 OFFCURVE",
"631 564 CURVE",
"629 549 OFFCURVE",
"624 533 OFFCURVE",
"620 518 CURVE SMOOTH",
"598 443 OFFCURVE",
"568 369 OFFCURVE",
"539 297 CURVE SMOOTH",
"490 177 OFFCURVE",
"364 -100 OFFCURVE",
"210 -100 CURVE SMOOTH",
"99 -100 OFFCURVE",
"51 33 OFFCURVE",
"41 125 CURVE SMOOTH",
"39 143 OFFCURVE",
"41 178 OFFCURVE",
"35 193 CURVE",
"35 194 OFFCURVE",
"33 195 OFFCURVE",
"33 195 CURVE",
"18 195 OFFCURVE",
"16 119 OFFCURVE",
"16 107 CURVE SMOOTH",
"16 63 OFFCURVE",
"23 17 OFFCURVE",
"42 -23 CURVE SMOOTH",
"71 -86 OFFCURVE",
"141 -120 OFFCURVE",
"209 -120 CURVE SMOOTH"
);
}
);
width = 1165;
}
);
leftKerningGroup = M;
note = M;
rightKerningGroup = M;
unicode = 004D;
},
{
color = 3;
glyphname = N;
lastChange = "2022-02-09 10:51:45 +0000";
layers = (
{
anchors = (
{
name = bottom;
position = "{669, 0}";
},
{
name = top;
position = "{1002, 685}";
}
);
background = {
paths = (
{
closed = 1;
nodes = (
"251 -147 OFFCURVE",
"276 -144 OFFCURVE",
"299 -136 CURVE SMOOTH",
"456 -80 OFFCURVE",
"565 88 OFFCURVE",
"630 233 CURVE SMOOTH",
"661 302 OFFCURVE",
"690 372 OFFCURVE",
"717 443 CURVE",
"755 344 OFFCURVE",
"792 245 OFFCURVE",
"831 147 CURVE SMOOTH",
"855 85 OFFCURVE",
"884 7 OFFCURVE",
"927 -43 CURVE SMOOTH",
"970 -93 OFFCURVE",
"1006 -92 OFFCURVE",
"1031 -92 CURVE SMOOTH",
"1063 -92 OFFCURVE",
"1134 -75 OFFCURVE",
"1134 -33 CURVE SMOOTH",
"1134 -24 OFFCURVE",
"1129 -19 OFFCURVE",
"1120 -19 CURVE SMOOTH",
"1098 -19 OFFCURVE",
"1087 -69 OFFCURVE",
"1046 -69 CURVE SMOOTH",
"1017 -69 OFFCURVE",
"989 -43 OFFCURVE",
"978 -23 CURVE",
"977 -16 OFFCURVE",
"976 -8 OFFCURVE",
"976 0 CURVE SMOOTH",
"976 136 OFFCURVE",
"1113 531 OFFCURVE",
"1185 632 CURVE SMOOTH",
"1207 662 OFFCURVE",
"1253 705 OFFCURVE",
"1292 705 CURVE SMOOTH",
"1316 705 OFFCURVE",
"1320 687 OFFCURVE",
"1332 682 CURVE",
"1333 682 OFFCURVE",
"1334 684 OFFCURVE",
"1334 685 CURVE SMOOTH",
"1334 689 OFFCURVE",
"1331 693 OFFCURVE",
"1329 696 CURVE SMOOTH",
"1318 713 OFFCURVE",
"1289 720 OFFCURVE",
"1269 720 CURVE SMOOTH",
"1132 720 OFFCURVE",
"1043 438 OFFCURVE",
"1007 334 CURVE SMOOTH",
"976 241 OFFCURVE",
"947 146 OFFCURVE",
"931 50 CURVE",
"912 85 OFFCURVE",
"896 123 OFFCURVE",
"880 160 CURVE SMOOTH",
"834 270 OFFCURVE",
"791 380 OFFCURVE",
"746 490 CURVE SMOOTH",
"744 496 OFFCURVE",
"741 502 OFFCURVE",
"739 508 CURVE",
"745 526 OFFCURVE",
"753 555 OFFCURVE",
"753 574 CURVE SMOOTH",
"753 578 OFFCURVE",
"747 582 OFFCURVE",
"743 582 CURVE SMOOTH",
"736 582 OFFCURVE",
"721 569 OFFCURVE",
"713 564 CURVE",
"669 649 OFFCURVE",
"591 743 OFFCURVE",
"486 743 CURVE SMOOTH",
"405 743 OFFCURVE",
"328 681 OFFCURVE",
"292 611 CURVE SMOOTH",
"280 587 OFFCURVE",
"267 562 OFFCURVE",
"267 535 CURVE SMOOTH",
"267 532 OFFCURVE",
"268 513 OFFCURVE",
"275 513 CURVE SMOOTH",
"279 513 OFFCURVE",
"282 519 OFFCURVE",
"283 522 CURVE SMOOTH",
"287 530 OFFCURVE",
"288 538 OFFCURVE",
"290 546 CURVE SMOOTH",
"296 569 OFFCURVE",
"301 593 OFFCURVE",
"313 614 CURVE SMOOTH",
"345 670 OFFCURVE",
"399 709 OFFCURVE",
"465 709 CURVE SMOOTH",
"579 709 OFFCURVE",
"647 606 OFFCURVE",
"689 513 CURVE",
"666 431 OFFCURVE",
"631 349 OFFCURVE",
"596 271 CURVE SMOOTH",
"537 140 OFFCURVE",
"396 -128 OFFCURVE",
"229 -128 CURVE SMOOTH",
"110 -128 OFFCURVE",
"51 -4 OFFCURVE",
"38 98 CURVE SMOOTH",
"37 105 OFFCURVE",
"37 112 OFFCURVE",
"37 119 CURVE SMOOTH",
"37 140 LINE",
"36 145 OFFCURVE",
"34 170 OFFCURVE",
"28 170 CURVE SMOOTH",
"14 170 OFFCURVE",
"11 94 OFFCURVE",
"11 82 CURVE SMOOTH",
"11 37 OFFCURVE",
"19 -10 OFFCURVE",
"40 -50 CURVE SMOOTH",
"74 -117 OFFCURVE",
"155 -147 OFFCURVE",
"227 -147 CURVE SMOOTH"
);
}
);
};
layerId = "56A77921-5252-498D-AF45-CD2B441B871C";
paths = (
{
closed = 1;
nodes = (
"251 -147 OFFCURVE",
"276 -144 OFFCURVE",
"299 -136 CURVE SMOOTH",
"456 -80 OFFCURVE",
"565 88 OFFCURVE",
"630 233 CURVE SMOOTH",
"661 302 OFFCURVE",
"690 372 OFFCURVE",
"717 443 CURVE",
"755 344 OFFCURVE",
"792 245 OFFCURVE",
"831 147 CURVE SMOOTH",
"855 85 OFFCURVE",
"884 7 OFFCURVE",
"927 -43 CURVE SMOOTH",
"968 -91 OFFCURVE",
"1003 -92 OFFCURVE",
"1028 -92 CURVE SMOOTH",
"1058 -92 OFFCURVE",
"1134 -76 OFFCURVE",
"1134 -33 CURVE SMOOTH",
"1134 -24 OFFCURVE",
"1129 -19 OFFCURVE",
"1120 -19 CURVE SMOOTH",
"1098 -19 OFFCURVE",
"1087 -69 OFFCURVE",
"1046 -69 CURVE SMOOTH",
"1017 -69 OFFCURVE",
"989 -43 OFFCURVE",
"978 -23 CURVE",
"977 -16 OFFCURVE",
"976 -8 OFFCURVE",
"976 0 CURVE SMOOTH",
"976 136 OFFCURVE",
"1113 531 OFFCURVE",
"1185 632 CURVE SMOOTH",
"1207 662 OFFCURVE",
"1253 705 OFFCURVE",
"1292 705 CURVE SMOOTH",
"1316 705 OFFCURVE",
"1320 687 OFFCURVE",
"1332 682 CURVE",
"1333 682 OFFCURVE",
"1334 684 OFFCURVE",
"1334 685 CURVE SMOOTH",
"1334 689 OFFCURVE",
"1331 693 OFFCURVE",
"1329 696 CURVE SMOOTH",
"1318 713 OFFCURVE",
"1289 720 OFFCURVE",
"1269 720 CURVE SMOOTH",
"1132 720 OFFCURVE",
"1043 438 OFFCURVE",
"1007 334 CURVE SMOOTH",
"976 241 OFFCURVE",
"947 146 OFFCURVE",
"931 50 CURVE",
"912 85 OFFCURVE",
"896 123 OFFCURVE",
"880 160 CURVE SMOOTH",
"834 270 OFFCURVE",
"791 380 OFFCURVE",
"746 490 CURVE SMOOTH",
"744 496 OFFCURVE",
"741 502 OFFCURVE",
"739 508 CURVE",
"745 526 OFFCURVE",
"753 555 OFFCURVE",
"753 574 CURVE SMOOTH",
"753 578 OFFCURVE",
"747 582 OFFCURVE",
"743 582 CURVE SMOOTH",
"736 582 OFFCURVE",
"721 569 OFFCURVE",
"713 564 CURVE",
"669 649 OFFCURVE",
"591 743 OFFCURVE",
"486 743 CURVE SMOOTH",
"405 743 OFFCURVE",
"328 681 OFFCURVE",
"292 611 CURVE SMOOTH",
"280 587 OFFCURVE",
"267 562 OFFCURVE",
"267 535 CURVE SMOOTH",
"267 532 OFFCURVE",
"268 513 OFFCURVE",
"275 513 CURVE SMOOTH",
"279 513 OFFCURVE",
"282 519 OFFCURVE",
"283 522 CURVE SMOOTH",
"287 530 OFFCURVE",
"288 538 OFFCURVE",
"290 546 CURVE SMOOTH",
"296 569 OFFCURVE",
"301 593 OFFCURVE",
"313 614 CURVE SMOOTH",
"345 670 OFFCURVE",
"399 709 OFFCURVE",
"465 709 CURVE SMOOTH",
"579 709 OFFCURVE",
"647 606 OFFCURVE",
"689 513 CURVE",
"666 431 OFFCURVE",
"631 349 OFFCURVE",
"596 271 CURVE SMOOTH",
"537 140 OFFCURVE",
"396 -128 OFFCURVE",
"229 -128 CURVE SMOOTH",
"110 -128 OFFCURVE",
"51 -4 OFFCURVE",
"38 98 CURVE SMOOTH",
"37 105 OFFCURVE",
"37 112 OFFCURVE",
"37 119 CURVE SMOOTH",
"37 140 LINE",
"36 145 OFFCURVE",
"34 170 OFFCURVE",
"28 170 CURVE SMOOTH",
"14 170 OFFCURVE",
"11 94 OFFCURVE",
"11 82 CURVE SMOOTH",
"11 37 OFFCURVE",
"19 -10 OFFCURVE",
"40 -50 CURVE SMOOTH",
"74 -117 OFFCURVE",
"155 -147 OFFCURVE",
"227 -147 CURVE SMOOTH"
);
}
);
width = 1132;
}
);
leftKerningGroup = N;
note = N;
rightKerningGroup = N;
unicode = 004E;
},
{
glyphname = Eng;
lastChange = "2022-02-01 15:30:14 +0000";
layers = (
{
background = {
paths = (
{
closed = 1;
nodes = (
"251 -147 OFFCURVE",
"276 -144 OFFCURVE",
"299 -136 CURVE SMOOTH",
"456 -80 OFFCURVE",
"565 88 OFFCURVE",
"630 233 CURVE SMOOTH",
"661 302 OFFCURVE",
"690 372 OFFCURVE",
"717 443 CURVE",
"755 344 OFFCURVE",
"792 245 OFFCURVE",
"831 147 CURVE SMOOTH",
"855 85 OFFCURVE",
"884 7 OFFCURVE",
"927 -43 CURVE SMOOTH",
"970 -93 OFFCURVE",
"1006 -92 OFFCURVE",
"1031 -92 CURVE SMOOTH",
"1063 -92 OFFCURVE",
"1134 -75 OFFCURVE",
"1134 -33 CURVE SMOOTH",
"1134 -24 OFFCURVE",
"1129 -19 OFFCURVE",
"1120 -19 CURVE SMOOTH",
"1098 -19 OFFCURVE",
"1087 -69 OFFCURVE",
"1046 -69 CURVE SMOOTH",
"1017 -69 OFFCURVE",
"989 -43 OFFCURVE",
"978 -23 CURVE",
"977 -16 OFFCURVE",
"976 -8 OFFCURVE",
"976 0 CURVE SMOOTH",
"976 136 OFFCURVE",
"1113 531 OFFCURVE",
"1185 632 CURVE SMOOTH",
"1207 662 OFFCURVE",
"1253 705 OFFCURVE",
"1292 705 CURVE SMOOTH",
"1316 705 OFFCURVE",
"1320 687 OFFCURVE",
"1332 682 CURVE",
"1333 682 OFFCURVE",
"1334 684 OFFCURVE",
"1334 685 CURVE SMOOTH",
"1334 689 OFFCURVE",
"1331 693 OFFCURVE",
"1329 696 CURVE SMOOTH",
"1318 713 OFFCURVE",
"1289 720 OFFCURVE",
"1269 720 CURVE SMOOTH",
"1132 720 OFFCURVE",
"1043 438 OFFCURVE",
"1007 334 CURVE SMOOTH",
"976 241 OFFCURVE",
"947 146 OFFCURVE",
"931 50 CURVE",
"912 85 OFFCURVE",
"896 123 OFFCURVE",
"880 160 CURVE SMOOTH",
"834 270 OFFCURVE",
"791 380 OFFCURVE",
"746 490 CURVE SMOOTH",
"744 496 OFFCURVE",
"741 502 OFFCURVE",
"739 508 CURVE",
"745 526 OFFCURVE",
"753 555 OFFCURVE",
"753 574 CURVE SMOOTH",
"753 578 OFFCURVE",
"747 582 OFFCURVE",
"743 582 CURVE SMOOTH",
"736 582 OFFCURVE",
"721 569 OFFCURVE",
"713 564 CURVE",
"669 649 OFFCURVE",
"591 743 OFFCURVE",
"486 743 CURVE SMOOTH",
"405 743 OFFCURVE",
"328 681 OFFCURVE",
"292 611 CURVE SMOOTH",
"280 587 OFFCURVE",
"267 562 OFFCURVE",
"267 535 CURVE SMOOTH",
"267 532 OFFCURVE",
"268 513 OFFCURVE",
"275 513 CURVE SMOOTH",
"279 513 OFFCURVE",
"282 519 OFFCURVE",
"283 522 CURVE SMOOTH",
"287 530 OFFCURVE",
"288 538 OFFCURVE",
"290 546 CURVE SMOOTH",
"296 569 OFFCURVE",
"301 593 OFFCURVE",
"313 614 CURVE SMOOTH",
"345 670 OFFCURVE",
"399 709 OFFCURVE",
"465 709 CURVE SMOOTH",
"579 709 OFFCURVE",
"647 606 OFFCURVE",
"689 513 CURVE",
"666 431 OFFCURVE",
"631 349 OFFCURVE",
"596 271 CURVE SMOOTH",
"537 140 OFFCURVE",
"396 -128 OFFCURVE",
"229 -128 CURVE SMOOTH",
"110 -128 OFFCURVE",
"51 -4 OFFCURVE",
"38 98 CURVE SMOOTH",
"37 105 OFFCURVE",
"37 112 OFFCURVE",
"37 119 CURVE SMOOTH",
"37 140 LINE",
"36 145 OFFCURVE",
"34 170 OFFCURVE",
"28 170 CURVE SMOOTH",
"14 170 OFFCURVE",
"11 94 OFFCURVE",
"11 82 CURVE SMOOTH",
"11 37 OFFCURVE",
"19 -10 OFFCURVE",
"40 -50 CURVE SMOOTH",
"74 -117 OFFCURVE",
"155 -147 OFFCURVE",
"227 -147 CURVE SMOOTH"
);
},
{
closed = 1;
nodes = (
"787 -366 OFFCURVE",
"859 -282 OFFCURVE",
"900 -195 CURVE SMOOTH",
"920 -154 OFFCURVE",
"935 -110 OFFCURVE",
"950 -67 CURVE SMOOTH",
"954 -55 OFFCURVE",
"958 -42 OFFCURVE",
"962 -30 CURVE",
"914 9 LINE",
"911 -4 OFFCURVE",
"908 -16 OFFCURVE",
"905 -29 CURVE SMOOTH",
"878 -133 OFFCURVE",
"801 -350 OFFCURVE",
"679 -350 CURVE SMOOTH",
"612 -350 OFFCURVE",
"573 -259 OFFCURVE",
"616 -212 CURVE SMOOTH",
"627 -200 OFFCURVE",
"623 -200 OFFCURVE",
"615 -200 CURVE SMOOTH",
"590 -200 OFFCURVE",
"567 -241 OFFCURVE",
"567 -271 CURVE SMOOTH",
"565 -332 OFFCURVE",
"606 -365 OFFCURVE",
"669 -366 CURVE SMOOTH"
);
}
);
};
layerId = "56A77921-5252-498D-AF45-CD2B441B871C";
paths = (
{
closed = 1;
nodes = (
"251 -147 OFFCURVE",
"276 -144 OFFCURVE",
"299 -136 CURVE SMOOTH",
"456 -80 OFFCURVE",
"565 88 OFFCURVE",
"630 233 CURVE SMOOTH",
"661 302 OFFCURVE",
"690 372 OFFCURVE",
"717 443 CURVE",
"755 344 OFFCURVE",
"792 245 OFFCURVE",
"831 147 CURVE SMOOTH",
"855 85 OFFCURVE",
"884 7 OFFCURVE",
"927 -43 CURVE SMOOTH",
"968 -91 OFFCURVE",
"1003 -92 OFFCURVE",
"1028 -92 CURVE SMOOTH",
"1058 -92 OFFCURVE",
"1134 -76 OFFCURVE",
"1134 -33 CURVE SMOOTH",
"1134 -24 OFFCURVE",
"1129 -19 OFFCURVE",
"1120 -19 CURVE SMOOTH",
"1098 -19 OFFCURVE",
"1087 -69 OFFCURVE",
"1046 -69 CURVE SMOOTH",
"1017 -69 OFFCURVE",
"989 -43 OFFCURVE",
"978 -23 CURVE",
"977 -16 OFFCURVE",
"976 -8 OFFCURVE",
"976 0 CURVE SMOOTH",
"976 136 OFFCURVE",
"1113 531 OFFCURVE",
"1185 632 CURVE SMOOTH",
"1207 662 OFFCURVE",
"1253 705 OFFCURVE",
"1292 705 CURVE SMOOTH",
"1316 705 OFFCURVE",
"1320 687 OFFCURVE",
"1332 682 CURVE",
"1333 682 OFFCURVE",
"1334 684 OFFCURVE",
"1334 685 CURVE SMOOTH",
"1334 689 OFFCURVE",
"1331 693 OFFCURVE",
"1329 696 CURVE SMOOTH",
"1318 713 OFFCURVE",
"1289 720 OFFCURVE",
"1269 720 CURVE SMOOTH",
"1132 720 OFFCURVE",
"1043 438 OFFCURVE",
"1007 334 CURVE SMOOTH",
"976 241 OFFCURVE",
"947 146 OFFCURVE",
"931 50 CURVE",
"912 85 OFFCURVE",
"896 123 OFFCURVE",
"880 160 CURVE SMOOTH",
"834 270 OFFCURVE",
"791 380 OFFCURVE",
"746 490 CURVE SMOOTH",
"744 496 OFFCURVE",
"741 502 OFFCURVE",
"739 508 CURVE",
"745 526 OFFCURVE",
"753 555 OFFCURVE",
"753 574 CURVE SMOOTH",
"753 578 OFFCURVE",
"747 582 OFFCURVE",
"743 582 CURVE SMOOTH",
"736 582 OFFCURVE",
"721 569 OFFCURVE",
"713 564 CURVE",
"669 649 OFFCURVE",
"591 743 OFFCURVE",
"486 743 CURVE SMOOTH",
"405 743 OFFCURVE",
"328 681 OFFCURVE",
"292 611 CURVE SMOOTH",
"280 587 OFFCURVE",
"267 562 OFFCURVE",
"267 535 CURVE SMOOTH",
"267 532 OFFCURVE",
"268 513 OFFCURVE",
"275 513 CURVE SMOOTH",
"279 513 OFFCURVE",
"282 519 OFFCURVE",
"283 522 CURVE SMOOTH",
"287 530 OFFCURVE",
"288 538 OFFCURVE",
"290 546 CURVE SMOOTH",
"296 569 OFFCURVE",
"301 593 OFFCURVE",
"313 614 CURVE SMOOTH",
"345 670 OFFCURVE",
"399 709 OFFCURVE",
"465 709 CURVE SMOOTH",
"579 709 OFFCURVE",
"647 606 OFFCURVE",
"689 513 CURVE",
"666 431 OFFCURVE",
"631 349 OFFCURVE",
"596 271 CURVE SMOOTH",
"537 140 OFFCURVE",
"396 -128 OFFCURVE",
"229 -128 CURVE SMOOTH",
"110 -128 OFFCURVE",
"51 -4 OFFCURVE",
"38 98 CURVE SMOOTH",
"37 105 OFFCURVE",
"37 112 OFFCURVE",
"37 119 CURVE SMOOTH",
"37 140 LINE",
"36 145 OFFCURVE",
"34 170 OFFCURVE",
"28 170 CURVE SMOOTH",
"14 170 OFFCURVE",
"11 94 OFFCURVE",
"11 82 CURVE SMOOTH",
"11 37 OFFCURVE",
"19 -10 OFFCURVE",
"40 -50 CURVE SMOOTH",
"74 -117 OFFCURVE",
"155 -147 OFFCURVE",
"227 -147 CURVE SMOOTH"
);
},
{
closed = 1;
nodes = (
"787 -366 OFFCURVE",
"859 -282 OFFCURVE",
"900 -195 CURVE SMOOTH",
"920 -154 OFFCURVE",
"935 -110 OFFCURVE",
"950 -67 CURVE SMOOTH",
"962 -30 LINE",
"914 9 LINE",
"905 -29 LINE SMOOTH",
"878 -133 OFFCURVE",
"801 -350 OFFCURVE",
"679 -350 CURVE SMOOTH",
"631 -350 OFFCURVE",
"598 -304 OFFCURVE",
"598 -261 CURVE SMOOTH",
"598 -243 OFFCURVE",
"604 -226 OFFCURVE",
"616 -212 CURVE SMOOTH",
"621 -207 OFFCURVE",
"623 -204 OFFCURVE",
"623 -202 CURVE SMOOTH",
"623 -200 OFFCURVE",
"620 -200 OFFCURVE",
"615 -200 CURVE SMOOTH",
"590 -200 OFFCURVE",
"567 -241 OFFCURVE",
"567 -271 CURVE SMOOTH",
"565 -332 OFFCURVE",
"606 -365 OFFCURVE",
"669 -366 CURVE SMOOTH"
);
}
);
width = 1268;
}
);
leftKerningGroup = N;
rightKerningGroup = N;
unicode = 014A;
},
{
color = 1;
glyphname = O;
lastChange = "2022-02-16 03:36:33 +0000";
layers = (
{
anchors = (
{
name = bottom;
position = "{229, 0}";
},
{
name = horn;
position = "{702, 630}";
},
{
name = ogonek;
position = "{384, 0}";
},
{
name = top;
position = "{637, 745}";
},
{
name = topright;
position = "{773, 700}";
}
);
background = {
paths = (
{
closed = 1;
nodes = (
"382 -40 OFFCURVE",
"569 51 OFFCURVE",
"672 156 CURVE SMOOTH",
"742 227 OFFCURVE",
"785 326 OFFCURVE",
"785 426 CURVE SMOOTH",
"785 568 OFFCURVE",
"703 677 OFFCURVE",
"574 730 CURVE SMOOTH",
"485 767 OFFCURVE",
"387 786 OFFCURVE",
"291 786 CURVE SMOOTH",
"159 786 OFFCURVE",
"9 747 OFFCURVE",
"-86 651 CURVE SMOOTH",
"-130 606 OFFCURVE",
"-162 545 OFFCURVE",
"-162 481 CURVE SMOOTH",
"-162 453 OFFCURVE",
"-156 425 OFFCURVE",
"-144 400 CURVE SMOOTH",
"-126 361 OFFCURVE",
"-80 309 OFFCURVE",
"-33 309 CURVE SMOOTH",
"-18 309 OFFCURVE",
"-5 316 OFFCURVE",
"6 324 CURVE SMOOTH",
"11 327 OFFCURVE",
"17 328 OFFCURVE",
"17 333 CURVE SMOOTH",
"17 334 LINE",
"15 334 OFFCURVE",
"11 333 OFFCURVE",
"10 332 CURVE",
"3 332 OFFCURVE",
"-4 330 OFFCURVE",
"-11 330 CURVE SMOOTH",
"-50 330 OFFCURVE",
"-82 368 OFFCURVE",
"-98 400 CURVE SMOOTH",
"-110 424 OFFCURVE",
"-116 451 OFFCURVE",
"-116 477 CURVE SMOOTH",
"-116 565 OFFCURVE",
"-54 652 OFFCURVE",
"17 699 CURVE SMOOTH",
"90 747 OFFCURVE",
"179 763 OFFCURVE",
"265 763 CURVE SMOOTH",
"364 763 OFFCURVE",
"477 740 OFFCURVE",
"567 698 CURVE SMOOTH",
"672 649 OFFCURVE",
"723 548 OFFCURVE",
"723 435 CURVE SMOOTH",
"723 378 OFFCURVE",
"710 320 OFFCURVE",
"686 269 CURVE SMOOTH",
"617 124 OFFCURVE",
"408 -14 OFFCURVE",
"247 -14 CURVE SMOOTH",
"230 -14 OFFCURVE",
"212 -12 OFFCURVE",
"195 -9 CURVE SMOOTH",
"106 9 OFFCURVE",
"69 95 OFFCURVE",
"69 178 CURVE SMOOTH",
"69 225 OFFCURVE",
"81 270 OFFCURVE",
"101 312 CURVE SMOOTH",
"174 464 OFFCURVE",
"307 609 OFFCURVE",
"485 620 CURVE SMOOTH",
"489 620 OFFCURVE",
"494 620 OFFCURVE",
"498 620 CURVE SMOOTH",
"525 620 OFFCURVE",
"552 617 OFFCURVE",
"578 609 CURVE SMOOTH",
"594 604 OFFCURVE",
"606 598 OFFCURVE",
"623 598 CURVE SMOOTH",
"626 598 OFFCURVE",
"637 598 OFFCURVE",
"637 604 CURVE SMOOTH",
"637 614 OFFCURVE",
"611 625 OFFCURVE",
"605 628 CURVE SMOOTH",
"584 637 OFFCURVE",
"538 638 OFFCURVE",
"515 638 CURVE SMOOTH",
"311 638 OFFCURVE",
"124 497 OFFCURVE",
"46 312 CURVE SMOOTH",
"28 269 OFFCURVE",
"16 221 OFFCURVE",
"16 174 CURVE SMOOTH",
"16 41 OFFCURVE",
"101 -40 OFFCURVE",
"233 -40 CURVE SMOOTH"
);
}
);
};
layerId = "56A77921-5252-498D-AF45-CD2B441B871C";
paths = (
{
closed = 1;
nodes = (
"382 -40 OFFCURVE",
"569 51 OFFCURVE",
"672 156 CURVE SMOOTH",
"742 227 OFFCURVE",
"785 326 OFFCURVE",
"785 426 CURVE SMOOTH",
"785 568 OFFCURVE",
"703 677 OFFCURVE",
"574 730 CURVE SMOOTH",
"485 767 OFFCURVE",
"387 786 OFFCURVE",
"291 786 CURVE SMOOTH",
"159 786 OFFCURVE",
"9 747 OFFCURVE",
"-86 651 CURVE SMOOTH",
"-130 606 OFFCURVE",
"-162 545 OFFCURVE",
"-162 481 CURVE SMOOTH",
"-162 453 OFFCURVE",
"-156 425 OFFCURVE",
"-144 400 CURVE SMOOTH",
"-126 361 OFFCURVE",
"-80 309 OFFCURVE",
"-33 309 CURVE SMOOTH",
"-18 309 OFFCURVE",
"-5 316 OFFCURVE",
"6 324 CURVE SMOOTH",
"11 327 OFFCURVE",
"17 328 OFFCURVE",
"17 333 CURVE SMOOTH",
"17 334 LINE",
"15 334 OFFCURVE",
"11 333 OFFCURVE",
"10 332 CURVE",
"3 332 OFFCURVE",
"-4 330 OFFCURVE",
"-11 330 CURVE SMOOTH",
"-50 330 OFFCURVE",
"-82 368 OFFCURVE",
"-98 400 CURVE SMOOTH",
"-110 424 OFFCURVE",
"-116 451 OFFCURVE",
"-116 477 CURVE SMOOTH",
"-116 565 OFFCURVE",
"-54 652 OFFCURVE",
"17 699 CURVE SMOOTH",
"90 747 OFFCURVE",
"179 763 OFFCURVE",
"265 763 CURVE SMOOTH",
"364 763 OFFCURVE",
"477 740 OFFCURVE",
"567 698 CURVE SMOOTH",
"672 649 OFFCURVE",
"723 548 OFFCURVE",
"723 435 CURVE SMOOTH",
"723 378 OFFCURVE",
"710 320 OFFCURVE",
"686 269 CURVE SMOOTH",
"617 124 OFFCURVE",
"408 -14 OFFCURVE",
"247 -14 CURVE SMOOTH",
"230 -14 OFFCURVE",
"212 -12 OFFCURVE",
"195 -9 CURVE SMOOTH",
"106 9 OFFCURVE",
"69 95 OFFCURVE",
"69 178 CURVE SMOOTH",
"69 225 OFFCURVE",
"81 270 OFFCURVE",
"101 312 CURVE SMOOTH",
"174 464 OFFCURVE",
"307 620 OFFCURVE",
"485 620 CURVE SMOOTH",
"498 620 LINE SMOOTH",
"525 620 OFFCURVE",
"552 617 OFFCURVE",
"578 609 CURVE SMOOTH",
"594 604 OFFCURVE",
"606 598 OFFCURVE",
"623 598 CURVE SMOOTH",
"626 598 OFFCURVE",
"637 598 OFFCURVE",
"637 604 CURVE SMOOTH",
"637 614 OFFCURVE",
"611 625 OFFCURVE",
"605 628 CURVE SMOOTH",
"584 637 OFFCURVE",
"538 638 OFFCURVE",
"515 638 CURVE SMOOTH",
"311 638 OFFCURVE",
"124 497 OFFCURVE",
"46 312 CURVE SMOOTH",
"28 269 OFFCURVE",
"16 221 OFFCURVE",
"16 174 CURVE SMOOTH",
"16 41 OFFCURVE",
"101 -40 OFFCURVE",
"233 -40 CURVE SMOOTH"
);
}
);
width = 793;
}
);
leftKerningGroup = O;
note = O;
rightKerningGroup = O;
unicode = 004F;
},
{
color = 1;
glyphname = Oslash;
lastChange = "2022-02-09 20:11:17 +0000";
layers = (
{
anchors = (
{
name = bottom;
position = "{229, 0}";
},
{
name = horn;
position = "{702, 630}";
},
{
name = ogonek;
position = "{384, 0}";
},
{
name = top;
position = "{637, 745}";
},
{
name = topright;
position = "{773, 700}";
}
);
background = {
components = (
{
name = O;
},
{
name = slash;
transform = "{1.10599, 0, 0, 1.14876, 129, 11}";
}
);
};
layerId = "56A77921-5252-498D-AF45-CD2B441B871C";
paths = (
{
closed = 1;
nodes = (
"382 -40 OFFCURVE",
"569 51 OFFCURVE",
"672 156 CURVE SMOOTH",
"742 227 OFFCURVE",
"785 326 OFFCURVE",
"785 426 CURVE SMOOTH",
"785 568 OFFCURVE",
"703 677 OFFCURVE",
"574 730 CURVE SMOOTH",
"485 767 OFFCURVE",
"387 786 OFFCURVE",
"291 786 CURVE SMOOTH",
"159 786 OFFCURVE",
"9 747 OFFCURVE",
"-86 651 CURVE SMOOTH",
"-130 606 OFFCURVE",
"-162 545 OFFCURVE",
"-162 481 CURVE SMOOTH",
"-162 453 OFFCURVE",
"-156 425 OFFCURVE",
"-144 400 CURVE SMOOTH",
"-126 361 OFFCURVE",
"-80 309 OFFCURVE",
"-33 309 CURVE SMOOTH",
"-18 309 OFFCURVE",
"-5 316 OFFCURVE",
"6 324 CURVE SMOOTH",
"11 327 OFFCURVE",
"17 328 OFFCURVE",
"17 333 CURVE SMOOTH",
"17 334 LINE",
"15 334 OFFCURVE",
"11 333 OFFCURVE",
"10 332 CURVE",
"3 332 OFFCURVE",
"-4 330 OFFCURVE",
"-11 330 CURVE SMOOTH",
"-50 330 OFFCURVE",
"-82 368 OFFCURVE",
"-98 400 CURVE SMOOTH",
"-110 424 OFFCURVE",
"-116 451 OFFCURVE",
"-116 477 CURVE SMOOTH",
"-116 565 OFFCURVE",
"-54 652 OFFCURVE",
"17 699 CURVE SMOOTH",
"90 747 OFFCURVE",
"179 763 OFFCURVE",
"265 763 CURVE SMOOTH",
"364 763 OFFCURVE",
"477 740 OFFCURVE",
"567 698 CURVE SMOOTH",
"672 649 OFFCURVE",
"723 548 OFFCURVE",
"723 435 CURVE SMOOTH",
"723 378 OFFCURVE",
"710 320 OFFCURVE",
"686 269 CURVE SMOOTH",
"617 124 OFFCURVE",
"408 -14 OFFCURVE",
"247 -14 CURVE SMOOTH",
"230 -14 OFFCURVE",
"212 -12 OFFCURVE",
"195 -9 CURVE SMOOTH",
"106 9 OFFCURVE",
"69 95 OFFCURVE",
"69 178 CURVE SMOOTH",
"69 225 OFFCURVE",
"81 270 OFFCURVE",
"101 312 CURVE SMOOTH",
"174 464 OFFCURVE",
"307 620 OFFCURVE",
"485 620 CURVE SMOOTH",
"498 620 LINE SMOOTH",
"525 620 OFFCURVE",
"552 617 OFFCURVE",
"578 609 CURVE SMOOTH",
"594 604 OFFCURVE",
"606 598 OFFCURVE",
"623 598 CURVE SMOOTH",
"626 598 OFFCURVE",
"637 598 OFFCURVE",
"637 604 CURVE SMOOTH",
"637 614 OFFCURVE",
"611 625 OFFCURVE",
"605 628 CURVE SMOOTH",
"584 637 OFFCURVE",
"538 638 OFFCURVE",
"515 638 CURVE SMOOTH",
"311 638 OFFCURVE",
"124 497 OFFCURVE",
"46 312 CURVE SMOOTH",
"28 269 OFFCURVE",
"16 221 OFFCURVE",
"16 174 CURVE SMOOTH",
"16 41 OFFCURVE",
"101 -40 OFFCURVE",
"233 -40 CURVE SMOOTH"
);
},
{
closed = 1;
nodes = (
"146 -77 OFFCURVE",
"169 -68 OFFCURVE",
"179 -63 CURVE",
"310 155 OFFCURVE",
"651 685 OFFCURVE",
"688 729 CURVE",
"692 739 OFFCURVE",
"682 744 OFFCURVE",
"668 744 CURVE SMOOTH",
"654 744 OFFCURVE",
"638 739 OFFCURVE",
"630 728 CURVE",
"607 675 OFFCURVE",
"182 16 OFFCURVE",
"127 -59 CURVE SMOOTH",
"123 -64 OFFCURVE",
"122 -68 OFFCURVE",
"122 -71 CURVE SMOOTH",
"122 -75 OFFCURVE",
"126 -77 OFFCURVE",
"132 -77 CURVE SMOOTH"
);
}
);
width = 793;
}
);
leftKerningGroup = O;
note = Oslash;
rightKerningGroup = O;
unicode = 00D8;
},
{
glyphname = OE;
lastChange = "2022-02-01 15:30:14 +0000";
layers = (
{
background = {
paths = (
{
closed = 1;
nodes = (
"1069 -47 OFFCURVE",
"1162 -22 OFFCURVE",
"1177 86 CURVE SMOOTH",
"1177 87 OFFCURVE",
"1177 89 OFFCURVE",
"1177 90 CURVE SMOOTH",
"1177 101 OFFCURVE",
"1165 131 OFFCURVE",
"1151 131 CURVE SMOOTH",
"1148 131 OFFCURVE",
"1147 128 OFFCURVE",
"1147 125 CURVE SMOOTH",
"1147 114 OFFCURVE",
"1152 104 OFFCURVE",
"1152 92 CURVE SMOOTH",
"1152 4 OFFCURVE",
"1015 -1 OFFCURVE",
"952 -1 CURVE SMOOTH",
"854 -1 OFFCURVE",
"671 40 OFFCURVE",
"579 75 CURVE",
"583 80 OFFCURVE",
"587 84 OFFCURVE",
"592 89 CURVE",
"622 110 OFFCURVE",
"649 133 OFFCURVE",
"672 156 CURVE SMOOTH",
"712 196 OFFCURVE",
"743 246 OFFCURVE",
"762 300 CURVE",
"814 296 OFFCURVE",
"865 295 OFFCURVE",
"917 295 CURVE SMOOTH",
"960 295 OFFCURVE",
"1027 303 OFFCURVE",
"1059 334 CURVE SMOOTH",
"1061 336 OFFCURVE",
"1063 339 OFFCURVE",
"1063 342 CURVE SMOOTH",
"1063 346 OFFCURVE",
"1059 348 OFFCURVE",
"1056 349 CURVE",
"1027 342 OFFCURVE",
"997 333 OFFCURVE",
"967 333 CURVE SMOOTH",
"903 333 OFFCURVE",
"838 339 OFFCURVE",
"774 341 CURVE",
"805 430 OFFCURVE",
"835 523 OFFCURVE",
"882 604 CURVE",
"961 587 OFFCURVE",
"1039 569 OFFCURVE",
"1117 552 CURVE SMOOTH",
"1125 550 OFFCURVE",
"1133 548 OFFCURVE",
"1141 548 CURVE SMOOTH",
"1178 548 OFFCURVE",
"1214 581 OFFCURVE",
"1232 611 CURVE SMOOTH",
"1233 613 OFFCURVE",
"1234 615 OFFCURVE",
"1234 618 CURVE SMOOTH",
"1234 620 OFFCURVE",
"1233 622 OFFCURVE",
"1231 622 CURVE SMOOTH",
"1226 622 OFFCURVE",
"1222 616 OFFCURVE",
"1220 613 CURVE SMOOTH",
"1209 599 OFFCURVE",
"1184 598 OFFCURVE",
"1167 598 CURVE SMOOTH",
"1089 598 OFFCURVE",
"982 623 OFFCURVE",
"904 637 CURVE",
"934 678 OFFCURVE",
"983 721 OFFCURVE",
"1037 721 CURVE SMOOTH",
"1061 721 OFFCURVE",
"1109 694 OFFCURVE",
"1109 667 CURVE SMOOTH",
"1109 657 OFFCURVE",
"1105 646 OFFCURVE",
"1105 636 CURVE SMOOTH",
"1105 634 OFFCURVE",
"1105 630 OFFCURVE",
"1108 630 CURVE SMOOTH",
"1118 630 OFFCURVE",
"1123 651 OFFCURVE",
"1123 659 CURVE SMOOTH",
"1123 680 OFFCURVE",
"1110 696 OFFCURVE",
"1110 705 CURVE SMOOTH",
"1110 713 OFFCURVE",
"1119 709 OFFCURVE",
"1119 716 CURVE SMOOTH",
"1119 725 OFFCURVE",
"1096 734 OFFCURVE",
"1089 736 CURVE SMOOTH",
"1080 740 OFFCURVE",
"1071 741 OFFCURVE",
"1061 741 CURVE SMOOTH",
"984 741 OFFCURVE",
"911 703 OFFCURVE",
"863 644 CURVE",
"803 654 OFFCURVE",
"742 663 OFFCURVE",
"680 664 CURVE",
"650 691 OFFCURVE",
"614 713 OFFCURVE",
"574 730 CURVE SMOOTH",
"485 767 OFFCURVE",
"387 786 OFFCURVE",
"291 786 CURVE SMOOTH",
"159 786 OFFCURVE",
"9 747 OFFCURVE",
"-86 651 CURVE SMOOTH",
"-130 606 OFFCURVE",
"-162 545 OFFCURVE",
"-162 481 CURVE SMOOTH",
"-162 453 OFFCURVE",
"-156 425 OFFCURVE",
"-144 400 CURVE SMOOTH",
"-126 361 OFFCURVE",
"-80 309 OFFCURVE",
"-33 309 CURVE SMOOTH",
"-18 309 OFFCURVE",
"-5 316 OFFCURVE",
"6 324 CURVE SMOOTH",
"11 327 OFFCURVE",
"17 328 OFFCURVE",
"17 333 CURVE SMOOTH",
"17 334 LINE",
"15 334 OFFCURVE",
"11 333 OFFCURVE",
"10 332 CURVE",
"3 332 OFFCURVE",
"-4 330 OFFCURVE",
"-11 330 CURVE SMOOTH",
"-50 330 OFFCURVE",
"-82 368 OFFCURVE",
"-98 400 CURVE SMOOTH",
"-110 424 OFFCURVE",
"-116 451 OFFCURVE",
"-116 477 CURVE SMOOTH",
"-116 565 OFFCURVE",
"-54 652 OFFCURVE",
"17 699 CURVE SMOOTH",
"90 747 OFFCURVE",
"179 763 OFFCURVE",
"265 763 CURVE SMOOTH",
"364 763 OFFCURVE",
"477 740 OFFCURVE",
"567 698 CURVE SMOOTH",
"589 688 OFFCURVE",
"609 675 OFFCURVE",
"627 660 CURVE",
"595 658 OFFCURVE",
"554 654 OFFCURVE",
"520 651 CURVE",
"317 649 OFFCURVE",
"123 496 OFFCURVE",
"46 312 CURVE SMOOTH",
"28 269 OFFCURVE",
"16 221 OFFCURVE",
"16 174 CURVE SMOOTH",
"16 41 OFFCURVE",
"101 -40 OFFCURVE",
"233 -40 CURVE SMOOTH",
"333 -40 OFFCURVE",
"449 1 OFFCURVE",
"547 59 CURVE",
"656 17 OFFCURVE",
"860 -47 OFFCURVE",
"974 -47 CURVE SMOOTH"
);
},
{
closed = 1;
nodes = (
"230 -14 OFFCURVE",
"212 -12 OFFCURVE",
"195 -9 CURVE SMOOTH",
"106 9 OFFCURVE",
"69 95 OFFCURVE",
"69 178 CURVE SMOOTH",
"69 225 OFFCURVE",
"81 270 OFFCURVE",
"101 312 CURVE SMOOTH",
"174 464 OFFCURVE",
"316 622 OFFCURVE",
"494 632 CURVE",
"498 633 OFFCURVE",
"502 633 OFFCURVE",
"507 633 CURVE SMOOTH",
"526 633 OFFCURVE",
"544 633 OFFCURVE",
"561 633 CURVE SMOOTH",
"583 633 OFFCURVE",
"610 633 OFFCURVE",
"642 633 CURVE SMOOTH",
"655 633 LINE",
"701 580 OFFCURVE",
"723 510 OFFCURVE",
"723 435 CURVE SMOOTH",
"723 404 OFFCURVE",
"720 373 OFFCURVE",
"712 343 CURVE",
"700 344 OFFCURVE",
"689 344 OFFCURVE",
"677 344 CURVE SMOOTH",
"625 344 OFFCURVE",
"575 330 OFFCURVE",
"530 306 CURVE SMOOTH",
"514 298 OFFCURVE",
"461 267 OFFCURVE",
"461 247 CURVE SMOOTH",
"461 238 OFFCURVE",
"468 230 OFFCURVE",
"476 226 CURVE",
"484 242 OFFCURVE",
"488 261 OFFCURVE",
"500 275 CURVE SMOOTH",
"524 303 OFFCURVE",
"574 308 OFFCURVE",
"608 308 CURVE SMOOTH",
"639 308 OFFCURVE",
"670 306 OFFCURVE",
"700 304 CURVE",
"696 292 OFFCURVE",
"691 280 OFFCURVE",
"686 269 CURVE SMOOTH",
"617 124 OFFCURVE",
"408 -14 OFFCURVE",
"247 -14 CURVE SMOOTH"
);
},
{
closed = 1;
nodes = (
"767 547 OFFCURVE",
"745 592 OFFCURVE",
"713 630 CURVE",
"756 626 OFFCURVE",
"798 620 OFFCURVE",
"840 612 CURVE",
"816 576 OFFCURVE",
"795 537 OFFCURVE",
"777 497 CURVE"
);
}
);
};
layerId = "56A77921-5252-498D-AF45-CD2B441B871C";
paths = (
{
closed = 1;
nodes = (
"1069 -47 OFFCURVE",
"1162 -22 OFFCURVE",
"1177 86 CURVE",
"1177 90 LINE SMOOTH",
"1177 101 OFFCURVE",
"1165 131 OFFCURVE",
"1151 131 CURVE SMOOTH",
"1148 131 OFFCURVE",
"1147 128 OFFCURVE",
"1147 125 CURVE SMOOTH",
"1147 114 OFFCURVE",
"1152 104 OFFCURVE",
"1152 92 CURVE SMOOTH",
"1152 4 OFFCURVE",
"1015 -1 OFFCURVE",
"952 -1 CURVE SMOOTH",
"854 -1 OFFCURVE",
"671 40 OFFCURVE",
"579 75 CURVE",
"583 80 OFFCURVE",
"587 84 OFFCURVE",
"592 89 CURVE",
"622 110 OFFCURVE",
"649 133 OFFCURVE",
"672 156 CURVE SMOOTH",
"712 196 OFFCURVE",
"743 246 OFFCURVE",
"762 300 CURVE",
"814 296 OFFCURVE",
"865 295 OFFCURVE",
"917 295 CURVE SMOOTH",
"960 295 OFFCURVE",
"1027 303 OFFCURVE",
"1059 334 CURVE SMOOTH",
"1061 336 OFFCURVE",
"1063 339 OFFCURVE",
"1063 342 CURVE SMOOTH",
"1063 346 OFFCURVE",
"1059 348 OFFCURVE",
"1056 349 CURVE",
"1027 342 OFFCURVE",
"997 333 OFFCURVE",
"967 333 CURVE SMOOTH",
"903 333 OFFCURVE",
"838 339 OFFCURVE",
"774 341 CURVE",
"805 430 OFFCURVE",
"835 523 OFFCURVE",
"882 604 CURVE",
"961 587 OFFCURVE",
"1039 569 OFFCURVE",
"1117 552 CURVE SMOOTH",
"1125 550 OFFCURVE",
"1133 548 OFFCURVE",
"1141 548 CURVE SMOOTH",
"1178 548 OFFCURVE",
"1214 581 OFFCURVE",
"1232 611 CURVE SMOOTH",
"1233 613 OFFCURVE",
"1234 615 OFFCURVE",
"1234 618 CURVE SMOOTH",
"1234 620 OFFCURVE",
"1233 622 OFFCURVE",
"1231 622 CURVE SMOOTH",
"1226 622 OFFCURVE",
"1222 616 OFFCURVE",
"1220 613 CURVE SMOOTH",
"1209 599 OFFCURVE",
"1184 598 OFFCURVE",
"1167 598 CURVE SMOOTH",
"1089 598 OFFCURVE",
"982 623 OFFCURVE",
"904 637 CURVE",
"934 678 OFFCURVE",
"983 721 OFFCURVE",
"1037 721 CURVE SMOOTH",
"1061 721 OFFCURVE",
"1109 694 OFFCURVE",
"1109 667 CURVE SMOOTH",
"1109 657 OFFCURVE",
"1105 646 OFFCURVE",
"1105 636 CURVE SMOOTH",
"1105 634 OFFCURVE",
"1105 630 OFFCURVE",
"1108 630 CURVE SMOOTH",
"1118 630 OFFCURVE",
"1123 651 OFFCURVE",
"1123 659 CURVE SMOOTH",
"1123 680 OFFCURVE",
"1110 696 OFFCURVE",
"1110 705 CURVE SMOOTH",
"1110 713 OFFCURVE",
"1119 709 OFFCURVE",
"1119 716 CURVE SMOOTH",
"1119 725 OFFCURVE",
"1096 734 OFFCURVE",
"1089 736 CURVE SMOOTH",
"1080 740 OFFCURVE",
"1071 741 OFFCURVE",
"1061 741 CURVE SMOOTH",
"984 741 OFFCURVE",
"911 703 OFFCURVE",
"863 644 CURVE",
"803 654 OFFCURVE",
"742 663 OFFCURVE",
"680 664 CURVE",
"650 691 OFFCURVE",
"614 713 OFFCURVE",
"574 730 CURVE SMOOTH",
"485 767 OFFCURVE",
"387 786 OFFCURVE",
"291 786 CURVE SMOOTH",
"159 786 OFFCURVE",
"9 747 OFFCURVE",
"-86 651 CURVE SMOOTH",
"-130 606 OFFCURVE",
"-162 545 OFFCURVE",
"-162 481 CURVE SMOOTH",
"-162 453 OFFCURVE",
"-156 425 OFFCURVE",
"-144 400 CURVE SMOOTH",
"-126 361 OFFCURVE",
"-80 309 OFFCURVE",
"-33 309 CURVE SMOOTH",
"-18 309 OFFCURVE",
"-5 316 OFFCURVE",
"6 324 CURVE SMOOTH",
"11 327 OFFCURVE",
"17 328 OFFCURVE",
"17 333 CURVE SMOOTH",
"17 334 LINE",
"15 334 OFFCURVE",
"11 333 OFFCURVE",
"10 332 CURVE",
"3 332 OFFCURVE",
"-4 330 OFFCURVE",
"-11 330 CURVE SMOOTH",
"-50 330 OFFCURVE",
"-82 368 OFFCURVE",
"-98 400 CURVE SMOOTH",
"-110 424 OFFCURVE",
"-116 451 OFFCURVE",
"-116 477 CURVE SMOOTH",
"-116 565 OFFCURVE",
"-54 652 OFFCURVE",
"17 699 CURVE SMOOTH",
"90 747 OFFCURVE",
"179 763 OFFCURVE",
"265 763 CURVE SMOOTH",
"364 763 OFFCURVE",
"477 740 OFFCURVE",
"567 698 CURVE SMOOTH",
"589 688 OFFCURVE",
"609 675 OFFCURVE",
"627 660 CURVE",
"595 658 OFFCURVE",
"554 654 OFFCURVE",
"520 651 CURVE",
"317 649 OFFCURVE",
"123 496 OFFCURVE",
"46 312 CURVE SMOOTH",
"28 269 OFFCURVE",
"16 221 OFFCURVE",
"16 174 CURVE SMOOTH",
"16 41 OFFCURVE",
"101 -40 OFFCURVE",
"233 -40 CURVE SMOOTH",
"333 -40 OFFCURVE",
"449 1 OFFCURVE",
"547 59 CURVE",
"656 17 OFFCURVE",
"860 -47 OFFCURVE",
"974 -47 CURVE SMOOTH"
);
},
{
closed = 1;
nodes = (
"230 -14 OFFCURVE",
"212 -12 OFFCURVE",
"195 -9 CURVE SMOOTH",
"106 9 OFFCURVE",
"69 95 OFFCURVE",
"69 178 CURVE SMOOTH",
"69 225 OFFCURVE",
"81 270 OFFCURVE",
"101 312 CURVE SMOOTH",
"174 464 OFFCURVE",
"316 622 OFFCURVE",
"494 632 CURVE",
"498 633 OFFCURVE",
"502 633 OFFCURVE",
"507 633 CURVE SMOOTH",
"561 633 LINE",
"655 633 LINE",
"701 580 OFFCURVE",
"723 510 OFFCURVE",
"723 435 CURVE SMOOTH",
"723 404 OFFCURVE",
"720 373 OFFCURVE",
"712 343 CURVE",
"700 344 OFFCURVE",
"689 344 OFFCURVE",
"677 344 CURVE SMOOTH",
"625 344 OFFCURVE",
"575 330 OFFCURVE",
"530 306 CURVE SMOOTH",
"514 298 OFFCURVE",
"461 267 OFFCURVE",
"461 247 CURVE SMOOTH",
"461 238 OFFCURVE",
"468 230 OFFCURVE",
"476 226 CURVE",
"484 242 OFFCURVE",
"488 261 OFFCURVE",
"500 275 CURVE SMOOTH",
"524 303 OFFCURVE",
"574 308 OFFCURVE",
"608 308 CURVE SMOOTH",
"639 308 OFFCURVE",
"670 306 OFFCURVE",
"700 304 CURVE",
"696 292 OFFCURVE",
"691 280 OFFCURVE",
"686 269 CURVE SMOOTH",
"617 124 OFFCURVE",
"408 -14 OFFCURVE",
"247 -14 CURVE SMOOTH"
);
},
{
closed = 1;
nodes = (
"767 547 OFFCURVE",
"745 592 OFFCURVE",
"713 630 CURVE",
"756 626 OFFCURVE",
"798 620 OFFCURVE",
"840 612 CURVE",
"816 576 OFFCURVE",
"795 537 OFFCURVE",
"777 497 CURVE"
);
}
);
width = 793;
}
);
leftKerningGroup = O;
note = OE;
rightKerningGroup = E;
unicode = 0152;
},
{
glyphname = P;
lastChange = "2022-02-09 11:14:59 +0000";
layers = (
{
background = {
paths = (
{
closed = 1;
nodes = (
"496 154 OFFCURVE",
"631 199 OFFCURVE",
"714 242 CURVE SMOOTH",
"791 282 OFFCURVE",
"871 349 OFFCURVE",
"871 443 CURVE SMOOTH",
"871 482 OFFCURVE",
"857 518 OFFCURVE",
"834 549 CURVE SMOOTH",
"751 659 OFFCURVE",
"580 690 OFFCURVE",
"452 690 CURVE SMOOTH",
"279 690 OFFCURVE",
"75 629 OFFCURVE",
"18 446 CURVE SMOOTH",
"12 428 OFFCURVE",
"7 402 OFFCURVE",
"7 383 CURVE SMOOTH",
"7 372 OFFCURVE",
"14 332 OFFCURVE",
"27 332 CURVE SMOOTH",
"29 332 OFFCURVE",
"32 338 OFFCURVE",
"34 340 CURVE",
"34 340 OFFCURVE",
"35 341 OFFCURVE",
"36 341 CURVE SMOOTH",
"46 341 OFFCURVE",
"61 315 OFFCURVE",
"90 315 CURVE SMOOTH",
"97 315 OFFCURVE",
"114 321 OFFCURVE",
"114 329 CURVE SMOOTH",
"114 334 OFFCURVE",
"101 334 OFFCURVE",
"99 334 CURVE SMOOTH",
"94 334 OFFCURVE",
"76 333 OFFCURVE",
"73 335 CURVE",
"43 349 OFFCURVE",
"34 384 OFFCURVE",
"34 415 CURVE SMOOTH",
"34 431 OFFCURVE",
"36 446 OFFCURVE",
"41 461 CURVE SMOOTH",
"96 619 OFFCURVE",
"305 644 OFFCURVE",
"448 644 CURVE SMOOTH",
"559 644 OFFCURVE",
"724 624 OFFCURVE",
"796 528 CURVE SMOOTH",
"815 502 OFFCURVE",
"827 472 OFFCURVE",
"827 440 CURVE SMOOTH",
"827 357 OFFCURVE",
"758 291 OFFCURVE",
"691 254 CURVE SMOOTH",
"627 218 OFFCURVE",
"536 202 OFFCURVE",
"463 202 CURVE SMOOTH",
"450 202 OFFCURVE",
"437 204 OFFCURVE",
"424 204 CURVE SMOOTH",
"413 204 OFFCURVE",
"370 171 OFFCURVE",
"370 160 CURVE SMOOTH",
"370 153 OFFCURVE",
"398 154 OFFCURVE",
"403 154 CURVE SMOOTH"
);
},
{
closed = 1;
nodes = (
"23 -133 LINE SMOOTH",
"166 -132 OFFCURVE",
"228 -41 OFFCURVE",
"290 72 CURVE SMOOTH",
"318 122 OFFCURVE",
"339 176 OFFCURVE",
"359 230 CURVE SMOOTH",
"376 275 OFFCURVE",
"392 321 OFFCURVE",
"408 367 CURVE SMOOTH",
"421 403 OFFCURVE",
"486 607 OFFCURVE",
"532 607 CURVE SMOOTH",
"535 607 OFFCURVE",
"547 608 OFFCURVE",
"547 614 CURVE SMOOTH",
"547 619 OFFCURVE",
"539 620 OFFCURVE",
"537 620 CURVE SMOOTH",
"507 620 OFFCURVE",
"472 611 OFFCURVE",
"448 593 CURVE SMOOTH",
"430 579 OFFCURVE",
"425 569 OFFCURVE",
"418 548 CURVE SMOOTH",
"365 391 OFFCURVE",
"241 -87 OFFCURVE",
"42 -114 CURVE SMOOTH",
"35 -115 OFFCURVE",
"27 -115 OFFCURVE",
"20 -115 CURVE SMOOTH",
"-7 -115 OFFCURVE",
"-49 -86 OFFCURVE",
"-49 -58 CURVE SMOOTH",
"-49 -46 OFFCURVE",
"-38 -34 OFFCURVE",
"-38 -21 CURVE SMOOTH",
"-38 -20 OFFCURVE",
"-39 -18 OFFCURVE",
"-41 -18 CURVE SMOOTH",
"-56 -18 OFFCURVE",
"-62 -46 OFFCURVE",
"-62 -58 CURVE SMOOTH",
"-62 -69 OFFCURVE",
"-56 -79 OFFCURVE",
"-56 -90 CURVE SMOOTH",
"-56 -101 OFFCURVE",
"-67 -95 OFFCURVE",
"-67 -104 CURVE SMOOTH",
"-67 -112 OFFCURVE",
"-47 -122 OFFCURVE",
"-41 -126 CURVE SMOOTH",
"-29 -133 OFFCURVE",
"-6 -133 OFFCURVE",
"9 -133 CURVE SMOOTH"
);
}
);
};
layerId = "56A77921-5252-498D-AF45-CD2B441B871C";
paths = (
{
closed = 1;
nodes = (
"403 154 LINE SMOOTH",
"496 154 OFFCURVE",
"631 199 OFFCURVE",
"714 242 CURVE SMOOTH",
"791 282 OFFCURVE",
"871 349 OFFCURVE",
"871 443 CURVE SMOOTH",
"871 482 OFFCURVE",
"857 518 OFFCURVE",
"834 549 CURVE SMOOTH",
"751 659 OFFCURVE",
"580 690 OFFCURVE",
"452 690 CURVE SMOOTH",
"279 690 OFFCURVE",
"75 629 OFFCURVE",
"18 446 CURVE SMOOTH",
"12 428 OFFCURVE",
"7 402 OFFCURVE",
"7 383 CURVE SMOOTH",
"7 372 OFFCURVE",
"14 332 OFFCURVE",
"27 332 CURVE SMOOTH",
"29 332 OFFCURVE",
"32 338 OFFCURVE",
"34 340 CURVE",
"34 340 OFFCURVE",
"35 341 OFFCURVE",
"36 341 CURVE SMOOTH",
"46 341 OFFCURVE",
"61 315 OFFCURVE",
"90 315 CURVE SMOOTH",
"97 315 OFFCURVE",
"114 321 OFFCURVE",
"114 329 CURVE SMOOTH",
"114 334 OFFCURVE",
"101 334 OFFCURVE",
"99 334 CURVE SMOOTH",
"94 334 OFFCURVE",
"76 333 OFFCURVE",
"73 335 CURVE",
"43 349 OFFCURVE",
"34 384 OFFCURVE",
"34 415 CURVE SMOOTH",
"34 431 OFFCURVE",
"36 446 OFFCURVE",
"41 461 CURVE SMOOTH",
"96 619 OFFCURVE",
"305 644 OFFCURVE",
"448 644 CURVE SMOOTH",
"559 644 OFFCURVE",
"724 624 OFFCURVE",
"796 528 CURVE SMOOTH",
"815 502 OFFCURVE",
"827 472 OFFCURVE",
"827 440 CURVE SMOOTH",
"827 357 OFFCURVE",
"758 291 OFFCURVE",
"691 254 CURVE SMOOTH",
"627 218 OFFCURVE",
"536 202 OFFCURVE",
"463 202 CURVE SMOOTH",
"450 202 OFFCURVE",
"437 204 OFFCURVE",
"424 204 CURVE SMOOTH",
"413 204 OFFCURVE",
"370 171 OFFCURVE",
"370 160 CURVE SMOOTH",
"370 155 OFFCURVE",
"387 154 OFFCURVE",
"397 154 CURVE SMOOTH"
);
},
{
closed = 1;
nodes = (
"23 -133 LINE SMOOTH",
"166 -132 OFFCURVE",
"228 -41 OFFCURVE",
"290 72 CURVE SMOOTH",
"318 122 OFFCURVE",
"339 176 OFFCURVE",
"359 230 CURVE SMOOTH",
"376 275 OFFCURVE",
"392 321 OFFCURVE",
"408 367 CURVE SMOOTH",
"421 403 OFFCURVE",
"486 607 OFFCURVE",
"532 607 CURVE SMOOTH",
"535 607 OFFCURVE",
"547 608 OFFCURVE",
"547 614 CURVE SMOOTH",
"547 619 OFFCURVE",
"539 620 OFFCURVE",
"537 620 CURVE SMOOTH",
"507 620 OFFCURVE",
"472 611 OFFCURVE",
"448 593 CURVE SMOOTH",
"430 579 OFFCURVE",
"425 569 OFFCURVE",
"418 548 CURVE SMOOTH",
"365 391 OFFCURVE",
"241 -87 OFFCURVE",
"42 -114 CURVE SMOOTH",
"35 -115 OFFCURVE",
"27 -115 OFFCURVE",
"20 -115 CURVE SMOOTH",
"-7 -115 OFFCURVE",
"-49 -86 OFFCURVE",
"-49 -58 CURVE SMOOTH",
"-49 -46 OFFCURVE",
"-38 -34 OFFCURVE",
"-38 -21 CURVE SMOOTH",
"-38 -20 OFFCURVE",
"-39 -18 OFFCURVE",
"-41 -18 CURVE SMOOTH",
"-56 -18 OFFCURVE",
"-62 -46 OFFCURVE",
"-62 -58 CURVE SMOOTH",
"-62 -69 OFFCURVE",
"-56 -79 OFFCURVE",
"-56 -90 CURVE SMOOTH",
"-56 -101 OFFCURVE",
"-67 -95 OFFCURVE",
"-67 -104 CURVE SMOOTH",
"-67 -112 OFFCURVE",
"-47 -122 OFFCURVE",
"-41 -126 CURVE SMOOTH",
"-29 -133 OFFCURVE",
"-6 -133 OFFCURVE",
"9 -133 CURVE SMOOTH"
);
}
);
width = 781;
}
);
leftKerningGroup = P;
note = P;
rightKerningGroup = P;
unicode = 0050;
},
{
color = 3;
glyphname = Thorn;
lastChange = "2022-02-01 15:30:14 +0000";
layers = (
{
background = {
paths = (
{
closed = 1;
nodes = (
"48 -78 OFFCURVE",
"92 -76 OFFCURVE",
"101 -76 CURVE SMOOTH",
"160 -77 OFFCURVE",
"197 -80 OFFCURVE",
"211 -84 CURVE",
"223 -70 LINE",
"205 -72 OFFCURVE",
"188 -70 OFFCURVE",
"171 -64 CURVE SMOOTH",
"150 -57 OFFCURVE",
"141 -46 OFFCURVE",
"141 -31 CURVE",
"199 287 LINE",
"219 374 LINE SMOOTH",
"229 409 OFFCURVE",
"235 437 OFFCURVE",
"242 458 CURVE SMOOTH",
"246 469 OFFCURVE",
"258 476 OFFCURVE",
"276 479 CURVE",
"334 479 LINE SMOOTH",
"372 479 OFFCURVE",
"398 468 OFFCURVE",
"416 442 CURVE SMOOTH",
"427 426 OFFCURVE",
"433 407 OFFCURVE",
"433 386 CURVE SMOOTH",
"433 377 OFFCURVE",
"432 367 OFFCURVE",
"430 357 CURVE SMOOTH",
"425 332 OFFCURVE",
"414 309 OFFCURVE",
"397 288 CURVE",
"379 261 OFFCURVE",
"351 242 OFFCURVE",
"317 230 CURVE SMOOTH",
"290 221 OFFCURVE",
"265 217 OFFCURVE",
"240 218 CURVE",
"229 202 LINE",
"237 201 OFFCURVE",
"246 201 OFFCURVE",
"254 201 CURVE SMOOTH",
"280 201 OFFCURVE",
"306 204 OFFCURVE",
"332 212 CURVE SMOOTH",
"378 225 OFFCURVE",
"415 248 OFFCURVE",
"446 284 CURVE SMOOTH",
"469 311 OFFCURVE",
"484 343 OFFCURVE",
"491 377 CURVE SMOOTH",
"494 389 OFFCURVE",
"495 401 OFFCURVE",
"495 412 CURVE SMOOTH",
"495 439 OFFCURVE",
"487 461 OFFCURVE",
"470 477 CURVE SMOOTH",
"448 496 OFFCURVE",
"410 507 OFFCURVE",
"356 507 CURVE SMOOTH",
"339 507 OFFCURVE",
"320 506 OFFCURVE",
"295 504 CURVE SMOOTH",
"250 501 LINE",
"270 589 LINE",
"274 597 OFFCURVE",
"276 605 OFFCURVE",
"279 612 CURVE SMOOTH",
"280 616 LINE SMOOTH",
"281 622 OFFCURVE",
"279 624 OFFCURVE",
"272 624 CURVE SMOOTH",
"269 624 OFFCURVE",
"263 623 OFFCURVE",
"251 621 CURVE SMOOTH",
"239 618 OFFCURVE",
"230 618 OFFCURVE",
"223 618 CURVE SMOOTH",
"181 619 OFFCURVE",
"155 620 OFFCURVE",
"142 622 CURVE",
"131 606 LINE",
"142 608 OFFCURVE",
"151 609 OFFCURVE",
"160 609 CURVE SMOOTH",
"176 609 OFFCURVE",
"188 605 OFFCURVE",
"197 596 CURVE",
"199 593 OFFCURVE",
"196 556 OFFCURVE",
"185 488 CURVE SMOOTH",
"173 411 OFFCURVE",
"160 337 OFFCURVE",
"145 265 CURVE SMOOTH",
"120 145 LINE SMOOTH",
"100 48 OFFCURVE",
"85 -11 OFFCURVE",
"76 -31 CURVE SMOOTH",
"70 -45 OFFCURVE",
"57 -55 OFFCURVE",
"38 -62 CURVE SMOOTH",
"24 -68 OFFCURVE",
"8 -71 OFFCURVE",
"-8 -71 CURVE SMOOTH",
"-14 -71 OFFCURVE",
"-18 -70 OFFCURVE",
"-21 -70 CURVE",
"-31 -84 LINE"
);
},
{
closed = 1;
nodes = (
"403 154 LINE SMOOTH",
"496 154 OFFCURVE",
"631 199 OFFCURVE",
"714 242 CURVE SMOOTH",
"791 282 OFFCURVE",
"871 349 OFFCURVE",
"871 443 CURVE SMOOTH",
"871 482 OFFCURVE",
"857 518 OFFCURVE",
"834 549 CURVE SMOOTH",
"751 659 OFFCURVE",
"580 690 OFFCURVE",
"452 690 CURVE SMOOTH",
"279 690 OFFCURVE",
"75 629 OFFCURVE",
"18 446 CURVE SMOOTH",
"12 428 OFFCURVE",
"7 402 OFFCURVE",
"7 383 CURVE SMOOTH",
"7 372 OFFCURVE",
"14 332 OFFCURVE",
"27 332 CURVE SMOOTH",
"29 332 OFFCURVE",
"32 338 OFFCURVE",
"34 340 CURVE",
"34 340 OFFCURVE",
"35 341 OFFCURVE",
"36 341 CURVE SMOOTH",
"46 341 OFFCURVE",
"61 315 OFFCURVE",
"90 315 CURVE SMOOTH",
"97 315 OFFCURVE",
"114 321 OFFCURVE",
"114 329 CURVE SMOOTH",
"114 334 OFFCURVE",
"101 334 OFFCURVE",
"99 334 CURVE SMOOTH",
"94 334 OFFCURVE",
"76 333 OFFCURVE",
"73 335 CURVE",
"43 349 OFFCURVE",
"34 384 OFFCURVE",
"34 415 CURVE SMOOTH",
"34 431 OFFCURVE",
"36 446 OFFCURVE",
"41 461 CURVE SMOOTH",
"96 619 OFFCURVE",
"305 644 OFFCURVE",
"448 644 CURVE SMOOTH",
"559 644 OFFCURVE",
"724 624 OFFCURVE",
"796 528 CURVE SMOOTH",
"815 502 OFFCURVE",
"827 472 OFFCURVE",
"827 440 CURVE SMOOTH",
"827 357 OFFCURVE",
"758 291 OFFCURVE",
"691 254 CURVE SMOOTH",
"627 218 OFFCURVE",
"536 202 OFFCURVE",
"463 202 CURVE SMOOTH",
"450 202 OFFCURVE",
"437 204 OFFCURVE",
"424 204 CURVE SMOOTH",
"413 204 OFFCURVE",
"370 171 OFFCURVE",
"370 160 CURVE SMOOTH",
"370 155 OFFCURVE",
"387 154 OFFCURVE",
"397 154 CURVE SMOOTH"
);
},
{
closed = 1;
nodes = (
"23 -133 LINE SMOOTH",
"166 -132 OFFCURVE",
"228 -41 OFFCURVE",
"290 72 CURVE SMOOTH",
"318 122 OFFCURVE",
"339 176 OFFCURVE",
"359 230 CURVE SMOOTH",
"376 275 OFFCURVE",
"392 321 OFFCURVE",
"408 367 CURVE SMOOTH",
"421 403 OFFCURVE",
"486 607 OFFCURVE",
"532 607 CURVE SMOOTH",
"535 607 OFFCURVE",
"547 608 OFFCURVE",
"547 614 CURVE SMOOTH",
"547 619 OFFCURVE",
"539 620 OFFCURVE",
"537 620 CURVE SMOOTH",
"507 620 OFFCURVE",
"472 611 OFFCURVE",
"448 593 CURVE SMOOTH",
"430 579 OFFCURVE",
"425 569 OFFCURVE",
"418 548 CURVE SMOOTH",
"365 391 OFFCURVE",
"241 -87 OFFCURVE",
"42 -114 CURVE SMOOTH",
"35 -115 OFFCURVE",
"27 -115 OFFCURVE",
"20 -115 CURVE SMOOTH",
"-7 -115 OFFCURVE",
"-49 -86 OFFCURVE",
"-49 -58 CURVE SMOOTH",
"-49 -46 OFFCURVE",
"-38 -34 OFFCURVE",
"-38 -21 CURVE SMOOTH",
"-38 -20 OFFCURVE",
"-39 -18 OFFCURVE",
"-41 -18 CURVE SMOOTH",
"-56 -18 OFFCURVE",
"-62 -46 OFFCURVE",
"-62 -58 CURVE SMOOTH",
"-62 -69 OFFCURVE",
"-56 -79 OFFCURVE",
"-56 -90 CURVE SMOOTH",
"-56 -101 OFFCURVE",
"-67 -95 OFFCURVE",
"-67 -104 CURVE SMOOTH",
"-67 -112 OFFCURVE",
"-47 -122 OFFCURVE",
"-41 -126 CURVE SMOOTH",
"-29 -133 OFFCURVE",
"-6 -133 OFFCURVE",
"9 -133 CURVE SMOOTH"
);
}
);
};
layerId = "56A77921-5252-498D-AF45-CD2B441B871C";
paths = (
{
closed = 1;
nodes = (
"23 -133 LINE SMOOTH",
"166 -133 OFFCURVE",
"228 -41 OFFCURVE",
"290 72 CURVE SMOOTH",
"318 122 OFFCURVE",
"339 176 OFFCURVE",
"359 230 CURVE SMOOTH",
"376 275 OFFCURVE",
"392 321 OFFCURVE",
"408 367 CURVE SMOOTH",
"421 403 OFFCURVE",
"516 707 OFFCURVE",
"562 707 CURVE SMOOTH",
"565 707 OFFCURVE",
"577 708 OFFCURVE",
"577 714 CURVE SMOOTH",
"577 719 OFFCURVE",
"569 720 OFFCURVE",
"567 720 CURVE SMOOTH",
"537 720 OFFCURVE",
"502 711 OFFCURVE",
"478 693 CURVE SMOOTH",
"460 679 OFFCURVE",
"455 669 OFFCURVE",
"448 648 CURVE SMOOTH",
"341 302 OFFCURVE",
"231 -87 OFFCURVE",
"42 -114 CURVE SMOOTH",
"35 -115 OFFCURVE",
"27 -115 OFFCURVE",
"20 -115 CURVE SMOOTH",
"-7 -115 OFFCURVE",
"-49 -86 OFFCURVE",
"-49 -58 CURVE SMOOTH",
"-49 -46 OFFCURVE",
"-38 -34 OFFCURVE",
"-38 -21 CURVE SMOOTH",
"-38 -20 OFFCURVE",
"-39 -18 OFFCURVE",
"-41 -18 CURVE SMOOTH",
"-56 -18 OFFCURVE",
"-62 -46 OFFCURVE",
"-62 -58 CURVE SMOOTH",
"-62 -69 OFFCURVE",
"-56 -79 OFFCURVE",
"-56 -90 CURVE SMOOTH",
"-56 -101 OFFCURVE",
"-67 -95 OFFCURVE",
"-67 -104 CURVE SMOOTH",
"-67 -112 OFFCURVE",
"-47 -122 OFFCURVE",
"-41 -126 CURVE SMOOTH",
"-29 -133 OFFCURVE",
"-6 -133 OFFCURVE",
"9 -133 CURVE SMOOTH"
);
},
{
closed = 1;
nodes = (
"360 54 LINE SMOOTH",
"453 54 OFFCURVE",
"588 99 OFFCURVE",
"671 142 CURVE SMOOTH",
"748 182 OFFCURVE",
"828 249 OFFCURVE",
"828 343 CURVE SMOOTH",
"828 382 OFFCURVE",
"814 418 OFFCURVE",
"791 449 CURVE SMOOTH",
"708 559 OFFCURVE",
"537 590 OFFCURVE",
"409 590 CURVE SMOOTH",
"236 590 OFFCURVE",
"32 529 OFFCURVE",
"-25 346 CURVE SMOOTH",
"-31 328 OFFCURVE",
"-36 302 OFFCURVE",
"-36 283 CURVE SMOOTH",
"-36 272 OFFCURVE",
"-29 232 OFFCURVE",
"-16 232 CURVE SMOOTH",
"-14 232 OFFCURVE",
"-11 238 OFFCURVE",
"-9 240 CURVE",
"-9 240 OFFCURVE",
"-8 241 OFFCURVE",
"-7 241 CURVE SMOOTH",
"3 241 OFFCURVE",
"18 215 OFFCURVE",
"47 215 CURVE SMOOTH",
"54 215 OFFCURVE",
"71 221 OFFCURVE",
"71 229 CURVE SMOOTH",
"71 234 OFFCURVE",
"58 234 OFFCURVE",
"56 234 CURVE SMOOTH",
"51 234 OFFCURVE",
"33 233 OFFCURVE",
"30 235 CURVE",
"0 249 OFFCURVE",
"-9 284 OFFCURVE",
"-9 315 CURVE SMOOTH",
"-9 331 OFFCURVE",
"-7 346 OFFCURVE",
"-2 361 CURVE SMOOTH",
"53 519 OFFCURVE",
"262 544 OFFCURVE",
"405 544 CURVE SMOOTH",
"516 544 OFFCURVE",
"681 524 OFFCURVE",
"753 428 CURVE SMOOTH",
"772 402 OFFCURVE",
"784 372 OFFCURVE",
"784 340 CURVE SMOOTH",
"784 257 OFFCURVE",
"715 191 OFFCURVE",
"648 154 CURVE SMOOTH",
"584 118 OFFCURVE",
"493 102 OFFCURVE",
"420 102 CURVE SMOOTH",
"407 102 OFFCURVE",
"394 104 OFFCURVE",
"381 104 CURVE SMOOTH",
"370 104 OFFCURVE",
"327 71 OFFCURVE",
"327 60 CURVE SMOOTH",
"327 55 OFFCURVE",
"344 54 OFFCURVE",
"354 54 CURVE SMOOTH"
);
}
);
width = 768;
}
);
leftKerningGroup = Thorn;
note = Thorn;
rightKerningGroup = Thorn;
unicode = 00DE;
},
{
glyphname = Q;
lastChange = "2022-02-01 15:30:14 +0000";
layers = (
{
background = {
paths = (
{
closed = 1;
nodes = (
"497 -34 OFFCURVE",
"613 9 OFFCURVE",
"709 66 CURVE SMOOTH",
"807 124 OFFCURVE",
"941 260 OFFCURVE",
"955 377 CURVE SMOOTH",
"956 384 OFFCURVE",
"956 390 OFFCURVE",
"956 397 CURVE SMOOTH",
"956 495 OFFCURVE",
"874 547 OFFCURVE",
"798 590 CURVE SMOOTH",
"790 595 OFFCURVE",
"782 599 OFFCURVE",
"773 603 CURVE",
"776 609 OFFCURVE",
"779 617 OFFCURVE",
"779 624 CURVE SMOOTH",
"779 672 OFFCURVE",
"704 681 OFFCURVE",
"669 681 CURVE SMOOTH",
"574 681 OFFCURVE",
"463 632 OFFCURVE",
"383 584 CURVE SMOOTH",
"249 503 OFFCURVE",
"121 380 OFFCURVE",
"121 212 CURVE SMOOTH",
"121 46 OFFCURVE",
"226 -34 OFFCURVE",
"384 -34 CURVE SMOOTH"
);
},
{
closed = 1;
nodes = (
"626 -285 OFFCURVE",
"675 -260 OFFCURVE",
"722 -244 CURVE SMOOTH",
"774 -227 OFFCURVE",
"823 -203 OFFCURVE",
"859 -160 CURVE SMOOTH",
"869 -149 OFFCURVE",
"884 -128 OFFCURVE",
"884 -113 CURVE SMOOTH",
"884 -107 OFFCURVE",
"882 -102 OFFCURVE",
"877 -99 CURVE",
"852 -114 OFFCURVE",
"835 -138 OFFCURVE",
"816 -159 CURVE SMOOTH",
"760 -222 OFFCURVE",
"694 -253 OFFCURVE",
"610 -253 CURVE SMOOTH",
"575 -253 OFFCURVE",
"536 -246 OFFCURVE",
"505 -228 CURVE SMOOTH",
"411 -175 OFFCURVE",
"328 -7 OFFCURVE",
"216 -7 CURVE SMOOTH",
"183 -7 OFFCURVE",
"136 -27 OFFCURVE",
"116 -53 CURVE SMOOTH",
"112 -59 OFFCURVE",
"104 -74 OFFCURVE",
"104 -81 CURVE SMOOTH",
"104 -82 OFFCURVE",
"105 -83 OFFCURVE",
"106 -83 CURVE SMOOTH",
"117 -83 OFFCURVE",
"137 -43 OFFCURVE",
"180 -43 CURVE SMOOTH",
"267 -43 OFFCURVE",
"351 -226 OFFCURVE",
"474 -265 CURVE SMOOTH",
"507 -276 OFFCURVE",
"541 -285 OFFCURVE",
"575 -285 CURVE SMOOTH"
);
},
{
closed = 1;
nodes = (
"310 9 OFFCURVE",
"184 74 OFFCURVE",
"184 231 CURVE SMOOTH",
"184 382 OFFCURVE",
"302 518 OFFCURVE",
"429 586 CURVE SMOOTH",
"490 619 OFFCURVE",
"532 642 OFFCURVE",
"603 647 CURVE SMOOTH",
"617 648 OFFCURVE",
"632 649 OFFCURVE",
"646 649 CURVE SMOOTH",
"676 649 OFFCURVE",
"737 646 OFFCURVE",
"750 613 CURVE",
"736 618 OFFCURVE",
"722 621 OFFCURVE",
"707 621 CURVE SMOOTH",
"697 621 OFFCURVE",
"688 619 OFFCURVE",
"679 615 CURVE SMOOTH",
"666 609 OFFCURVE",
"633 584 OFFCURVE",
"633 569 CURVE SMOOTH",
"633 566 OFFCURVE",
"638 565 OFFCURVE",
"640 565 CURVE SMOOTH",
"645 565 OFFCURVE",
"648 567 OFFCURVE",
"650 571 CURVE",
"656 571 LINE SMOOTH",
"682 572 OFFCURVE",
"710 565 OFFCURVE",
"735 558 CURVE SMOOTH",
"826 532 OFFCURVE",
"903 477 OFFCURVE",
"903 374 CURVE SMOOTH",
"903 253 OFFCURVE",
"795 135 OFFCURVE",
"696 78 CURVE SMOOTH",
"623 36 OFFCURVE",
"536 9 OFFCURVE",
"452 9 CURVE SMOOTH"
);
}
);
};
layerId = "56A77921-5252-498D-AF45-CD2B441B871C";
paths = (
{
closed = 1;
nodes = (
"497 -34 OFFCURVE",
"613 9 OFFCURVE",
"709 66 CURVE SMOOTH",
"807 124 OFFCURVE",
"941 260 OFFCURVE",
"955 377 CURVE SMOOTH",
"956 384 OFFCURVE",
"956 390 OFFCURVE",
"956 397 CURVE SMOOTH",
"956 495 OFFCURVE",
"874 547 OFFCURVE",
"798 590 CURVE SMOOTH",
"790 595 OFFCURVE",
"782 599 OFFCURVE",
"773 603 CURVE",
"776 609 OFFCURVE",
"779 617 OFFCURVE",
"779 624 CURVE SMOOTH",
"779 672 OFFCURVE",
"704 681 OFFCURVE",
"669 681 CURVE SMOOTH",
"574 681 OFFCURVE",
"463 632 OFFCURVE",
"383 584 CURVE SMOOTH",
"249 503 OFFCURVE",
"121 380 OFFCURVE",
"121 212 CURVE SMOOTH",
"121 46 OFFCURVE",
"226 -34 OFFCURVE",
"384 -34 CURVE SMOOTH"
);
},
{
closed = 1;
nodes = (
"626 -285 OFFCURVE",
"675 -260 OFFCURVE",
"722 -244 CURVE SMOOTH",
"774 -227 OFFCURVE",
"823 -203 OFFCURVE",
"859 -160 CURVE SMOOTH",
"869 -149 OFFCURVE",
"884 -128 OFFCURVE",
"884 -113 CURVE SMOOTH",
"884 -107 OFFCURVE",
"882 -102 OFFCURVE",
"877 -99 CURVE",
"852 -114 OFFCURVE",
"835 -138 OFFCURVE",
"816 -159 CURVE SMOOTH",
"760 -222 OFFCURVE",
"694 -253 OFFCURVE",
"610 -253 CURVE SMOOTH",
"575 -253 OFFCURVE",
"536 -246 OFFCURVE",
"505 -228 CURVE SMOOTH",
"411 -175 OFFCURVE",
"328 -7 OFFCURVE",
"216 -7 CURVE SMOOTH",
"183 -7 OFFCURVE",
"136 -27 OFFCURVE",
"116 -53 CURVE SMOOTH",
"112 -59 OFFCURVE",
"104 -74 OFFCURVE",
"104 -81 CURVE SMOOTH",
"104 -82 OFFCURVE",
"105 -83 OFFCURVE",
"106 -83 CURVE SMOOTH",
"117 -83 OFFCURVE",
"137 -43 OFFCURVE",
"180 -43 CURVE SMOOTH",
"267 -43 OFFCURVE",
"351 -226 OFFCURVE",
"474 -265 CURVE SMOOTH",
"507 -276 OFFCURVE",
"541 -285 OFFCURVE",
"575 -285 CURVE SMOOTH"
);
},
{
closed = 1;
nodes = (
"310 9 OFFCURVE",
"184 74 OFFCURVE",
"184 231 CURVE SMOOTH",
"184 382 OFFCURVE",
"302 518 OFFCURVE",
"429 586 CURVE SMOOTH",
"490 619 OFFCURVE",
"532 642 OFFCURVE",
"603 647 CURVE SMOOTH",
"617 648 OFFCURVE",
"632 649 OFFCURVE",
"646 649 CURVE SMOOTH",
"676 649 OFFCURVE",
"737 646 OFFCURVE",
"750 613 CURVE",
"736 618 OFFCURVE",
"722 621 OFFCURVE",
"707 621 CURVE SMOOTH",
"697 621 OFFCURVE",
"688 619 OFFCURVE",
"679 615 CURVE SMOOTH",
"666 609 OFFCURVE",
"633 584 OFFCURVE",
"633 569 CURVE SMOOTH",
"633 566 OFFCURVE",
"638 565 OFFCURVE",
"640 565 CURVE SMOOTH",
"645 565 OFFCURVE",
"648 567 OFFCURVE",
"650 571 CURVE",
"656 571 LINE SMOOTH",
"682 572 OFFCURVE",
"710 565 OFFCURVE",
"735 558 CURVE SMOOTH",
"826 532 OFFCURVE",
"903 477 OFFCURVE",
"903 374 CURVE SMOOTH",
"903 253 OFFCURVE",
"795 135 OFFCURVE",
"696 78 CURVE SMOOTH",
"623 36 OFFCURVE",
"536 9 OFFCURVE",
"452 9 CURVE SMOOTH"
);
}
);
width = 925;
}
);
leftKerningGroup = Q;
note = Q;
rightKerningGroup = Q;
unicode = 0051;
},
{
color = 1;
glyphname = R;
lastChange = "2022-02-16 03:29:48 +0000";
layers = (
{
anchors = (
{
name = bottom;
position = "{519, 0}";
},
{
name = top;
position = "{679, 705}";
}
);
background = {
paths = (
{
closed = 1;
nodes = (
"160 -133 LINE SMOOTH",
"305 -132 OFFCURVE",
"363 -41 OFFCURVE",
"427 72 CURVE SMOOTH",
"461 133 OFFCURVE",
"486 200 OFFCURVE",
"509 266 CURVE",
"560 162 OFFCURVE",
"674 -34 OFFCURVE",
"807 -34 CURVE SMOOTH",
"852 -34 OFFCURVE",
"882 -8 OFFCURVE",
"897 34 CURVE SMOOTH",
"904 53 OFFCURVE",
"903 73 OFFCURVE",
"907 93 CURVE SMOOTH",
"909 100 OFFCURVE",
"910 107 OFFCURVE",
"910 114 CURVE SMOOTH",
"910 118 OFFCURVE",
"910 120 OFFCURVE",
"909 124 CURVE SMOOTH",
"909 126 OFFCURVE",
"909 129 OFFCURVE",
"907 129 CURVE SMOOTH",
"906 129 OFFCURVE",
"906 129 OFFCURVE",
"905 129 CURVE",
"902 119 OFFCURVE",
"901 106 OFFCURVE",
"898 96 CURVE SMOOTH",
"887 58 OFFCURVE",
"867 8 OFFCURVE",
"820 8 CURVE SMOOTH",
"729 8 OFFCURVE",
"618 189 OFFCURVE",
"581 259 CURVE",
"694 273 OFFCURVE",
"986 398 OFFCURVE",
"986 534 CURVE SMOOTH",
"986 633 OFFCURVE",
"848 683 OFFCURVE",
"769 700 CURVE SMOOTH",
"722 710 OFFCURVE",
"674 715 OFFCURVE",
"626 715 CURVE SMOOTH",
"456 715 OFFCURVE",
"192 651 OFFCURVE",
"148 460 CURVE SMOOTH",
"145 446 OFFCURVE",
"143 430 OFFCURVE",
"143 416 CURVE SMOOTH",
"143 405 OFFCURVE",
"153 364 OFFCURVE",
"165 364 CURVE SMOOTH",
"170 364 OFFCURVE",
"170 369 OFFCURVE",
"173 372 CURVE",
"173 372 OFFCURVE",
"175 373 OFFCURVE",
"176 373 CURVE SMOOTH",
"185 373 OFFCURVE",
"201 357 OFFCURVE",
"224 357 CURVE SMOOTH",
"231 357 OFFCURVE",
"251 361 OFFCURVE",
"251 371 CURVE SMOOTH",
"251 374 OFFCURVE",
"245 374 OFFCURVE",
"244 374 CURVE SMOOTH",
"234 374 OFFCURVE",
"224 371 OFFCURVE",
"214 371 CURVE SMOOTH",
"213 371 OFFCURVE",
"212 371 OFFCURVE",
"211 371 CURVE",
"178 383 OFFCURVE",
"166 415 OFFCURVE",
"166 448 CURVE SMOOTH",
"166 457 OFFCURVE",
"167 466 OFFCURVE",
"169 475 CURVE SMOOTH",
"210 631 OFFCURVE",
"455 669 OFFCURVE",
"592 669 CURVE SMOOTH",
"637 669 OFFCURVE",
"682 666 OFFCURVE",
"727 659 CURVE SMOOTH",
"793 648 OFFCURVE",
"946 612 OFFCURVE",
"946 524 CURVE SMOOTH",
"946 460 OFFCURVE",
"861 400 OFFCURVE",
"813 370 CURVE SMOOTH",
"750 330 OFFCURVE",
"652 300 OFFCURVE",
"577 300 CURVE SMOOTH",
"573 300 OFFCURVE",
"567 294 OFFCURVE",
"565 292 CURVE",
"555 311 OFFCURVE",
"547 331 OFFCURVE",
"540 351 CURVE",
"554 391 OFFCURVE",
"633 644 OFFCURVE",
"681 644 CURVE SMOOTH",
"684 644 OFFCURVE",
"697 645 OFFCURVE",
"697 651 CURVE SMOOTH",
"697 655 OFFCURVE",
"689 656 OFFCURVE",
"686 656 CURVE SMOOTH",
"656 656 OFFCURVE",
"622 648 OFFCURVE",
"598 629 CURVE SMOOTH",
"580 616 OFFCURVE",
"574 605 OFFCURVE",
"568 584 CURVE SMOOTH",
"545 517 OFFCURVE",
"525 449 OFFCURVE",
"503 381 CURVE",
"492 379 OFFCURVE",
"470 373 OFFCURVE",
"470 359 CURVE SMOOTH",
"470 353 OFFCURVE",
"480 330 OFFCURVE",
"483 323 CURVE",
"438 195 OFFCURVE",
"330 -93 OFFCURVE",
"179 -114 CURVE SMOOTH",
"172 -115 OFFCURVE",
"164 -115 OFFCURVE",
"157 -115 CURVE SMOOTH",
"130 -115 OFFCURVE",
"88 -86 OFFCURVE",
"88 -58 CURVE SMOOTH",
"88 -49 OFFCURVE",
"99 -32 OFFCURVE",
"99 -21 CURVE SMOOTH",
"99 -20 OFFCURVE",
"98 -18 OFFCURVE",
"96 -18 CURVE SMOOTH",
"81 -18 OFFCURVE",
"75 -46 OFFCURVE",
"75 -58 CURVE SMOOTH",
"75 -69 OFFCURVE",
"81 -79 OFFCURVE",
"81 -90 CURVE SMOOTH",
"81 -101 OFFCURVE",
"70 -95 OFFCURVE",
"70 -104 CURVE SMOOTH",
"70 -112 OFFCURVE",
"90 -122 OFFCURVE",
"96 -126 CURVE SMOOTH",
"108 -133 OFFCURVE",
"131 -133 OFFCURVE",
"146 -133 CURVE SMOOTH"
);
}
);
};
layerId = "56A77921-5252-498D-AF45-CD2B441B871C";
paths = (
{
closed = 1;
nodes = (
"160 -133 LINE SMOOTH",
"305 -133 OFFCURVE",
"363 -41 OFFCURVE",
"427 72 CURVE SMOOTH",
"461 133 OFFCURVE",
"486 200 OFFCURVE",
"509 266 CURVE",
"560 162 OFFCURVE",
"674 -34 OFFCURVE",
"807 -34 CURVE SMOOTH",
"852 -34 OFFCURVE",
"882 -8 OFFCURVE",
"897 34 CURVE SMOOTH",
"904 53 OFFCURVE",
"903 73 OFFCURVE",
"907 93 CURVE SMOOTH",
"909 100 OFFCURVE",
"910 107 OFFCURVE",
"910 114 CURVE SMOOTH",
"910 118 OFFCURVE",
"910 120 OFFCURVE",
"909 124 CURVE SMOOTH",
"909 126 OFFCURVE",
"909 129 OFFCURVE",
"907 129 CURVE SMOOTH",
"905 129 LINE",
"902 119 OFFCURVE",
"901 106 OFFCURVE",
"898 96 CURVE SMOOTH",
"887 58 OFFCURVE",
"867 8 OFFCURVE",
"820 8 CURVE SMOOTH",
"729 8 OFFCURVE",
"618 189 OFFCURVE",
"581 259 CURVE",
"694 273 OFFCURVE",
"986 398 OFFCURVE",
"986 534 CURVE SMOOTH",
"986 633 OFFCURVE",
"848 683 OFFCURVE",
"769 700 CURVE SMOOTH",
"722 710 OFFCURVE",
"674 715 OFFCURVE",
"626 715 CURVE SMOOTH",
"456 715 OFFCURVE",
"192 651 OFFCURVE",
"148 460 CURVE SMOOTH",
"145 446 OFFCURVE",
"143 430 OFFCURVE",
"143 416 CURVE SMOOTH",
"143 405 OFFCURVE",
"153 364 OFFCURVE",
"165 364 CURVE SMOOTH",
"170 364 OFFCURVE",
"170 369 OFFCURVE",
"173 372 CURVE",
"173 372 OFFCURVE",
"175 373 OFFCURVE",
"176 373 CURVE SMOOTH",
"185 373 OFFCURVE",
"201 357 OFFCURVE",
"224 357 CURVE SMOOTH",
"231 357 OFFCURVE",
"251 361 OFFCURVE",
"251 371 CURVE SMOOTH",
"251 374 OFFCURVE",
"245 374 OFFCURVE",
"244 374 CURVE SMOOTH",
"234 374 OFFCURVE",
"224 371 OFFCURVE",
"214 371 CURVE SMOOTH",
"211 371 LINE",
"178 383 OFFCURVE",
"166 415 OFFCURVE",
"166 448 CURVE SMOOTH",
"166 457 OFFCURVE",
"167 466 OFFCURVE",
"169 475 CURVE SMOOTH",
"210 631 OFFCURVE",
"455 669 OFFCURVE",
"592 669 CURVE SMOOTH",
"637 669 OFFCURVE",
"682 666 OFFCURVE",
"727 659 CURVE SMOOTH",
"793 648 OFFCURVE",
"946 612 OFFCURVE",
"946 524 CURVE SMOOTH",
"946 460 OFFCURVE",
"861 400 OFFCURVE",
"813 370 CURVE SMOOTH",
"750 330 OFFCURVE",
"652 300 OFFCURVE",
"577 300 CURVE SMOOTH",
"573 300 OFFCURVE",
"567 294 OFFCURVE",
"565 292 CURVE",
"555 311 OFFCURVE",
"547 331 OFFCURVE",
"540 351 CURVE",
"554 391 OFFCURVE",
"633 644 OFFCURVE",
"681 644 CURVE SMOOTH",
"684 644 OFFCURVE",
"697 645 OFFCURVE",
"697 651 CURVE SMOOTH",
"697 655 OFFCURVE",
"689 656 OFFCURVE",
"686 656 CURVE SMOOTH",
"656 656 OFFCURVE",
"622 648 OFFCURVE",
"598 629 CURVE SMOOTH",
"580 616 OFFCURVE",
"574 605 OFFCURVE",
"568 584 CURVE SMOOTH",
"545 517 OFFCURVE",
"525 449 OFFCURVE",
"503 381 CURVE",
"492 379 OFFCURVE",
"470 373 OFFCURVE",
"470 359 CURVE SMOOTH",
"470 353 OFFCURVE",
"480 330 OFFCURVE",
"483 323 CURVE",
"438 195 OFFCURVE",
"330 -93 OFFCURVE",
"179 -114 CURVE SMOOTH",
"172 -115 OFFCURVE",
"164 -115 OFFCURVE",
"157 -115 CURVE SMOOTH",
"130 -115 OFFCURVE",
"88 -86 OFFCURVE",
"88 -58 CURVE SMOOTH",
"88 -49 OFFCURVE",
"99 -32 OFFCURVE",
"99 -21 CURVE SMOOTH",
"99 -20 OFFCURVE",
"98 -18 OFFCURVE",
"96 -18 CURVE SMOOTH",
"81 -18 OFFCURVE",
"75 -46 OFFCURVE",
"75 -58 CURVE SMOOTH",
"75 -69 OFFCURVE",
"81 -79 OFFCURVE",
"81 -90 CURVE SMOOTH",
"81 -101 OFFCURVE",
"70 -95 OFFCURVE",
"70 -104 CURVE SMOOTH",
"70 -112 OFFCURVE",
"90 -122 OFFCURVE",
"96 -126 CURVE SMOOTH",
"108 -133 OFFCURVE",
"131 -133 OFFCURVE",
"146 -133 CURVE SMOOTH"
);
}
);
width = 921;
}
);
leftKerningGroup = R;
note = R;
rightKerningGroup = R;
unicode = 0052;
},
{
color = 3;
glyphname = S;
lastChange = "2022-02-09 10:51:46 +0000";
layers = (
{
anchors = (
{
name = bottom;
position = "{132, -50}";
},
{
name = cedilla;
position = "{160, -67}";
},
{
name = top;
position = "{592, 685}";
}
);
background = {
paths = (
{
closed = 1;
nodes = (
"352 -88 OFFCURVE",
"611 40 OFFCURVE",
"611 250 CURVE SMOOTH",
"611 327 OFFCURVE",
"526 379 OFFCURVE",
"467 411 CURVE SMOOTH",
"429 433 OFFCURVE",
"372 461 OFFCURVE",
"372 512 CURVE SMOOTH",
"372 593 OFFCURVE",
"488 643 OFFCURVE",
"557 643 CURVE SMOOTH",
"582 643 OFFCURVE",
"620 638 OFFCURVE",
"620 606 CURVE SMOOTH",
"620 588 OFFCURVE",
"611 571 OFFCURVE",
"611 553 CURVE SMOOTH",
"611 548 OFFCURVE",
"623 541 OFFCURVE",
"628 541 CURVE SMOOTH",
"630 541 OFFCURVE",
"631 542 OFFCURVE",
"631 543 CURVE SMOOTH",
"641 583 OFFCURVE",
"651 612 OFFCURVE",
"675 645 CURVE",
"676 645 OFFCURVE",
"676 645 OFFCURVE",
"676 646 CURVE SMOOTH",
"676 647 OFFCURVE",
"675 649 OFFCURVE",
"673 649 CURVE SMOOTH",
"668 649 OFFCURVE",
"640 609 OFFCURVE",
"634 603 CURVE",
"632 605 LINE",
"634 614 OFFCURVE",
"635 623 OFFCURVE",
"635 631 CURVE SMOOTH",
"635 671 OFFCURVE",
"604 684 OFFCURVE",
"569 684 CURVE SMOOTH",
"471 684 OFFCURVE",
"330 585 OFFCURVE",
"330 480 CURVE SMOOTH",
"330 345 OFFCURVE",
"568 326 OFFCURVE",
"568 211 CURVE SMOOTH",
"568 41 OFFCURVE",
"341 -54 OFFCURVE",
"196 -54 CURVE SMOOTH",
"115 -54 OFFCURVE",
"22 -26 OFFCURVE",
"22 71 CURVE SMOOTH",
"22 154 OFFCURVE",
"80 239 OFFCURVE",
"153 275 CURVE SMOOTH",
"177 287 OFFCURVE",
"213 301 OFFCURVE",
"239 301 CURVE SMOOTH",
"248 301 OFFCURVE",
"255 296 OFFCURVE",
"264 296 CURVE SMOOTH",
"267 296 OFFCURVE",
"270 297 OFFCURVE",
"270 301 CURVE SMOOTH",
"270 304 OFFCURVE",
"268 306 OFFCURVE",
"265 307 CURVE SMOOTH",
"261 309 OFFCURVE",
"258 309 OFFCURVE",
"254 311 CURVE SMOOTH",
"244 317 OFFCURVE",
"244 330 OFFCURVE",
"236 330 CURVE SMOOTH",
"161 330 OFFCURVE",
"57 230 OFFCURVE",
"22 167 CURVE SMOOTH",
"1 130 OFFCURVE",
"-16 85 OFFCURVE",
"-16 43 CURVE SMOOTH",
"-16 -59 OFFCURVE",
"84 -88 OFFCURVE",
"168 -88 CURVE SMOOTH"
);
}
);
};
layerId = "56A77921-5252-498D-AF45-CD2B441B871C";
paths = (
{
closed = 1;
nodes = (
"352 -88 OFFCURVE",
"611 40 OFFCURVE",
"611 250 CURVE SMOOTH",
"611 327 OFFCURVE",
"526 379 OFFCURVE",
"467 411 CURVE SMOOTH",
"429 433 OFFCURVE",
"372 461 OFFCURVE",
"372 512 CURVE SMOOTH",
"372 593 OFFCURVE",
"488 643 OFFCURVE",
"557 643 CURVE SMOOTH",
"582 643 OFFCURVE",
"620 638 OFFCURVE",
"620 606 CURVE SMOOTH",
"620 588 OFFCURVE",
"611 571 OFFCURVE",
"611 553 CURVE SMOOTH",
"611 548 OFFCURVE",
"623 541 OFFCURVE",
"628 541 CURVE SMOOTH",
"630 541 OFFCURVE",
"631 542 OFFCURVE",
"631 543 CURVE SMOOTH",
"641 583 OFFCURVE",
"651 612 OFFCURVE",
"675 645 CURVE",
"676 645 OFFCURVE",
"676 645 OFFCURVE",
"676 646 CURVE SMOOTH",
"676 647 OFFCURVE",
"675 649 OFFCURVE",
"673 649 CURVE SMOOTH",
"668 649 OFFCURVE",
"640 609 OFFCURVE",
"634 603 CURVE",
"632 605 LINE",
"634 614 OFFCURVE",
"635 623 OFFCURVE",
"635 631 CURVE SMOOTH",
"635 671 OFFCURVE",
"604 684 OFFCURVE",
"569 684 CURVE SMOOTH",
"471 684 OFFCURVE",
"330 585 OFFCURVE",
"330 480 CURVE SMOOTH",
"330 345 OFFCURVE",
"568 326 OFFCURVE",
"568 211 CURVE SMOOTH",
"568 41 OFFCURVE",
"341 -54 OFFCURVE",
"196 -54 CURVE SMOOTH",
"115 -54 OFFCURVE",
"22 -26 OFFCURVE",
"22 71 CURVE SMOOTH",
"22 154 OFFCURVE",
"80 239 OFFCURVE",
"153 275 CURVE SMOOTH",
"177 287 OFFCURVE",
"213 301 OFFCURVE",
"239 301 CURVE SMOOTH",
"248 301 OFFCURVE",
"255 296 OFFCURVE",
"264 296 CURVE SMOOTH",
"267 296 OFFCURVE",
"270 297 OFFCURVE",
"270 301 CURVE SMOOTH",
"270 304 OFFCURVE",
"268 306 OFFCURVE",
"265 307 CURVE SMOOTH",
"261 309 OFFCURVE",
"258 309 OFFCURVE",
"254 311 CURVE SMOOTH",
"244 317 OFFCURVE",
"244 330 OFFCURVE",
"236 330 CURVE SMOOTH",
"161 330 OFFCURVE",
"57 230 OFFCURVE",
"22 167 CURVE SMOOTH",
"1 130 OFFCURVE",
"-16 85 OFFCURVE",
"-16 43 CURVE SMOOTH",
"-16 -59 OFFCURVE",
"84 -88 OFFCURVE",
"168 -88 CURVE SMOOTH"
);
}
);
width = 623;
}
);
leftKerningGroup = S;
note = S;
rightKerningGroup = S;
unicode = 0053;
},
{
glyphname = Germandbls;
lastChange = "2022-02-01 15:30:14 +0000";
layers = (
{
background = {
paths = (
{
closed = 1;
nodes = (
"46 -110 OFFCURVE",
"139 109 OFFCURVE",
"196 287 CURVE SMOOTH",
"261 491 OFFCURVE",
"321 672 OFFCURVE",
"389 672 CURVE SMOOTH",
"475 672 OFFCURVE",
"513 626 OFFCURVE",
"513 570 CURVE SMOOTH",
"513 485 OFFCURVE",
"430 376 OFFCURVE",
"299 354 CURVE SMOOTH",
"285 352 OFFCURVE",
"269 350 OFFCURVE",
"272 337 CURVE SMOOTH",
"273 327 OFFCURVE",
"323 324 OFFCURVE",
"397 300 CURVE SMOOTH",
"444 285 OFFCURVE",
"483 244 OFFCURVE",
"494 184 CURVE SMOOTH",
"495 177 OFFCURVE",
"496 171 OFFCURVE",
"496 164 CURVE SMOOTH",
"496 71 OFFCURVE",
"384 1 OFFCURVE",
"290 0 CURVE SMOOTH",
"227 0 OFFCURVE",
"186 24 OFFCURVE",
"160 43 CURVE SMOOTH",
"157 45 OFFCURVE",
"122 26 OFFCURVE",
"122 11 CURVE SMOOTH",
"122 7 OFFCURVE",
"125 3 OFFCURVE",
"131 0 CURVE SMOOTH",
"161 -14 OFFCURVE",
"225 -19 OFFCURVE",
"289 -19 CURVE SMOOTH",
"435 -19 OFFCURVE",
"555 44 OFFCURVE",
"555 161 CURVE SMOOTH",
"555 172 OFFCURVE",
"554 183 OFFCURVE",
"552 195 CURVE SMOOTH",
"543 247 OFFCURVE",
"493 291 OFFCURVE",
"442 310 CURVE SMOOTH",
"382 332 OFFCURVE",
"359 340 OFFCURVE",
"320 340 CURVE",
"479 368 OFFCURVE",
"566 470 OFFCURVE",
"566 558 CURVE SMOOTH",
"566 634 OFFCURVE",
"501 700 OFFCURVE",
"362 700 CURVE SMOOTH",
"290 700 OFFCURVE",
"258 646 OFFCURVE",
"150 312 CURVE SMOOTH",
"111 191 OFFCURVE",
"49 -90 OFFCURVE",
"-102 -90 CURVE SMOOTH",
"-107 -90 OFFCURVE",
"-112 -94 OFFCURVE",
"-113 -99 CURVE",
"-110 -109 OFFCURVE",
"-99 -110 OFFCURVE",
"-91 -110 CURVE SMOOTH"
);
}
);
};
layerId = "56A77921-5252-498D-AF45-CD2B441B871C";
paths = (
{
closed = 1;
nodes = (
"46 -110 OFFCURVE",
"139 109 OFFCURVE",
"196 287 CURVE SMOOTH",
"261 491 OFFCURVE",
"321 672 OFFCURVE",
"389 672 CURVE SMOOTH",
"475 672 OFFCURVE",
"513 626 OFFCURVE",
"513 570 CURVE SMOOTH",
"513 485 OFFCURVE",
"430 376 OFFCURVE",
"299 354 CURVE SMOOTH",
"285 352 OFFCURVE",
"269 350 OFFCURVE",
"272 337 CURVE SMOOTH",
"273 327 OFFCURVE",
"323 324 OFFCURVE",
"397 300 CURVE SMOOTH",
"444 285 OFFCURVE",
"483 244 OFFCURVE",
"494 184 CURVE SMOOTH",
"495 177 OFFCURVE",
"496 171 OFFCURVE",
"496 164 CURVE SMOOTH",
"496 71 OFFCURVE",
"384 1 OFFCURVE",
"290 0 CURVE SMOOTH",
"227 0 OFFCURVE",
"186 24 OFFCURVE",
"160 43 CURVE SMOOTH",
"157 45 OFFCURVE",
"122 26 OFFCURVE",
"122 11 CURVE SMOOTH",
"122 7 OFFCURVE",
"125 3 OFFCURVE",
"131 0 CURVE SMOOTH",
"161 -14 OFFCURVE",
"225 -19 OFFCURVE",
"289 -19 CURVE SMOOTH",
"435 -19 OFFCURVE",
"555 44 OFFCURVE",
"555 161 CURVE SMOOTH",
"555 172 OFFCURVE",
"554 183 OFFCURVE",
"552 195 CURVE SMOOTH",
"543 247 OFFCURVE",
"493 291 OFFCURVE",
"442 310 CURVE SMOOTH",
"382 332 OFFCURVE",
"359 340 OFFCURVE",
"320 340 CURVE",
"479 368 OFFCURVE",
"566 470 OFFCURVE",
"566 558 CURVE SMOOTH",
"566 634 OFFCURVE",
"501 700 OFFCURVE",
"362 700 CURVE SMOOTH",
"290 700 OFFCURVE",
"258 646 OFFCURVE",
"150 312 CURVE SMOOTH",
"111 191 OFFCURVE",
"49 -90 OFFCURVE",
"-102 -90 CURVE SMOOTH",
"-107 -90 OFFCURVE",
"-112 -94 OFFCURVE",
"-113 -99 CURVE",
"-110 -109 OFFCURVE",
"-99 -110 OFFCURVE",
"-91 -110 CURVE SMOOTH"
);
}
);
width = 596;
}
);
leftKerningGroup = Germ;
rightKerningGroup = Germ;
unicode = 1E9E;
},
{
color = 1;
glyphname = T;
lastChange = "2022-02-10 10:16:44 +0000";
layers = (
{
anchors = (
{
name = bottom;
position = "{214, 0}";
},
{
name = cedilla;
position = "{120, -57}";
},
{
name = center;
position = "{495, 350}";
},
{
name = top;
position = "{635, 655}";
}
);
background = {
paths = (
{
closed = 1;
nodes = (
"155 -72 OFFCURVE",
"198 -53 OFFCURVE",
"229 -37 CURVE SMOOTH",
"384 45 OFFCURVE",
"456 188 OFFCURVE",
"523 342 CURVE SMOOTH",
"556 420 OFFCURVE",
"588 499 OFFCURVE",
"624 575 CURVE",
"700 556 OFFCURVE",
"779 536 OFFCURVE",
"858 536 CURVE SMOOTH",
"946 536 OFFCURVE",
"1026 563 OFFCURVE",
"1030 661 CURVE",
"1031 665 LINE",
"1031 676 OFFCURVE",
"1018 706 OFFCURVE",
"1004 706 CURVE SMOOTH",
"1001 706 OFFCURVE",
"1000 703 OFFCURVE",
"1000 700 CURVE SMOOTH",
"1000 687 OFFCURVE",
"1006 675 OFFCURVE",
"1006 661 CURVE SMOOTH",
"1006 589 OFFCURVE",
"927 574 OFFCURVE",
"870 574 CURVE SMOOTH",
"815 574 OFFCURVE",
"725 602 OFFCURVE",
"671 618 CURVE SMOOTH",
"536 656 OFFCURVE",
"384 704 OFFCURVE",
"243 704 CURVE SMOOTH",
"204 704 OFFCURVE",
"165 700 OFFCURVE",
"128 686 CURVE SMOOTH",
"92 672 OFFCURVE",
"-2 608 OFFCURVE",
"-21 576 CURVE SMOOTH",
"-33 557 OFFCURVE",
"-39 536 OFFCURVE",
"-39 513 CURVE SMOOTH",
"-39 435 OFFCURVE",
"37 348 OFFCURVE",
"113 333 CURVE",
"115 333 OFFCURVE",
"117 332 OFFCURVE",
"119 332 CURVE SMOOTH",
"122 332 OFFCURVE",
"128 333 OFFCURVE",
"128 337 CURVE SMOOTH",
"128 342 OFFCURVE",
"120 345 OFFCURVE",
"117 347 CURVE",
"77 366 OFFCURVE",
"58 384 OFFCURVE",
"39 424 CURVE SMOOTH",
"22 458 OFFCURVE",
"6 500 OFFCURVE",
"6 539 CURVE SMOOTH",
"6 637 OFFCURVE",
"112 651 OFFCURVE",
"189 651 CURVE SMOOTH",
"315 651 OFFCURVE",
"438 618 OFFCURVE",
"560 593 CURVE",
"543 553 OFFCURVE",
"531 512 OFFCURVE",
"515 472 CURVE SMOOTH",
"457 331 OFFCURVE",
"366 103 OFFCURVE",
"251 5 CURVE SMOOTH",
"227 -16 OFFCURVE",
"195 -37 OFFCURVE",
"162 -37 CURVE SMOOTH",
"103 -37 OFFCURVE",
"39 11 OFFCURVE",
"2 55 CURVE SMOOTH",
"-4 62 OFFCURVE",
"-11 77 OFFCURVE",
"-21 77 CURVE SMOOTH",
"-22 77 OFFCURVE",
"-22 66 OFFCURVE",
"-22 65 CURVE SMOOTH",
"-22 19 OFFCURVE",
"34 -44 OFFCURVE",
"75 -62 CURVE SMOOTH",
"89 -68 OFFCURVE",
"104 -72 OFFCURVE",
"120 -72 CURVE SMOOTH"
);
}
);
};
layerId = "56A77921-5252-498D-AF45-CD2B441B871C";
paths = (
{
closed = 1;
nodes = (
"155 -72 OFFCURVE",
"198 -53 OFFCURVE",
"229 -37 CURVE SMOOTH",
"384 45 OFFCURVE",
"456 188 OFFCURVE",
"523 342 CURVE SMOOTH",
"556 420 OFFCURVE",
"588 499 OFFCURVE",
"624 575 CURVE",
"700 556 OFFCURVE",
"779 536 OFFCURVE",
"858 536 CURVE SMOOTH",
"946 536 OFFCURVE",
"1026 563 OFFCURVE",
"1030 661 CURVE",
"1031 665 LINE",
"1031 676 OFFCURVE",
"1018 706 OFFCURVE",
"1004 706 CURVE SMOOTH",
"1001 706 OFFCURVE",
"1000 703 OFFCURVE",
"1000 700 CURVE SMOOTH",
"1000 687 OFFCURVE",
"1006 675 OFFCURVE",
"1006 661 CURVE SMOOTH",
"1006 589 OFFCURVE",
"927 574 OFFCURVE",
"870 574 CURVE SMOOTH",
"815 574 OFFCURVE",
"725 602 OFFCURVE",
"671 618 CURVE SMOOTH",
"536 656 OFFCURVE",
"384 704 OFFCURVE",
"243 704 CURVE SMOOTH",
"204 704 OFFCURVE",
"165 700 OFFCURVE",
"128 686 CURVE SMOOTH",
"92 672 OFFCURVE",
"-2 608 OFFCURVE",
"-21 576 CURVE SMOOTH",
"-33 557 OFFCURVE",
"-39 536 OFFCURVE",
"-39 513 CURVE SMOOTH",
"-39 435 OFFCURVE",
"37 348 OFFCURVE",
"113 333 CURVE",
"115 333 OFFCURVE",
"117 332 OFFCURVE",
"119 332 CURVE SMOOTH",
"122 332 OFFCURVE",
"128 333 OFFCURVE",
"128 337 CURVE SMOOTH",
"128 342 OFFCURVE",
"120 345 OFFCURVE",
"117 347 CURVE",
"77 366 OFFCURVE",
"58 384 OFFCURVE",
"39 424 CURVE SMOOTH",
"22 458 OFFCURVE",
"6 500 OFFCURVE",
"6 539 CURVE SMOOTH",
"6 637 OFFCURVE",
"112 651 OFFCURVE",
"189 651 CURVE SMOOTH",
"315 651 OFFCURVE",
"438 618 OFFCURVE",
"560 593 CURVE",
"543 553 OFFCURVE",
"531 512 OFFCURVE",
"515 472 CURVE SMOOTH",
"457 331 OFFCURVE",
"366 103 OFFCURVE",
"251 5 CURVE SMOOTH",
"227 -16 OFFCURVE",
"195 -37 OFFCURVE",
"162 -37 CURVE SMOOTH",
"103 -37 OFFCURVE",
"39 11 OFFCURVE",
"2 55 CURVE SMOOTH",
"-4 62 OFFCURVE",
"-11 77 OFFCURVE",
"-21 77 CURVE SMOOTH",
"-22 77 OFFCURVE",
"-22 66 OFFCURVE",
"-22 65 CURVE SMOOTH",
"-22 19 OFFCURVE",
"34 -44 OFFCURVE",
"75 -62 CURVE SMOOTH",
"89 -68 OFFCURVE",
"104 -72 OFFCURVE",
"120 -72 CURVE SMOOTH"
);
}
);
width = 590;
}
);
leftKerningGroup = T;
note = T;
rightKerningGroup = T;
unicode = 0054;
},
{
color = 3;
glyphname = U;
lastChange = "2022-02-09 10:51:46 +0000";
layers = (
{
anchors = (
{
name = bottom;
position = "{394, 0}";
},
{
name = horn;
position = "{873, 681}";
},
{
name = ogonek;
position = "{659, 0}";
},
{
name = top;
position = "{664, 685}";
}
);
background = {
paths = (
{
closed = 1;
nodes = (
"284 -43 OFFCURVE",
"313 -29 OFFCURVE",
"333 -18 CURVE SMOOTH",
"453 47 OFFCURVE",
"518 140 OFFCURVE",
"592 252 CURVE",
"573 195 OFFCURVE",
"543 106 OFFCURVE",
"543 47 CURVE SMOOTH",
"543 3 OFFCURVE",
"563 -25 OFFCURVE",
"610 -25 CURVE SMOOTH",
"688 -25 OFFCURVE",
"794 78 OFFCURVE",
"844 133 CURVE SMOOTH",
"846 135 OFFCURVE",
"851 140 OFFCURVE",
"851 144 CURVE SMOOTH",
"851 150 OFFCURVE",
"842 150 OFFCURVE",
"842 157 CURVE SMOOTH",
"842 170 OFFCURVE",
"886 221 OFFCURVE",
"886 247 CURVE SMOOTH",
"886 249 OFFCURVE",
"886 254 OFFCURVE",
"883 254 CURVE SMOOTH",
"878 254 OFFCURVE",
"871 240 OFFCURVE",
"870 238 CURVE SMOOTH",
"824 161 OFFCURVE",
"765 69 OFFCURVE",
"687 22 CURVE",
"675 16 OFFCURVE",
"662 9 OFFCURVE",
"648 9 CURVE SMOOTH",
"612 9 OFFCURVE",
"609 60 OFFCURVE",
"609 86 CURVE SMOOTH",
"609 143 OFFCURVE",
"622 200 OFFCURVE",
"636 255 CURVE SMOOTH",
"650 305 OFFCURVE",
"666 354 OFFCURVE",
"685 402 CURVE SMOOTH",
"706 458 OFFCURVE",
"792 660 OFFCURVE",
"865 660 CURVE SMOOTH",
"874 660 OFFCURVE",
"903 668 OFFCURVE",
"903 681 CURVE SMOOTH",
"903 683 OFFCURVE",
"901 684 OFFCURVE",
"899 684 CURVE SMOOTH",
"842 684 OFFCURVE",
"792 654 OFFCURVE",
"747 622 CURVE SMOOTH",
"709 594 OFFCURVE",
"699 582 OFFCURVE",
"686 539 CURVE SMOOTH",
"641 391 OFFCURVE",
"547 203 OFFCURVE",
"439 91 CURVE SMOOTH",
"417 68 OFFCURVE",
"358 26 OFFCURVE",
"326 26 CURVE SMOOTH",
"305 26 OFFCURVE",
"299 44 OFFCURVE",
"299 62 CURVE SMOOTH",
"299 210 OFFCURVE",
"405 478 OFFCURVE",
"460 610 CURVE",
"501 601 OFFCURVE",
"542 597 OFFCURVE",
"584 597 CURVE SMOOTH",
"594 597 OFFCURVE",
"634 607 OFFCURVE",
"634 613 CURVE SMOOTH",
"634 617 OFFCURVE",
"614 617 OFFCURVE",
"610 617 CURVE SMOOTH",
"584 617 OFFCURVE",
"528 634 OFFCURVE",
"501 641 CURVE SMOOTH",
"407 667 OFFCURVE",
"294 700 OFFCURVE",
"196 700 CURVE SMOOTH",
"61 700 OFFCURVE",
"-101 617 OFFCURVE",
"-101 464 CURVE SMOOTH",
"-101 395 OFFCURVE",
"-53 292 OFFCURVE",
"27 292 CURVE SMOOTH",
"42 292 OFFCURVE",
"55 296 OFFCURVE",
"68 304 CURVE SMOOTH",
"70 305 OFFCURVE",
"80 311 OFFCURVE",
"80 313 CURVE SMOOTH",
"80 314 OFFCURVE",
"77 314 OFFCURVE",
"76 314 CURVE SMOOTH",
"71 314 OFFCURVE",
"65 313 OFFCURVE",
"60 313 CURVE SMOOTH",
"-18 316 OFFCURVE",
"-53 379 OFFCURVE",
"-53 450 CURVE SMOOTH",
"-53 537 OFFCURVE",
"-3 638 OFFCURVE",
"83 667 CURVE SMOOTH",
"104 674 OFFCURVE",
"127 677 OFFCURVE",
"149 677 CURVE SMOOTH",
"210 677 OFFCURVE",
"269 655 OFFCURVE",
"327 640 CURVE SMOOTH",
"378 627 LINE",
"388 617 OFFCURVE",
"389 600 OFFCURVE",
"389 586 CURVE SMOOTH",
"389 491 OFFCURVE",
"299 270 OFFCURVE",
"264 174 CURVE SMOOTH",
"248 131 OFFCURVE",
"225 75 OFFCURVE",
"221 30 CURVE SMOOTH",
"221 26 OFFCURVE",
"221 23 OFFCURVE",
"221 20 CURVE SMOOTH",
"221 -8 OFFCURVE",
"226 -43 OFFCURVE",
"261 -43 CURVE SMOOTH"
);
}
);
};
layerId = "56A77921-5252-498D-AF45-CD2B441B871C";
paths = (
{
closed = 1;
nodes = (
"284 -43 OFFCURVE",
"313 -29 OFFCURVE",
"333 -18 CURVE SMOOTH",
"453 47 OFFCURVE",
"518 140 OFFCURVE",
"592 252 CURVE",
"573 195 OFFCURVE",
"543 106 OFFCURVE",
"543 47 CURVE SMOOTH",
"543 3 OFFCURVE",
"563 -25 OFFCURVE",
"610 -25 CURVE SMOOTH",
"688 -25 OFFCURVE",
"794 78 OFFCURVE",
"844 133 CURVE SMOOTH",
"846 135 OFFCURVE",
"851 140 OFFCURVE",
"851 144 CURVE SMOOTH",
"851 150 OFFCURVE",
"842 150 OFFCURVE",
"842 157 CURVE SMOOTH",
"842 170 OFFCURVE",
"886 221 OFFCURVE",
"886 247 CURVE SMOOTH",
"886 249 OFFCURVE",
"886 254 OFFCURVE",
"883 254 CURVE SMOOTH",
"878 254 OFFCURVE",
"871 240 OFFCURVE",
"870 238 CURVE SMOOTH",
"824 161 OFFCURVE",
"765 69 OFFCURVE",
"687 22 CURVE",
"675 16 OFFCURVE",
"662 9 OFFCURVE",
"648 9 CURVE SMOOTH",
"612 9 OFFCURVE",
"609 60 OFFCURVE",
"609 86 CURVE SMOOTH",
"609 143 OFFCURVE",
"622 200 OFFCURVE",
"636 255 CURVE SMOOTH",
"650 305 OFFCURVE",
"666 354 OFFCURVE",
"685 402 CURVE SMOOTH",
"706 458 OFFCURVE",
"792 660 OFFCURVE",
"865 660 CURVE SMOOTH",
"874 660 OFFCURVE",
"903 668 OFFCURVE",
"903 681 CURVE SMOOTH",
"903 683 OFFCURVE",
"901 684 OFFCURVE",
"899 684 CURVE SMOOTH",
"842 684 OFFCURVE",
"792 654 OFFCURVE",
"747 622 CURVE SMOOTH",
"709 594 OFFCURVE",
"699 582 OFFCURVE",
"686 539 CURVE SMOOTH",
"641 391 OFFCURVE",
"547 203 OFFCURVE",
"439 91 CURVE SMOOTH",
"417 68 OFFCURVE",
"358 26 OFFCURVE",
"326 26 CURVE SMOOTH",
"305 26 OFFCURVE",
"299 44 OFFCURVE",
"299 62 CURVE SMOOTH",
"299 210 OFFCURVE",
"405 478 OFFCURVE",
"460 610 CURVE",
"501 601 OFFCURVE",
"542 597 OFFCURVE",
"584 597 CURVE SMOOTH",
"594 597 OFFCURVE",
"634 607 OFFCURVE",
"634 613 CURVE SMOOTH",
"634 617 OFFCURVE",
"614 617 OFFCURVE",
"610 617 CURVE SMOOTH",
"584 617 OFFCURVE",
"528 634 OFFCURVE",
"501 641 CURVE SMOOTH",
"407 667 OFFCURVE",
"294 700 OFFCURVE",
"196 700 CURVE SMOOTH",
"61 700 OFFCURVE",
"-101 617 OFFCURVE",
"-101 464 CURVE SMOOTH",
"-101 395 OFFCURVE",
"-53 292 OFFCURVE",
"27 292 CURVE SMOOTH",
"42 292 OFFCURVE",
"55 296 OFFCURVE",
"68 304 CURVE SMOOTH",
"70 305 OFFCURVE",
"80 311 OFFCURVE",
"80 313 CURVE SMOOTH",
"80 314 OFFCURVE",
"77 314 OFFCURVE",
"76 314 CURVE SMOOTH",
"71 314 OFFCURVE",
"65 313 OFFCURVE",
"60 313 CURVE SMOOTH",
"-18 316 OFFCURVE",
"-53 379 OFFCURVE",
"-53 450 CURVE SMOOTH",
"-53 537 OFFCURVE",
"-3 638 OFFCURVE",
"83 667 CURVE SMOOTH",
"104 674 OFFCURVE",
"127 677 OFFCURVE",
"149 677 CURVE SMOOTH",
"210 677 OFFCURVE",
"269 655 OFFCURVE",
"327 640 CURVE SMOOTH",
"378 627 LINE",
"388 617 OFFCURVE",
"389 600 OFFCURVE",
"389 586 CURVE SMOOTH",
"389 491 OFFCURVE",
"299 270 OFFCURVE",
"264 174 CURVE SMOOTH",
"248 131 OFFCURVE",
"221 75 OFFCURVE",
"221 30 CURVE SMOOTH",
"221 20 LINE SMOOTH",
"221 -8 OFFCURVE",
"226 -43 OFFCURVE",
"261 -43 CURVE SMOOTH"
);
}
);
width = 788;
}
);
leftKerningGroup = U;
note = U;
rightKerningGroup = U;
unicode = 0055;
},
{
glyphname = V;
lastChange = "2022-02-09 11:15:49 +0000";
layers = (
{
background = {
paths = (
{
closed = 1;
nodes = (
"302 -63 OFFCURVE",
"316 -61 OFFCURVE",
"321 -54 CURVE SMOOTH",
"324 -50 OFFCURVE",
"324 -37 OFFCURVE",
"327 -31 CURVE SMOOTH",
"334 -15 OFFCURVE",
"349 1 OFFCURVE",
"359 15 CURVE SMOOTH",
"373 35 OFFCURVE",
"388 55 OFFCURVE",
"401 76 CURVE SMOOTH",
"459 169 OFFCURVE",
"520 259 OFFCURVE",
"581 350 CURVE SMOOTH",
"636 431 OFFCURVE",
"735 567 OFFCURVE",
"816 619 CURVE SMOOTH",
"856 645 OFFCURVE",
"907 668 OFFCURVE",
"956 668 CURVE SMOOTH",
"1004 668 OFFCURVE",
"1078 634 OFFCURVE",
"1078 578 CURVE SMOOTH",
"1078 559 OFFCURVE",
"1069 542 OFFCURVE",
"1069 528 CURVE SMOOTH",
"1069 527 OFFCURVE",
"1069 525 OFFCURVE",
"1070 525 CURVE SMOOTH",
"1076 525 OFFCURVE",
"1087 549 OFFCURVE",
"1089 554 CURVE SMOOTH",
"1098 574 OFFCURVE",
"1106 599 OFFCURVE",
"1106 621 CURVE SMOOTH",
"1106 680 OFFCURVE",
"1036 712 OFFCURVE",
"985 712 CURVE SMOOTH",
"926 712 OFFCURVE",
"862 680 OFFCURVE",
"814 647 CURVE SMOOTH",
"681 556 OFFCURVE",
"552 367 OFFCURVE",
"468 230 CURVE SMOOTH",
"443 189 OFFCURVE",
"418 148 OFFCURVE",
"393 108 CURVE SMOOTH",
"376 81 OFFCURVE",
"359 53 OFFCURVE",
"338 29 CURVE",
"347 64 OFFCURVE",
"349 100 OFFCURVE",
"353 136 CURVE SMOOTH",
"360 210 OFFCURVE",
"369 285 OFFCURVE",
"369 360 CURVE SMOOTH",
"369 436 OFFCURVE",
"357 537 OFFCURVE",
"314 601 CURVE",
"342 609 OFFCURVE",
"433 636 OFFCURVE",
"459 636 CURVE SMOOTH",
"460 636 OFFCURVE",
"462 636 OFFCURVE",
"463 636 CURVE",
"494 627 OFFCURVE",
"483 628 OFFCURVE",
"493 604 CURVE SMOOTH",
"494 601 OFFCURVE",
"496 595 OFFCURVE",
"500 595 CURVE SMOOTH",
"505 595 OFFCURVE",
"507 604 OFFCURVE",
"507 607 CURVE SMOOTH",
"507 613 OFFCURVE",
"504 614 OFFCURVE",
"502 619 CURVE",
"478 648 OFFCURVE",
"495 656 OFFCURVE",
"456 673 CURVE",
"455 673 OFFCURVE",
"454 673 OFFCURVE",
"453 673 CURVE SMOOTH",
"428 673 OFFCURVE",
"315 641 OFFCURVE",
"285 633 CURVE",
"244 668 OFFCURVE",
"183 687 OFFCURVE",
"129 687 CURVE SMOOTH",
"69 687 OFFCURVE",
"-26 646 OFFCURVE",
"-26 575 CURVE SMOOTH",
"-26 545 OFFCURVE",
"-2 538 OFFCURVE",
"23 538 CURVE SMOOTH",
"87 538 OFFCURVE",
"196 569 OFFCURVE",
"259 586 CURVE",
"304 517 OFFCURVE",
"315 415 OFFCURVE",
"315 335 CURVE SMOOTH",
"315 240 OFFCURVE",
"303 144 OFFCURVE",
"290 50 CURVE SMOOTH",
"286 26 OFFCURVE",
"283 1 OFFCURVE",
"278 -23 CURVE SMOOTH",
"277 -29 OFFCURVE",
"272 -42 OFFCURVE",
"272 -47 CURVE SMOOTH",
"272 -61 OFFCURVE",
"281 -63 OFFCURVE",
"294 -63 CURVE SMOOTH"
);
},
{
closed = 1;
nodes = (
"28 582 OFFCURVE",
"7 582 OFFCURVE",
"7 598 CURVE SMOOTH",
"7 606 OFFCURVE",
"11 612 OFFCURVE",
"16 618 CURVE SMOOTH",
"43 648 OFFCURVE",
"86 654 OFFCURVE",
"124 654 CURVE SMOOTH",
"167 654 OFFCURVE",
"201 651 OFFCURVE",
"232 619 CURVE",
"176 604 OFFCURVE",
"96 582 OFFCURVE",
"39 582 CURVE SMOOTH"
);
}
);
};
layerId = "56A77921-5252-498D-AF45-CD2B441B871C";
paths = (
{
closed = 1;
nodes = (
"302 -63 OFFCURVE",
"316 -61 OFFCURVE",
"321 -54 CURVE SMOOTH",
"324 -50 OFFCURVE",
"324 -37 OFFCURVE",
"327 -31 CURVE SMOOTH",
"334 -15 OFFCURVE",
"349 1 OFFCURVE",
"359 15 CURVE SMOOTH",
"373 35 OFFCURVE",
"388 55 OFFCURVE",
"401 76 CURVE SMOOTH",
"459 169 OFFCURVE",
"520 259 OFFCURVE",
"581 350 CURVE SMOOTH",
"636 431 OFFCURVE",
"735 567 OFFCURVE",
"816 619 CURVE SMOOTH",
"856 645 OFFCURVE",
"907 668 OFFCURVE",
"956 668 CURVE SMOOTH",
"1004 668 OFFCURVE",
"1078 634 OFFCURVE",
"1078 578 CURVE SMOOTH",
"1078 559 OFFCURVE",
"1069 542 OFFCURVE",
"1069 528 CURVE SMOOTH",
"1069 527 OFFCURVE",
"1069 525 OFFCURVE",
"1070 525 CURVE SMOOTH",
"1076 525 OFFCURVE",
"1087 549 OFFCURVE",
"1089 554 CURVE SMOOTH",
"1098 574 OFFCURVE",
"1106 599 OFFCURVE",
"1106 621 CURVE SMOOTH",
"1106 680 OFFCURVE",
"1036 712 OFFCURVE",
"985 712 CURVE SMOOTH",
"926 712 OFFCURVE",
"862 680 OFFCURVE",
"814 647 CURVE SMOOTH",
"681 556 OFFCURVE",
"552 367 OFFCURVE",
"468 230 CURVE SMOOTH",
"443 189 OFFCURVE",
"418 148 OFFCURVE",
"393 108 CURVE SMOOTH",
"376 81 OFFCURVE",
"359 53 OFFCURVE",
"338 29 CURVE",
"347 64 OFFCURVE",
"349 100 OFFCURVE",
"353 136 CURVE SMOOTH",
"360 210 OFFCURVE",
"369 285 OFFCURVE",
"369 360 CURVE SMOOTH",
"369 436 OFFCURVE",
"357 537 OFFCURVE",
"314 601 CURVE",
"342 609 OFFCURVE",
"433 636 OFFCURVE",
"459 636 CURVE SMOOTH",
"463 636 LINE",
"494 627 OFFCURVE",
"483 628 OFFCURVE",
"493 604 CURVE SMOOTH",
"494 601 OFFCURVE",
"496 595 OFFCURVE",
"500 595 CURVE SMOOTH",
"505 595 OFFCURVE",
"507 604 OFFCURVE",
"507 607 CURVE SMOOTH",
"507 613 OFFCURVE",
"504 614 OFFCURVE",
"502 619 CURVE",
"478 648 OFFCURVE",
"495 656 OFFCURVE",
"456 673 CURVE",
"453 673 LINE SMOOTH",
"428 673 OFFCURVE",
"315 641 OFFCURVE",
"285 633 CURVE",
"244 668 OFFCURVE",
"183 687 OFFCURVE",
"129 687 CURVE SMOOTH",
"69 687 OFFCURVE",
"-26 646 OFFCURVE",
"-26 575 CURVE SMOOTH",
"-26 545 OFFCURVE",
"-2 538 OFFCURVE",
"23 538 CURVE SMOOTH",
"87 538 OFFCURVE",
"196 569 OFFCURVE",
"259 586 CURVE",
"304 517 OFFCURVE",
"315 415 OFFCURVE",
"315 335 CURVE SMOOTH",
"315 240 OFFCURVE",
"303 144 OFFCURVE",
"290 50 CURVE SMOOTH",
"286 26 OFFCURVE",
"283 1 OFFCURVE",
"278 -23 CURVE SMOOTH",
"277 -29 OFFCURVE",
"272 -42 OFFCURVE",
"272 -47 CURVE SMOOTH",
"272 -61 OFFCURVE",
"281 -63 OFFCURVE",
"294 -63 CURVE SMOOTH"
);
},
{
closed = 1;
nodes = (
"28 582 OFFCURVE",
"7 582 OFFCURVE",
"7 598 CURVE SMOOTH",
"7 606 OFFCURVE",
"11 612 OFFCURVE",
"16 618 CURVE SMOOTH",
"43 648 OFFCURVE",
"86 654 OFFCURVE",
"124 654 CURVE SMOOTH",
"167 654 OFFCURVE",
"201 651 OFFCURVE",
"232 619 CURVE",
"176 604 OFFCURVE",
"96 582 OFFCURVE",
"39 582 CURVE SMOOTH"
);
}
);
width = 564;
}
);
leftKerningGroup = V;
note = V;
rightKerningGroup = V;
unicode = 0056;
},
{
color = 3;
glyphname = W;
lastChange = "2022-02-09 10:51:46 +0000";
layers = (
{
anchors = (
{
name = bottom;
position = "{627, 0}";
},
{
name = top;
position = "{867, 685}";
}
);
background = {
paths = (
{
closed = 1;
nodes = (
"486 -63 OFFCURVE",
"498 -61 OFFCURVE",
"504 -54 CURVE SMOOTH",
"508 -50 OFFCURVE",
"508 -37 OFFCURVE",
"510 -31 CURVE SMOOTH",
"514 -20 OFFCURVE",
"531 -1 OFFCURVE",
"538 9 CURVE SMOOTH",
"554 31 OFFCURVE",
"570 53 OFFCURVE",
"584 76 CURVE SMOOTH",
"646 175 OFFCURVE",
"720 271 OFFCURVE",
"764 380 CURVE",
"764 263 OFFCURVE",
"777 145 OFFCURVE",
"777 28 CURVE SMOOTH",
"777 15 OFFCURVE",
"778 2 OFFCURVE",
"775 -11 CURVE SMOOTH",
"775 -12 OFFCURVE",
"774 -13 OFFCURVE",
"774 -14 CURVE SMOOTH",
"774 -29 OFFCURVE",
"783 -32 OFFCURVE",
"796 -32 CURVE SMOOTH",
"804 -32 OFFCURVE",
"817 -30 OFFCURVE",
"822 -23 CURVE SMOOTH",
"825 -19 OFFCURVE",
"827 -6 OFFCURVE",
"829 0 CURVE SMOOTH",
"835 16 OFFCURVE",
"846 29 OFFCURVE",
"855 43 CURVE SMOOTH",
"875 73 OFFCURVE",
"893 104 OFFCURVE",
"912 135 CURVE SMOOTH",
"969 226 OFFCURVE",
"1028 316 OFFCURVE",
"1088 405 CURVE SMOOTH",
"1142 486 OFFCURVE",
"1242 623 OFFCURVE",
"1322 675 CURVE SMOOTH",
"1363 701 OFFCURVE",
"1414 724 OFFCURVE",
"1463 724 CURVE SMOOTH",
"1514 724 OFFCURVE",
"1585 690 OFFCURVE",
"1585 630 CURVE SMOOTH",
"1585 612 OFFCURVE",
"1575 593 OFFCURVE",
"1575 583 CURVE SMOOTH",
"1575 582 OFFCURVE",
"1576 581 OFFCURVE",
"1576 581 CURVE",
"1579 581 OFFCURVE",
"1581 583 OFFCURVE",
"1582 585 CURVE",
"1600 607 OFFCURVE",
"1612 650 OFFCURVE",
"1612 678 CURVE SMOOTH",
"1612 737 OFFCURVE",
"1542 767 OFFCURVE",
"1491 767 CURVE SMOOTH",
"1433 767 OFFCURVE",
"1368 736 OFFCURVE",
"1321 703 CURVE SMOOTH",
"1186 608 OFFCURVE",
"1025 372 OFFCURVE",
"933 230 CURVE SMOOTH",
"898 177 OFFCURVE",
"864 123 OFFCURVE",
"829 70 CURVE",
"809 125 OFFCURVE",
"808 244 OFFCURVE",
"808 305 CURVE SMOOTH",
"808 339 OFFCURVE",
"808 373 OFFCURVE",
"809 407 CURVE",
"818 423 OFFCURVE",
"819 448 OFFCURVE",
"819 466 CURVE SMOOTH",
"819 474 OFFCURVE",
"818 508 OFFCURVE",
"816 514 CURVE SMOOTH",
"814 519 OFFCURVE",
"809 523 OFFCURVE",
"803 523 CURVE SMOOTH",
"787 523 OFFCURVE",
"758 500 OFFCURVE",
"758 483 CURVE SMOOTH",
"758 472 OFFCURVE",
"760 460 OFFCURVE",
"762 449 CURVE",
"752 426 OFFCURVE",
"744 402 OFFCURVE",
"734 379 CURVE SMOOTH",
"689 276 OFFCURVE",
"600 133 OFFCURVE",
"529 46 CURVE",
"538 84 OFFCURVE",
"540 123 OFFCURVE",
"543 161 CURVE SMOOTH",
"549 227 OFFCURVE",
"556 294 OFFCURVE",
"556 361 CURVE SMOOTH",
"556 436 OFFCURVE",
"543 511 OFFCURVE",
"509 578 CURVE SMOOTH",
"499 599 OFFCURVE",
"481 634 OFFCURVE",
"453 634 CURVE SMOOTH",
"434 634 OFFCURVE",
"419 616 OFFCURVE",
"419 598 CURVE SMOOTH",
"419 574 OFFCURVE",
"446 562 OFFCURVE",
"459 545 CURVE SMOOTH",
"495 499 OFFCURVE",
"499 405 OFFCURVE",
"499 349 CURVE SMOOTH",
"499 246 OFFCURVE",
"486 145 OFFCURVE",
"472 44 CURVE SMOOTH",
"469 18 OFFCURVE",
"466 -8 OFFCURVE",
"459 -33 CURVE SMOOTH",
"458 -37 OFFCURVE",
"456 -41 OFFCURVE",
"456 -45 CURVE SMOOTH",
"456 -60 OFFCURVE",
"462 -63 OFFCURVE",
"477 -63 CURVE SMOOTH"
);
},
{
closed = 1;
nodes = (
"228 373 OFFCURVE",
"243 373 OFFCURVE",
"243 378 CURVE SMOOTH",
"243 380 OFFCURVE",
"241 382 OFFCURVE",
"241 384 CURVE SMOOTH",
"241 395 OFFCURVE",
"281 390 OFFCURVE",
"281 400 CURVE SMOOTH",
"281 401 OFFCURVE",
"280 403 OFFCURVE",
"278 403 CURVE SMOOTH",
"276 403 LINE SMOOTH",
"266 402 OFFCURVE",
"257 399 OFFCURVE",
"246 399 CURVE SMOOTH",
"170 399 OFFCURVE",
"57 457 OFFCURVE",
"57 543 CURVE SMOOTH",
"57 647 OFFCURVE",
"267 671 OFFCURVE",
"342 671 CURVE SMOOTH",
"380 671 OFFCURVE",
"419 669 OFFCURVE",
"456 662 CURVE SMOOTH",
"546 644 OFFCURVE",
"628 599 OFFCURVE",
"718 583 CURVE SMOOTH",
"735 580 OFFCURVE",
"751 579 OFFCURVE",
"768 578 CURVE SMOOTH",
"772 578 OFFCURVE",
"776 577 OFFCURVE",
"780 577 CURVE SMOOTH",
"786 577 OFFCURVE",
"822 581 OFFCURVE",
"822 590 CURVE SMOOTH",
"822 593 OFFCURVE",
"815 594 OFFCURVE",
"812 594 CURVE SMOOTH",
"809 594 OFFCURVE",
"806 593 OFFCURVE",
"802 593 CURVE SMOOTH",
"781 593 OFFCURVE",
"759 599 OFFCURVE",
"738 604 CURVE SMOOTH",
"649 627 OFFCURVE",
"564 665 OFFCURVE",
"474 686 CURVE SMOOTH",
"412 700 OFFCURVE",
"347 709 OFFCURVE",
"284 709 CURVE SMOOTH",
"224 709 OFFCURVE",
"159 701 OFFCURVE",
"106 672 CURVE SMOOTH",
"72 653 OFFCURVE",
"55 626 OFFCURVE",
"35 594 CURVE SMOOTH",
"17 566 OFFCURVE",
"3 562 OFFCURVE",
"3 523 CURVE SMOOTH",
"3 427 OFFCURVE",
"146 373 OFFCURVE",
"226 373 CURVE SMOOTH"
);
}
);
};
layerId = "56A77921-5252-498D-AF45-CD2B441B871C";
paths = (
{
closed = 1;
nodes = (
"486 -63 OFFCURVE",
"498 -61 OFFCURVE",
"504 -54 CURVE SMOOTH",
"508 -50 OFFCURVE",
"508 -37 OFFCURVE",
"510 -31 CURVE SMOOTH",
"514 -20 OFFCURVE",
"531 -1 OFFCURVE",
"538 9 CURVE SMOOTH",
"554 31 OFFCURVE",
"570 53 OFFCURVE",
"584 76 CURVE SMOOTH",
"646 175 OFFCURVE",
"720 271 OFFCURVE",
"764 380 CURVE",
"764 258 OFFCURVE",
"777 135 OFFCURVE",
"777 12 CURVE SMOOTH",
"777 5 OFFCURVE",
"777 -3 OFFCURVE",
"775 -11 CURVE SMOOTH",
"775 -12 OFFCURVE",
"774 -13 OFFCURVE",
"774 -14 CURVE SMOOTH",
"774 -29 OFFCURVE",
"783 -32 OFFCURVE",
"796 -32 CURVE SMOOTH",
"804 -32 OFFCURVE",
"817 -30 OFFCURVE",
"822 -23 CURVE SMOOTH",
"825 -19 OFFCURVE",
"827 -6 OFFCURVE",
"829 0 CURVE SMOOTH",
"835 16 OFFCURVE",
"846 29 OFFCURVE",
"855 43 CURVE SMOOTH",
"875 73 OFFCURVE",
"893 104 OFFCURVE",
"912 135 CURVE SMOOTH",
"969 226 OFFCURVE",
"1028 316 OFFCURVE",
"1088 405 CURVE SMOOTH",
"1142 486 OFFCURVE",
"1242 623 OFFCURVE",
"1322 675 CURVE SMOOTH",
"1363 701 OFFCURVE",
"1414 724 OFFCURVE",
"1463 724 CURVE SMOOTH",
"1514 724 OFFCURVE",
"1585 690 OFFCURVE",
"1585 630 CURVE SMOOTH",
"1585 612 OFFCURVE",
"1575 593 OFFCURVE",
"1575 583 CURVE SMOOTH",
"1575 582 OFFCURVE",
"1576 581 OFFCURVE",
"1576 581 CURVE",
"1579 581 OFFCURVE",
"1581 583 OFFCURVE",
"1582 585 CURVE",
"1600 607 OFFCURVE",
"1612 650 OFFCURVE",
"1612 678 CURVE SMOOTH",
"1612 737 OFFCURVE",
"1542 767 OFFCURVE",
"1491 767 CURVE SMOOTH",
"1433 767 OFFCURVE",
"1368 736 OFFCURVE",
"1321 703 CURVE SMOOTH",
"1186 608 OFFCURVE",
"1025 372 OFFCURVE",
"933 230 CURVE SMOOTH",
"898 177 OFFCURVE",
"864 123 OFFCURVE",
"829 70 CURVE",
"809 125 OFFCURVE",
"808 244 OFFCURVE",
"808 305 CURVE SMOOTH",
"808 339 OFFCURVE",
"808 373 OFFCURVE",
"809 407 CURVE",
"818 423 OFFCURVE",
"819 448 OFFCURVE",
"819 466 CURVE SMOOTH",
"819 474 OFFCURVE",
"818 508 OFFCURVE",
"816 514 CURVE SMOOTH",
"814 519 OFFCURVE",
"809 523 OFFCURVE",
"803 523 CURVE SMOOTH",
"787 523 OFFCURVE",
"758 500 OFFCURVE",
"758 483 CURVE SMOOTH",
"758 472 OFFCURVE",
"760 460 OFFCURVE",
"762 449 CURVE",
"752 426 OFFCURVE",
"744 402 OFFCURVE",
"734 379 CURVE SMOOTH",
"689 276 OFFCURVE",
"600 133 OFFCURVE",
"529 46 CURVE",
"538 84 OFFCURVE",
"540 123 OFFCURVE",
"543 161 CURVE SMOOTH",
"549 227 OFFCURVE",
"556 294 OFFCURVE",
"556 361 CURVE SMOOTH",
"556 436 OFFCURVE",
"543 511 OFFCURVE",
"509 578 CURVE SMOOTH",
"499 599 OFFCURVE",
"481 634 OFFCURVE",
"453 634 CURVE SMOOTH",
"434 634 OFFCURVE",
"419 616 OFFCURVE",
"419 598 CURVE SMOOTH",
"419 574 OFFCURVE",
"446 562 OFFCURVE",
"459 545 CURVE SMOOTH",
"495 499 OFFCURVE",
"499 405 OFFCURVE",
"499 349 CURVE SMOOTH",
"499 246 OFFCURVE",
"486 145 OFFCURVE",
"472 44 CURVE SMOOTH",
"469 18 OFFCURVE",
"466 -8 OFFCURVE",
"459 -33 CURVE SMOOTH",
"458 -37 OFFCURVE",
"456 -41 OFFCURVE",
"456 -45 CURVE SMOOTH",
"456 -60 OFFCURVE",
"462 -63 OFFCURVE",
"477 -63 CURVE SMOOTH"
);
},
{
closed = 1;
nodes = (
"228 373 OFFCURVE",
"243 373 OFFCURVE",
"243 378 CURVE SMOOTH",
"243 380 OFFCURVE",
"241 382 OFFCURVE",
"241 384 CURVE SMOOTH",
"241 395 OFFCURVE",
"281 390 OFFCURVE",
"281 400 CURVE SMOOTH",
"281 401 OFFCURVE",
"280 403 OFFCURVE",
"278 403 CURVE SMOOTH",
"276 403 LINE SMOOTH",
"266 403 OFFCURVE",
"257 399 OFFCURVE",
"246 399 CURVE SMOOTH",
"170 399 OFFCURVE",
"57 457 OFFCURVE",
"57 543 CURVE SMOOTH",
"57 647 OFFCURVE",
"267 671 OFFCURVE",
"342 671 CURVE SMOOTH",
"380 671 OFFCURVE",
"419 669 OFFCURVE",
"456 662 CURVE SMOOTH",
"546 644 OFFCURVE",
"628 599 OFFCURVE",
"718 583 CURVE SMOOTH",
"735 580 OFFCURVE",
"751 579 OFFCURVE",
"768 578 CURVE SMOOTH",
"772 578 OFFCURVE",
"776 577 OFFCURVE",
"780 577 CURVE SMOOTH",
"786 577 OFFCURVE",
"822 581 OFFCURVE",
"822 590 CURVE SMOOTH",
"822 593 OFFCURVE",
"815 594 OFFCURVE",
"812 594 CURVE SMOOTH",
"809 594 OFFCURVE",
"806 593 OFFCURVE",
"802 593 CURVE SMOOTH",
"781 593 OFFCURVE",
"759 599 OFFCURVE",
"738 604 CURVE SMOOTH",
"649 627 OFFCURVE",
"564 665 OFFCURVE",
"474 686 CURVE SMOOTH",
"412 700 OFFCURVE",
"347 709 OFFCURVE",
"284 709 CURVE SMOOTH",
"224 709 OFFCURVE",
"159 701 OFFCURVE",
"106 672 CURVE SMOOTH",
"72 653 OFFCURVE",
"55 626 OFFCURVE",
"35 594 CURVE SMOOTH",
"17 566 OFFCURVE",
"3 562 OFFCURVE",
"3 523 CURVE SMOOTH",
"3 427 OFFCURVE",
"146 373 OFFCURVE",
"226 373 CURVE SMOOTH"
);
}
);
width = 1054;
}
);
leftKerningGroup = V;
note = W;
rightKerningGroup = V;
unicode = 0057;
},
{
glyphname = X;
lastChange = "2022-02-01 15:30:14 +0000";
layers = (
{
background = {
paths = (
{
closed = 1;
nodes = (
"44 -46 OFFCURVE",
"119 19 OFFCURVE",
"134 40 CURVE SMOOTH",
"167 83 OFFCURVE",
"196 129 OFFCURVE",
"230 172 CURVE SMOOTH",
"262 214 OFFCURVE",
"295 255 OFFCURVE",
"329 296 CURVE",
"352 222 OFFCURVE",
"413 39 OFFCURVE",
"486 3 CURVE SMOOTH",
"503 -5 OFFCURVE",
"523 -11 OFFCURVE",
"542 -11 CURVE SMOOTH",
"610 -11 OFFCURVE",
"639 81 OFFCURVE",
"648 133 CURVE SMOOTH",
"654 165 OFFCURVE",
"656 222 OFFCURVE",
"656 248 CURVE SMOOTH",
"656 304 OFFCURVE",
"653 331 OFFCURVE",
"630 341 CURVE",
"635 310 OFFCURVE",
"637 280 OFFCURVE",
"637 250 CURVE SMOOTH",
"637 190 OFFCURVE",
"625 89 OFFCURVE",
"578 47 CURVE SMOOTH",
"570 40 OFFCURVE",
"563 35 OFFCURVE",
"553 35 CURVE SMOOTH",
"475 35 OFFCURVE",
"387 285 OFFCURVE",
"368 343 CURVE",
"441 427 OFFCURVE",
"558 562 OFFCURVE",
"654 617 CURVE SMOOTH",
"679 632 OFFCURVE",
"735 653 OFFCURVE",
"735 687 CURVE SMOOTH",
"735 702 OFFCURVE",
"721 703 OFFCURVE",
"710 703 CURVE SMOOTH",
"690 703 OFFCURVE",
"665 699 OFFCURVE",
"647 692 CURVE SMOOTH",
"624 684 OFFCURVE",
"388 405 OFFCURVE",
"360 372 CURVE",
"336 449 OFFCURVE",
"310 554 OFFCURVE",
"310 635 CURVE SMOOTH",
"310 645 OFFCURVE",
"311 655 OFFCURVE",
"312 667 CURVE",
"342 679 OFFCURVE",
"372 691 OFFCURVE",
"403 702 CURVE",
"411 706 OFFCURVE",
"445 717 OFFCURVE",
"445 730 CURVE SMOOTH",
"445 736 OFFCURVE",
"435 738 OFFCURVE",
"431 738 CURVE SMOOTH",
"425 738 OFFCURVE",
"418 735 OFFCURVE",
"412 732 CURVE",
"392 744 OFFCURVE",
"358 748 OFFCURVE",
"334 748 CURVE SMOOTH",
"280 748 OFFCURVE",
"238 720 OFFCURVE",
"238 663 CURVE SMOOTH",
"238 657 OFFCURVE",
"238 651 OFFCURVE",
"239 645 CURVE",
"163 608 OFFCURVE",
"21 532 OFFCURVE",
"21 433 CURVE SMOOTH",
"21 386 OFFCURVE",
"50 360 OFFCURVE",
"97 360 CURVE SMOOTH",
"99 360 OFFCURVE",
"102 360 OFFCURVE",
"104 360 CURVE SMOOTH",
"122 362 OFFCURVE",
"174 377 OFFCURVE",
"174 401 CURVE SMOOTH",
"174 404 OFFCURVE",
"173 405 OFFCURVE",
"172 405 CURVE SMOOTH",
"165 405 OFFCURVE",
"148 384 OFFCURVE",
"125 384 CURVE SMOOTH",
"94 384 OFFCURVE",
"76 409 OFFCURVE",
"76 439 CURVE SMOOTH",
"76 512 OFFCURVE",
"184 596 OFFCURVE",
"242 630 CURVE",
"270 529 OFFCURVE",
"291 426 OFFCURVE",
"321 325 CURVE",
"265 260 OFFCURVE",
"209 194 OFFCURVE",
"155 126 CURVE SMOOTH",
"119 84 OFFCURVE",
"85 41 OFFCURVE",
"49 1 CURVE SMOOTH",
"42 -6 OFFCURVE",
"17 -33 OFFCURVE",
"17 -42 CURVE SMOOTH",
"17 -45 OFFCURVE",
"18 -46 OFFCURVE",
"20 -46 CURVE SMOOTH"
);
},
{
closed = 1;
nodes = (
"319 700 OFFCURVE",
"328 724 OFFCURVE",
"352 724 CURVE SMOOTH",
"366 724 OFFCURVE",
"379 722 OFFCURVE",
"393 720 CURVE",
"368 704 OFFCURVE",
"340 693 OFFCURVE",
"314 681 CURVE"
);
}
);
};
layerId = "56A77921-5252-498D-AF45-CD2B441B871C";
paths = (
{
closed = 1;
nodes = (
"44 -46 OFFCURVE",
"119 19 OFFCURVE",
"134 40 CURVE SMOOTH",
"167 83 OFFCURVE",
"196 129 OFFCURVE",
"230 172 CURVE SMOOTH",
"262 214 OFFCURVE",
"295 255 OFFCURVE",
"329 296 CURVE",
"352 222 OFFCURVE",
"413 39 OFFCURVE",
"486 3 CURVE SMOOTH",
"503 -5 OFFCURVE",
"523 -11 OFFCURVE",
"542 -11 CURVE SMOOTH",
"610 -11 OFFCURVE",
"639 81 OFFCURVE",
"648 133 CURVE SMOOTH",
"654 165 OFFCURVE",
"656 222 OFFCURVE",
"656 248 CURVE SMOOTH",
"656 304 OFFCURVE",
"653 331 OFFCURVE",
"630 341 CURVE",
"635 310 OFFCURVE",
"637 280 OFFCURVE",
"637 250 CURVE SMOOTH",
"637 190 OFFCURVE",
"625 89 OFFCURVE",
"578 47 CURVE SMOOTH",
"570 40 OFFCURVE",
"563 35 OFFCURVE",
"553 35 CURVE SMOOTH",
"475 35 OFFCURVE",
"387 285 OFFCURVE",
"368 343 CURVE",
"441 427 OFFCURVE",
"558 562 OFFCURVE",
"654 617 CURVE SMOOTH",
"679 632 OFFCURVE",
"735 653 OFFCURVE",
"735 687 CURVE SMOOTH",
"735 702 OFFCURVE",
"721 703 OFFCURVE",
"710 703 CURVE SMOOTH",
"690 703 OFFCURVE",
"665 699 OFFCURVE",
"647 692 CURVE SMOOTH",
"624 684 OFFCURVE",
"388 405 OFFCURVE",
"360 372 CURVE",
"336 449 OFFCURVE",
"310 554 OFFCURVE",
"310 635 CURVE SMOOTH",
"310 645 OFFCURVE",
"311 655 OFFCURVE",
"312 667 CURVE",
"342 679 OFFCURVE",
"372 691 OFFCURVE",
"403 702 CURVE",
"411 706 OFFCURVE",
"445 717 OFFCURVE",
"445 730 CURVE SMOOTH",
"445 736 OFFCURVE",
"435 738 OFFCURVE",
"431 738 CURVE SMOOTH",
"425 738 OFFCURVE",
"418 735 OFFCURVE",
"412 732 CURVE",
"392 744 OFFCURVE",
"358 748 OFFCURVE",
"334 748 CURVE SMOOTH",
"280 748 OFFCURVE",
"238 720 OFFCURVE",
"238 663 CURVE SMOOTH",
"238 657 OFFCURVE",
"238 651 OFFCURVE",
"239 645 CURVE",
"163 608 OFFCURVE",
"21 532 OFFCURVE",
"21 433 CURVE SMOOTH",
"21 386 OFFCURVE",
"50 360 OFFCURVE",
"97 360 CURVE SMOOTH",
"104 360 LINE SMOOTH",
"122 362 OFFCURVE",
"174 377 OFFCURVE",
"174 401 CURVE SMOOTH",
"174 404 OFFCURVE",
"173 405 OFFCURVE",
"172 405 CURVE SMOOTH",
"165 405 OFFCURVE",
"148 384 OFFCURVE",
"125 384 CURVE SMOOTH",
"94 384 OFFCURVE",
"76 409 OFFCURVE",
"76 439 CURVE SMOOTH",
"76 512 OFFCURVE",
"184 596 OFFCURVE",
"242 630 CURVE",
"270 529 OFFCURVE",
"291 426 OFFCURVE",
"321 325 CURVE",
"265 260 OFFCURVE",
"209 194 OFFCURVE",
"155 126 CURVE SMOOTH",
"119 84 OFFCURVE",
"85 41 OFFCURVE",
"49 1 CURVE SMOOTH",
"42 -6 OFFCURVE",
"17 -33 OFFCURVE",
"17 -42 CURVE SMOOTH",
"17 -45 OFFCURVE",
"18 -46 OFFCURVE",
"20 -46 CURVE SMOOTH"
);
},
{
closed = 1;
nodes = (
"319 700 OFFCURVE",
"328 724 OFFCURVE",
"352 724 CURVE SMOOTH",
"366 724 OFFCURVE",
"379 722 OFFCURVE",
"393 720 CURVE",
"368 704 OFFCURVE",
"340 693 OFFCURVE",
"314 681 CURVE"
);
}
);
width = 664;
}
);
leftKerningGroup = X;
note = X;
rightKerningGroup = X;
unicode = 0058;
},
{
color = 1;
glyphname = Y;
lastChange = "2022-02-09 20:12:19 +0000";
layers = (
{
anchors = (
{
name = bottom;
position = "{732, 0}";
},
{
name = top;
position = "{732, 695}";
}
);
background = {
paths = (
{
closed = 1;
nodes = (
"333 -346 OFFCURVE",
"378 -336 OFFCURVE",
"406 -323 CURVE SMOOTH",
"624 -223 OFFCURVE",
"767 72 OFFCURVE",
"845 288 CURVE SMOOTH",
"885 401 OFFCURVE",
"913 531 OFFCURVE",
"938 648 CURVE SMOOTH",
"941 662 OFFCURVE",
"952 705 OFFCURVE",
"952 716 CURVE SMOOTH",
"952 731 OFFCURVE",
"939 750 OFFCURVE",
"923 750 CURVE SMOOTH",
"890 750 OFFCURVE",
"866 691 OFFCURVE",
"862 662 CURVE SMOOTH",
"861 654 OFFCURVE",
"861 646 OFFCURVE",
"860 639 CURVE SMOOTH",
"860 638 LINE",
"813 484 OFFCURVE",
"648 206 OFFCURVE",
"538 91 CURVE SMOOTH",
"515 68 OFFCURVE",
"457 26 OFFCURVE",
"425 26 CURVE SMOOTH",
"403 26 OFFCURVE",
"398 44 OFFCURVE",
"398 62 CURVE SMOOTH",
"398 210 OFFCURVE",
"503 478 OFFCURVE",
"559 610 CURVE",
"597 602 OFFCURVE",
"634 597 OFFCURVE",
"673 597 CURVE SMOOTH",
"685 597 OFFCURVE",
"735 600 OFFCURVE",
"735 612 CURVE SMOOTH",
"735 617 OFFCURVE",
"713 617 OFFCURVE",
"709 617 CURVE SMOOTH",
"683 617 OFFCURVE",
"627 634 OFFCURVE",
"600 641 CURVE SMOOTH",
"518 663 OFFCURVE",
"390 700 OFFCURVE",
"308 700 CURVE SMOOTH",
"169 700 OFFCURVE",
"16 601 OFFCURVE",
"16 450 CURVE SMOOTH",
"16 389 OFFCURVE",
"53 292 OFFCURVE",
"126 292 CURVE SMOOTH",
"142 292 OFFCURVE",
"153 297 OFFCURVE",
"167 304 CURVE",
"168 305 OFFCURVE",
"179 311 OFFCURVE",
"179 313 CURVE SMOOTH",
"179 314 OFFCURVE",
"176 314 OFFCURVE",
"175 314 CURVE SMOOTH",
"169 314 OFFCURVE",
"164 313 OFFCURVE",
"159 313 CURVE SMOOTH",
"84 317 OFFCURVE",
"48 377 OFFCURVE",
"48 446 CURVE SMOOTH",
"48 566 OFFCURVE",
"153 671 OFFCURVE",
"273 671 CURVE SMOOTH",
"344 671 OFFCURVE",
"409 643 OFFCURVE",
"476 627 CURVE",
"487 617 OFFCURVE",
"488 600 OFFCURVE",
"488 586 CURVE SMOOTH",
"488 491 OFFCURVE",
"398 270 OFFCURVE",
"362 174 CURVE SMOOTH",
"346 130 OFFCURVE",
"323 76 OFFCURVE",
"320 30 CURVE",
"319 27 OFFCURVE",
"319 25 OFFCURVE",
"319 23 CURVE SMOOTH",
"319 -10 OFFCURVE",
"332 -33 OFFCURVE",
"368 -33 CURVE SMOOTH",
"399 -33 OFFCURVE",
"441 -15 OFFCURVE",
"468 0 CURVE SMOOTH",
"534 37 OFFCURVE",
"633 161 OFFCURVE",
"713 277 CURVE SMOOTH",
"762 348 OFFCURVE",
"822 478 OFFCURVE",
"856 553 CURVE",
"820 418 OFFCURVE",
"787 288 OFFCURVE",
"740 162 CURVE SMOOTH",
"657 -62 OFFCURVE",
"524 -306 OFFCURVE",
"352 -306 CURVE SMOOTH",
"288 -306 OFFCURVE",
"236 -279 OFFCURVE",
"194 -231 CURVE SMOOTH",
"187 -223 OFFCURVE",
"151 -169 OFFCURVE",
"146 -169 CURVE SMOOTH",
"142 -169 OFFCURVE",
"141 -190 OFFCURVE",
"141 -194 CURVE SMOOTH",
"141 -247 OFFCURVE",
"194 -311 OFFCURVE",
"241 -332 CURVE SMOOTH",
"261 -341 OFFCURVE",
"280 -346 OFFCURVE",
"302 -346 CURVE SMOOTH"
);
}
);
};
layerId = "56A77921-5252-498D-AF45-CD2B441B871C";
paths = (
{
closed = 1;
nodes = (
"333 -346 OFFCURVE",
"378 -336 OFFCURVE",
"406 -323 CURVE SMOOTH",
"624 -223 OFFCURVE",
"767 72 OFFCURVE",
"845 288 CURVE SMOOTH",
"885 401 OFFCURVE",
"913 531 OFFCURVE",
"938 648 CURVE SMOOTH",
"941 662 OFFCURVE",
"952 705 OFFCURVE",
"952 716 CURVE SMOOTH",
"952 731 OFFCURVE",
"939 750 OFFCURVE",
"923 750 CURVE SMOOTH",
"890 750 OFFCURVE",
"866 691 OFFCURVE",
"862 662 CURVE SMOOTH",
"861 654 OFFCURVE",
"860 646 OFFCURVE",
"860 639 CURVE SMOOTH",
"860 638 LINE",
"813 484 OFFCURVE",
"648 206 OFFCURVE",
"538 91 CURVE SMOOTH",
"515 68 OFFCURVE",
"457 26 OFFCURVE",
"425 26 CURVE SMOOTH",
"403 26 OFFCURVE",
"398 44 OFFCURVE",
"398 62 CURVE SMOOTH",
"398 210 OFFCURVE",
"503 478 OFFCURVE",
"559 610 CURVE",
"597 602 OFFCURVE",
"634 597 OFFCURVE",
"673 597 CURVE SMOOTH",
"685 597 OFFCURVE",
"735 600 OFFCURVE",
"735 612 CURVE SMOOTH",
"735 617 OFFCURVE",
"713 617 OFFCURVE",
"709 617 CURVE SMOOTH",
"683 617 OFFCURVE",
"627 634 OFFCURVE",
"600 641 CURVE SMOOTH",
"518 663 OFFCURVE",
"390 700 OFFCURVE",
"308 700 CURVE SMOOTH",
"169 700 OFFCURVE",
"16 601 OFFCURVE",
"16 450 CURVE SMOOTH",
"16 389 OFFCURVE",
"53 292 OFFCURVE",
"126 292 CURVE SMOOTH",
"142 292 OFFCURVE",
"153 297 OFFCURVE",
"167 304 CURVE",
"168 305 OFFCURVE",
"179 311 OFFCURVE",
"179 313 CURVE SMOOTH",
"179 314 OFFCURVE",
"176 314 OFFCURVE",
"175 314 CURVE SMOOTH",
"169 314 OFFCURVE",
"164 313 OFFCURVE",
"159 313 CURVE SMOOTH",
"84 317 OFFCURVE",
"48 377 OFFCURVE",
"48 446 CURVE SMOOTH",
"48 566 OFFCURVE",
"153 671 OFFCURVE",
"273 671 CURVE SMOOTH",
"344 671 OFFCURVE",
"409 643 OFFCURVE",
"476 627 CURVE",
"487 617 OFFCURVE",
"488 600 OFFCURVE",
"488 586 CURVE SMOOTH",
"488 491 OFFCURVE",
"398 270 OFFCURVE",
"362 174 CURVE SMOOTH",
"346 130 OFFCURVE",
"323 76 OFFCURVE",
"320 30 CURVE",
"319 27 OFFCURVE",
"319 25 OFFCURVE",
"319 23 CURVE SMOOTH",
"319 -10 OFFCURVE",
"332 -33 OFFCURVE",
"368 -33 CURVE SMOOTH",
"399 -33 OFFCURVE",
"441 -15 OFFCURVE",
"468 0 CURVE SMOOTH",
"534 37 OFFCURVE",
"633 161 OFFCURVE",
"713 277 CURVE SMOOTH",
"762 348 OFFCURVE",
"822 478 OFFCURVE",
"856 553 CURVE",
"820 418 OFFCURVE",
"787 288 OFFCURVE",
"740 162 CURVE SMOOTH",
"657 -62 OFFCURVE",
"524 -306 OFFCURVE",
"352 -306 CURVE SMOOTH",
"288 -306 OFFCURVE",
"236 -279 OFFCURVE",
"194 -231 CURVE SMOOTH",
"187 -223 OFFCURVE",
"151 -169 OFFCURVE",
"146 -169 CURVE SMOOTH",
"142 -169 OFFCURVE",
"141 -190 OFFCURVE",
"141 -194 CURVE SMOOTH",
"141 -247 OFFCURVE",
"194 -311 OFFCURVE",
"241 -332 CURVE SMOOTH",
"261 -341 OFFCURVE",
"280 -346 OFFCURVE",
"302 -346 CURVE SMOOTH"
);
}
);
width = 844;
}
);
leftKerningGroup = Y;
note = Y;
rightKerningGroup = Y;
unicode = 0059;
},
